{"glyphs":{"0":{"ha":975,"x_min":69,"x_max":906,"o":"m 488 -22 q 316 15 393 -22 q 184 119 239 53 q 99 275 129 186 q 69 468 69 364 q 99 666 69 576 q 184 822 129 756 q 316 923 239 888 q 488 958 393 958 q 659 923 582 958 q 791 822 736 888 q 876 666 846 756 q 906 468 906 576 q 876 275 906 364 q 791 119 846 186 q 659 15 736 53 q 488 -22 582 -22 m 488 242 q 546 259 518 242 q 595 308 574 276 q 629 380 617 339 q 642 468 642 421 q 629 563 642 521 q 595 633 617 604 q 546 678 574 663 q 488 694 518 694 q 429 678 457 694 q 380 633 401 663 q 346 563 358 604 q 333 468 333 521 q 355 354 333 406 q 412 272 376 303 q 488 242 447 242 z "},"1":{"ha":721,"x_min":14,"x_max":582,"o":"m 582 0 l 325 0 l 325 638 q 333 628 325 628 q 337 628 335 628 q 340 629 339 628 l 132 524 l 14 769 l 288 910 q 369 944 328 931 q 444 958 410 958 q 544 919 507 958 q 582 807 582 881 l 582 0 z "},"2":{"ha":806,"x_min":29,"x_max":757,"o":"m 757 0 l 233 0 q 113 40 153 0 q 72 135 72 79 q 91 217 72 181 q 149 286 110 253 l 376 482 q 450 556 425 524 q 475 632 475 589 q 464 673 475 654 q 431 704 453 692 q 376 717 408 717 q 283 682 322 717 q 224 601 243 647 l 29 711 q 111 837 58 781 q 237 926 164 893 q 399 958 310 958 q 572 917 497 958 q 690 806 647 875 q 732 656 732 738 q 699 498 732 564 q 603 378 665 432 l 408 208 q 413 215 411 211 q 415 221 415 218 q 410 232 415 228 q 396 236 404 236 l 757 236 l 757 0 z "},"3":{"ha":790,"x_min":28,"x_max":740,"o":"m 64 701 l 64 938 l 543 938 q 667 898 625 938 q 710 803 710 858 q 692 735 710 769 q 644 664 675 700 l 506 499 q 513 512 511 506 q 515 524 515 518 q 508 543 515 535 q 485 551 500 551 l 524 551 q 628 517 579 551 q 709 425 678 483 q 740 292 740 367 q 697 131 740 203 q 574 19 653 60 q 388 -22 494 -22 q 172 31 265 -22 q 28 193 79 83 l 249 310 q 307 233 268 258 q 392 208 346 208 q 442 219 421 208 q 476 250 464 231 q 488 294 488 269 q 458 356 488 332 q 382 379 428 379 l 342 379 q 263 406 292 379 q 233 469 235 432 q 246 517 233 493 q 281 568 258 542 l 410 719 q 407 716 408 718 q 406 711 406 714 q 408 704 406 707 q 415 701 411 701 l 64 701 z "},"4":{"ha":874,"x_min":22,"x_max":846,"o":"m 721 0 l 471 0 l 471 617 q 483 604 471 604 q 490 606 486 604 q 496 611 494 608 l 251 293 q 258 303 256 299 q 260 314 260 308 q 254 328 260 322 q 235 333 249 333 l 846 333 l 846 125 l 196 125 q 67 165 111 125 q 22 264 22 206 q 34 326 22 293 q 71 390 46 358 l 440 869 q 511 936 475 914 q 596 958 547 958 q 684 926 647 958 q 721 828 721 894 l 721 0 z "},"5":{"ha":778,"x_min":42,"x_max":736,"o":"m 388 -21 q 177 31 267 -21 q 42 171 88 82 l 250 301 q 304 228 269 256 q 388 201 339 201 q 438 213 417 201 q 472 244 460 224 q 483 288 483 264 q 454 359 483 338 q 369 381 425 381 l 243 381 q 117 425 163 381 q 72 549 72 469 l 72 939 l 679 939 l 679 717 l 294 717 l 294 571 q 290 589 294 582 q 271 596 285 596 l 413 596 q 650 525 564 596 q 736 304 736 454 q 692 135 736 208 q 570 21 649 63 q 388 -21 492 -21 z "},"6":{"ha":813,"x_min":42,"x_max":771,"o":"m 406 -22 q 210 24 292 -22 q 85 144 129 69 q 42 307 42 219 q 68 452 42 383 q 147 614 94 521 l 333 938 l 619 938 l 353 464 l 175 443 q 213 542 175 497 q 309 612 250 586 q 433 638 368 638 q 606 601 529 638 q 726 497 682 565 q 771 331 771 428 q 725 148 771 228 q 597 23 679 68 q 406 -22 515 -22 m 403 199 q 465 215 439 199 q 506 260 492 232 q 521 321 521 288 q 506 377 521 350 q 465 421 492 404 q 403 438 439 438 q 341 420 368 438 q 299 375 314 403 q 285 318 285 347 q 299 258 285 285 q 341 215 314 231 q 403 199 368 199 z "},"7":{"ha":711,"x_min":28,"x_max":679,"o":"m 397 0 l 117 0 l 414 740 q 411 731 413 735 q 410 722 410 726 q 443 701 410 701 l 28 701 l 28 938 l 485 938 q 629 896 579 938 q 679 782 679 854 q 656 672 679 735 l 397 0 z "},"8":{"ha":931,"x_min":76,"x_max":854,"o":"m 465 -21 q 256 13 343 -21 q 122 108 168 46 q 76 257 76 171 q 102 365 76 315 q 178 446 128 415 q 300 476 228 476 l 300 451 q 180 481 226 451 q 112 560 133 511 q 90 664 90 608 q 138 818 90 753 q 269 920 185 883 q 467 957 354 957 q 664 920 581 957 q 794 818 747 883 q 840 664 840 753 q 819 560 840 608 q 751 481 797 511 q 631 451 706 451 l 631 476 q 753 447 704 476 q 828 367 803 417 q 854 260 854 318 q 808 110 854 174 q 676 13 763 47 q 465 -21 589 -21 m 465 194 q 564 219 531 194 q 597 285 597 244 q 581 331 597 311 q 536 361 565 350 q 465 372 507 372 q 395 361 425 372 q 349 331 365 350 q 333 285 333 311 q 367 219 333 244 q 465 194 401 194 m 465 554 q 552 580 521 554 q 583 651 583 606 q 569 698 583 678 q 528 730 554 718 q 464 742 501 742 q 401 730 428 742 q 361 698 375 718 q 347 651 347 678 q 378 580 347 606 q 465 554 410 554 z "},"9":{"ha":826,"x_min":56,"x_max":785,"o":"m 421 958 q 616 913 535 958 q 741 792 697 867 q 785 629 785 718 q 772 533 785 579 q 736 436 760 486 q 679 322 713 386 l 515 0 l 229 0 l 474 472 l 651 472 q 558 345 632 392 q 393 299 485 299 q 224 335 300 299 q 101 441 147 372 q 56 606 56 510 q 101 789 56 710 q 229 913 147 868 q 421 958 311 958 m 424 738 q 362 721 389 738 q 320 676 335 704 q 306 615 306 649 q 319 560 306 586 q 360 516 333 533 q 424 499 386 499 q 486 516 460 499 q 527 561 513 533 q 542 618 542 589 q 527 678 542 651 q 486 722 513 706 q 424 738 460 738 z "}," ":{"ha":389,"x_min":0,"x_max":0,"o":""},"A":{"ha":983,"x_min":21,"x_max":963,"o":"m 774 158 l 236 158 l 236 388 l 774 388 l 774 158 m 21 0 l 263 789 q 354 917 289 875 q 492 958 419 958 q 630 917 565 958 q 721 789 694 875 l 963 0 l 700 0 l 504 714 q 493 728 500 728 q 482 714 486 728 l 283 0 l 21 0 z "},"Á":{"ha":983,"x_min":21,"x_max":963,"o":"m 774 158 l 236 158 l 236 388 l 774 388 l 774 158 m 21 0 l 263 789 q 354 917 289 875 q 492 958 419 958 q 630 917 565 958 q 721 789 694 875 l 963 0 l 700 0 l 504 714 q 493 728 500 728 q 482 714 486 728 l 283 0 l 21 0 m 603 1039 l 356 1039 l 532 1285 l 786 1285 l 603 1039 z "},"Ă":{"ha":983,"x_min":21,"x_max":963,"o":"m 774 158 l 236 158 l 236 388 l 774 388 l 774 158 m 21 0 l 263 789 q 354 917 289 875 q 492 958 419 958 q 630 917 565 958 q 721 789 694 875 l 963 0 l 700 0 l 504 714 q 493 728 500 728 q 482 714 486 728 l 283 0 l 21 0 m 492 1039 q 283 1101 351 1039 q 214 1271 214 1163 l 214 1285 l 422 1285 l 422 1271 q 437 1227 422 1249 q 492 1206 451 1206 q 547 1228 532 1206 q 561 1271 561 1250 l 561 1285 l 769 1285 l 769 1271 q 701 1101 769 1163 q 492 1039 632 1039 z "},"Â":{"ha":983,"x_min":21,"x_max":963,"o":"m 774 158 l 236 158 l 236 388 l 774 388 l 774 158 m 21 0 l 263 789 q 354 917 289 875 q 492 958 419 958 q 630 917 565 958 q 721 789 694 875 l 963 0 l 700 0 l 504 714 q 493 728 500 728 q 482 714 486 728 l 283 0 l 21 0 m 179 1039 l 286 1190 q 377 1267 322 1242 q 492 1293 432 1293 q 606 1267 551 1293 q 697 1190 661 1242 l 804 1039 l 564 1039 l 490 1143 q 492 1148 488 1147 q 493 1143 497 1149 l 419 1039 l 179 1039 z "},"Ä":{"ha":983,"x_min":21,"x_max":963,"o":"m 774 158 l 236 158 l 236 388 l 774 388 l 774 158 m 21 0 l 263 789 q 354 917 289 875 q 492 958 419 958 q 630 917 565 958 q 721 789 694 875 l 963 0 l 700 0 l 504 714 q 493 728 500 728 q 482 714 486 728 l 283 0 l 21 0 m 310 1019 q 210 1061 251 1019 q 168 1161 168 1103 q 210 1261 168 1219 q 310 1303 251 1303 q 408 1261 367 1303 q 450 1161 450 1219 q 408 1061 450 1103 q 310 1019 367 1019 m 674 1019 q 575 1061 617 1019 q 533 1161 533 1103 q 575 1261 533 1219 q 674 1303 617 1303 q 774 1261 732 1303 q 815 1161 815 1219 q 774 1061 815 1103 q 674 1019 732 1019 z "},"À":{"ha":983,"x_min":21,"x_max":963,"o":"m 774 158 l 236 158 l 236 388 l 774 388 l 774 158 m 21 0 l 263 789 q 354 917 289 875 q 492 958 419 958 q 630 917 565 958 q 721 789 694 875 l 963 0 l 700 0 l 504 714 q 493 728 500 728 q 482 714 486 728 l 283 0 l 21 0 m 454 1285 l 631 1039 l 383 1039 l 200 1285 l 454 1285 z "},"Ā":{"ha":983,"x_min":21,"x_max":963,"o":"m 774 158 l 236 158 l 236 388 l 774 388 l 774 158 m 21 0 l 263 789 q 354 917 289 875 q 492 958 419 958 q 630 917 565 958 q 721 789 694 875 l 963 0 l 700 0 l 504 714 q 493 728 500 728 q 482 714 486 728 l 283 0 l 21 0 m 758 1257 l 758 1069 l 224 1069 l 224 1257 l 758 1257 z "},"Ą":{"ha":983,"x_min":21,"x_max":985,"o":"m 774 158 l 236 158 l 236 388 l 774 388 l 774 158 m 21 0 l 263 789 q 354 917 289 875 q 492 958 419 958 q 630 917 565 958 q 721 789 694 875 l 963 0 l 700 0 l 504 714 q 493 728 500 728 q 482 714 486 728 l 283 0 l 21 0 m 985 -237 l 900 -429 q 751 -391 817 -422 q 647 -309 685 -360 q 610 -193 610 -258 q 633 -88 610 -135 q 700 0 657 -42 l 913 0 q 850 -67 869 -36 q 831 -131 831 -99 q 876 -206 831 -182 q 985 -237 921 -231 z "},"Å":{"ha":983,"x_min":21,"x_max":963,"o":"m 774 158 l 236 158 l 236 388 l 774 388 l 774 158 m 21 0 l 263 789 q 354 917 289 875 q 492 958 419 958 q 630 917 565 958 q 721 789 694 875 l 963 0 l 700 0 l 504 714 q 493 728 500 728 q 482 714 486 728 l 283 0 l 21 0 m 492 963 q 392 990 438 963 q 320 1062 347 1017 q 293 1161 293 1107 q 320 1260 293 1215 q 392 1333 347 1306 q 492 1360 438 1360 q 591 1333 546 1360 q 663 1260 636 1306 q 690 1161 690 1215 q 663 1062 690 1107 q 591 990 636 1017 q 492 963 546 963 m 492 1106 q 531 1122 515 1106 q 547 1161 547 1139 q 531 1201 547 1185 q 492 1217 515 1217 q 453 1201 469 1217 q 436 1161 436 1185 q 453 1122 436 1139 q 492 1106 469 1106 z "},"Ã":{"ha":983,"x_min":21,"x_max":963,"o":"m 774 158 l 236 158 l 236 388 l 774 388 l 774 158 m 21 0 l 263 789 q 354 917 289 875 q 492 958 419 958 q 630 917 565 958 q 721 789 694 875 l 963 0 l 700 0 l 504 714 q 493 728 500 728 q 482 714 486 728 l 283 0 l 21 0 m 372 1039 l 196 1086 q 219 1178 199 1135 q 277 1248 240 1221 q 363 1275 314 1275 q 440 1265 406 1275 q 504 1244 475 1254 q 558 1233 533 1233 q 597 1250 582 1233 q 613 1285 611 1267 l 789 1238 q 765 1146 786 1189 q 708 1076 744 1103 q 622 1049 672 1049 q 544 1059 578 1049 q 482 1080 510 1069 q 426 1090 454 1090 q 389 1074 403 1090 q 372 1039 375 1057 z "},"Æ":{"ha":1444,"x_min":21,"x_max":1375,"o":"m 290 0 l 21 0 l 381 725 q 458 846 418 799 q 555 915 497 893 q 701 938 613 938 l 933 938 l 933 703 l 714 701 l 679 708 q 640 697 653 708 q 615 664 626 686 l 290 0 m 732 185 l 278 185 l 278 414 l 732 414 l 732 185 m 1375 0 l 888 0 q 717 58 769 0 q 665 215 665 117 l 665 722 q 717 879 665 821 q 888 938 769 938 l 1368 938 l 1368 708 l 922 708 l 922 229 l 1375 229 l 1375 0 m 1336 354 l 867 354 l 832 583 l 1336 583 l 1336 354 z "},"B":{"ha":958,"x_min":111,"x_max":889,"o":"m 504 0 l 111 0 l 111 938 l 504 938 q 782 865 682 938 q 882 672 882 793 q 844 543 882 596 q 743 463 807 490 q 597 436 679 436 l 597 485 q 742 467 675 485 q 849 401 808 449 q 889 265 889 353 q 861 150 889 200 q 783 67 833 100 q 661 17 732 33 q 504 0 590 0 m 368 358 l 368 208 l 518 208 q 567 213 546 208 q 602 226 588 217 q 624 249 617 235 q 632 283 632 263 q 602 343 632 328 q 518 358 572 358 l 368 358 m 368 729 l 368 567 l 518 567 q 599 589 572 567 q 625 651 625 611 q 599 708 625 688 q 518 729 574 729 l 368 729 z "},"C":{"ha":942,"x_min":42,"x_max":935,"o":"m 536 -21 q 341 17 431 -21 q 184 121 251 54 q 79 276 117 188 q 42 468 42 365 q 79 660 42 571 q 184 815 117 749 q 341 919 251 882 q 536 957 431 957 q 698 928 619 957 q 839 846 776 900 q 935 714 901 792 l 725 597 q 651 682 696 650 q 525 714 607 714 q 435 696 475 714 q 365 645 394 678 q 321 567 336 613 q 306 468 306 522 q 321 369 306 414 q 365 291 336 324 q 434 240 393 258 q 525 222 475 222 q 653 255 607 222 q 725 339 699 288 l 935 222 q 839 91 901 146 q 698 8 776 36 q 536 -21 619 -21 z "},"Ć":{"ha":942,"x_min":42,"x_max":935,"o":"m 536 -21 q 341 17 431 -21 q 184 121 251 54 q 79 276 117 188 q 42 468 42 365 q 79 660 42 571 q 184 815 117 749 q 341 919 251 882 q 536 957 431 957 q 698 928 619 957 q 839 846 776 900 q 935 714 901 792 l 725 597 q 651 682 696 650 q 525 714 607 714 q 435 696 475 714 q 365 645 394 678 q 321 567 336 613 q 306 468 306 522 q 321 369 306 414 q 365 291 336 324 q 434 240 393 258 q 525 222 475 222 q 653 255 607 222 q 725 339 699 288 l 935 222 q 839 91 901 146 q 698 8 776 36 q 536 -21 619 -21 m 647 1039 l 400 1039 l 576 1285 l 831 1285 l 647 1039 z "},"Č":{"ha":942,"x_min":42,"x_max":935,"o":"m 536 -21 q 341 17 431 -21 q 184 121 251 54 q 79 276 117 188 q 42 468 42 365 q 79 660 42 571 q 184 815 117 749 q 341 919 251 882 q 536 957 431 957 q 698 928 619 957 q 839 846 776 900 q 935 714 901 792 l 725 597 q 651 682 696 650 q 525 714 607 714 q 435 696 475 714 q 365 645 394 678 q 321 567 336 613 q 306 468 306 522 q 321 369 306 414 q 365 291 336 324 q 434 240 393 258 q 525 222 475 222 q 653 255 607 222 q 725 339 699 288 l 935 222 q 839 91 901 146 q 698 8 776 36 q 536 -21 619 -21 m 331 1133 l 224 1285 l 464 1285 l 538 1181 q 537 1176 542 1175 q 535 1181 532 1176 l 608 1285 l 849 1285 l 742 1133 q 651 1057 706 1082 q 536 1032 596 1032 q 422 1057 476 1032 q 331 1133 367 1082 z "},"Ç":{"ha":942,"x_min":42,"x_max":935,"o":"m 536 -21 q 341 17 431 -21 q 184 121 251 54 q 79 276 117 188 q 42 468 42 365 q 79 660 42 571 q 184 815 117 749 q 341 919 251 882 q 536 957 431 957 q 698 928 619 957 q 839 846 776 900 q 935 714 901 792 l 725 597 q 651 682 696 650 q 525 714 607 714 q 435 696 475 714 q 365 645 394 678 q 321 567 336 613 q 306 468 306 522 q 321 369 306 414 q 365 291 336 324 q 434 240 393 258 q 525 222 475 222 q 653 255 607 222 q 725 339 699 288 l 935 222 q 839 91 901 146 q 698 8 776 36 q 536 -21 619 -21 m 647 0 l 619 -93 l 393 -93 l 428 0 l 647 0 m 467 -424 l 388 -260 q 477 -230 454 -250 q 500 -186 500 -210 q 474 -150 500 -160 q 406 -140 447 -140 l 375 -140 l 418 -25 l 489 -25 q 651 -69 588 -24 q 715 -201 715 -115 q 683 -310 715 -264 q 594 -385 650 -357 q 467 -424 538 -414 z "},"Ċ":{"ha":942,"x_min":42,"x_max":935,"o":"m 536 -21 q 341 17 431 -21 q 184 121 251 54 q 79 276 117 188 q 42 468 42 365 q 79 660 42 571 q 184 815 117 749 q 341 919 251 882 q 536 957 431 957 q 698 928 619 957 q 839 846 776 900 q 935 714 901 792 l 725 597 q 651 682 696 650 q 525 714 607 714 q 435 696 475 714 q 365 645 394 678 q 321 567 336 613 q 306 468 306 522 q 321 369 306 414 q 365 291 336 324 q 434 240 393 258 q 525 222 475 222 q 653 255 607 222 q 725 339 699 288 l 935 222 q 839 91 901 146 q 698 8 776 36 q 536 -21 619 -21 m 536 1011 q 461 1031 496 1011 q 406 1086 426 1051 q 386 1161 386 1121 q 406 1237 386 1203 q 461 1291 426 1271 q 536 1311 496 1311 q 612 1291 578 1311 q 666 1237 646 1271 q 686 1161 686 1203 q 666 1086 686 1121 q 612 1031 646 1051 q 536 1011 578 1011 z "},"D":{"ha":1049,"x_min":111,"x_max":993,"o":"m 993 465 q 956 273 993 358 q 850 126 918 188 q 688 33 782 65 q 482 0 594 0 l 111 0 l 111 938 l 482 938 q 751 878 636 938 q 929 714 865 819 q 993 465 993 608 m 729 465 q 699 589 729 536 q 613 672 668 642 q 482 701 557 701 l 368 701 l 368 229 l 482 229 q 584 246 539 229 q 662 294 629 263 q 712 369 694 325 q 729 465 729 413 z "},"Ð":{"ha":1049,"x_min":22,"x_max":993,"o":"m 111 365 l 22 365 l 22 574 l 111 574 l 111 938 l 482 938 q 751 878 636 938 q 929 714 865 819 q 993 465 993 608 q 956 273 993 358 q 850 126 918 188 q 688 33 782 65 q 482 0 594 0 l 111 0 l 111 365 m 368 365 l 368 229 l 482 229 q 584 246 539 229 q 662 294 629 263 q 712 369 694 325 q 729 465 729 413 q 699 589 729 536 q 613 672 668 642 q 482 701 557 701 l 368 701 l 368 574 l 532 574 l 532 365 l 368 365 z "},"Ď":{"ha":1049,"x_min":111,"x_max":993,"o":"m 993 465 q 956 273 993 358 q 850 126 918 188 q 688 33 782 65 q 482 0 594 0 l 111 0 l 111 938 l 482 938 q 751 878 636 938 q 929 714 865 819 q 993 465 993 608 m 729 465 q 699 589 729 536 q 613 672 668 642 q 482 701 557 701 l 368 701 l 368 229 l 482 229 q 584 246 539 229 q 662 294 629 263 q 712 369 694 325 q 729 465 729 413 m 256 1133 l 149 1285 l 389 1285 l 463 1181 q 462 1176 467 1175 q 460 1181 457 1176 l 533 1285 l 774 1285 l 667 1133 q 576 1057 631 1082 q 461 1032 521 1032 q 347 1057 401 1032 q 256 1133 292 1082 z "},"Đ":{"ha":1049,"x_min":22,"x_max":993,"o":"m 111 365 l 22 365 l 22 574 l 111 574 l 111 938 l 482 938 q 751 878 636 938 q 929 714 865 819 q 993 465 993 608 q 956 273 993 358 q 850 126 918 188 q 688 33 782 65 q 482 0 594 0 l 111 0 l 111 365 m 368 365 l 368 229 l 482 229 q 584 246 539 229 q 662 294 629 263 q 712 369 694 325 q 729 465 729 413 q 699 589 729 536 q 613 672 668 642 q 482 701 557 701 l 368 701 l 368 574 l 532 574 l 532 365 l 368 365 z "},"E":{"ha":876,"x_min":97,"x_max":807,"o":"m 807 0 l 319 0 q 149 58 201 0 q 97 215 97 117 l 97 722 q 149 879 97 821 q 319 938 201 938 l 800 938 l 800 708 l 354 708 l 354 229 l 807 229 l 807 0 m 768 354 l 299 354 l 264 583 l 768 583 l 768 354 z "},"É":{"ha":876,"x_min":97,"x_max":807,"o":"m 807 0 l 319 0 q 149 58 201 0 q 97 215 97 117 l 97 722 q 149 879 97 821 q 319 938 201 938 l 800 938 l 800 708 l 354 708 l 354 229 l 807 229 l 807 0 m 768 354 l 299 354 l 264 583 l 768 583 l 768 354 m 550 1039 l 303 1039 l 479 1285 l 733 1285 l 550 1039 z "},"Ě":{"ha":876,"x_min":97,"x_max":807,"o":"m 807 0 l 319 0 q 149 58 201 0 q 97 215 97 117 l 97 722 q 149 879 97 821 q 319 938 201 938 l 800 938 l 800 708 l 354 708 l 354 229 l 807 229 l 807 0 m 768 354 l 299 354 l 264 583 l 768 583 l 768 354 m 233 1133 l 126 1285 l 367 1285 l 440 1181 q 440 1176 444 1175 q 438 1181 435 1176 l 511 1285 l 751 1285 l 644 1133 q 553 1057 608 1082 q 439 1032 499 1032 q 324 1057 379 1032 q 233 1133 269 1082 z "},"Ê":{"ha":876,"x_min":97,"x_max":807,"o":"m 807 0 l 319 0 q 149 58 201 0 q 97 215 97 117 l 97 722 q 149 879 97 821 q 319 938 201 938 l 800 938 l 800 708 l 354 708 l 354 229 l 807 229 l 807 0 m 768 354 l 299 354 l 264 583 l 768 583 l 768 354 m 126 1039 l 233 1190 q 324 1267 269 1242 q 439 1293 379 1293 q 553 1267 499 1293 q 644 1190 608 1242 l 751 1039 l 511 1039 l 438 1143 q 440 1148 435 1147 q 440 1143 444 1149 l 367 1039 l 126 1039 z "},"Ë":{"ha":876,"x_min":97,"x_max":807,"o":"m 807 0 l 319 0 q 149 58 201 0 q 97 215 97 117 l 97 722 q 149 879 97 821 q 319 938 201 938 l 800 938 l 800 708 l 354 708 l 354 229 l 807 229 l 807 0 m 768 354 l 299 354 l 264 583 l 768 583 l 768 354 m 257 1019 q 157 1061 199 1019 q 115 1161 115 1103 q 157 1261 115 1219 q 257 1303 199 1303 q 356 1261 314 1303 q 397 1161 397 1219 q 356 1061 397 1103 q 257 1019 314 1019 m 621 1019 q 522 1061 564 1019 q 481 1161 481 1103 q 522 1261 481 1219 q 621 1303 564 1303 q 721 1261 679 1303 q 763 1161 763 1219 q 721 1061 763 1103 q 621 1019 679 1019 z "},"Ė":{"ha":876,"x_min":97,"x_max":807,"o":"m 807 0 l 319 0 q 149 58 201 0 q 97 215 97 117 l 97 722 q 149 879 97 821 q 319 938 201 938 l 800 938 l 800 708 l 354 708 l 354 229 l 807 229 l 807 0 m 768 354 l 299 354 l 264 583 l 768 583 l 768 354 m 439 1011 q 364 1031 399 1011 q 309 1086 329 1051 q 289 1161 289 1121 q 309 1237 289 1203 q 364 1291 329 1271 q 439 1311 399 1311 q 515 1291 481 1311 q 569 1237 549 1271 q 589 1161 589 1203 q 569 1086 589 1121 q 515 1031 549 1051 q 439 1011 481 1011 z "},"È":{"ha":876,"x_min":97,"x_max":807,"o":"m 807 0 l 319 0 q 149 58 201 0 q 97 215 97 117 l 97 722 q 149 879 97 821 q 319 938 201 938 l 800 938 l 800 708 l 354 708 l 354 229 l 807 229 l 807 0 m 768 354 l 299 354 l 264 583 l 768 583 l 768 354 m 401 1285 l 578 1039 l 331 1039 l 147 1285 l 401 1285 z "},"Ē":{"ha":876,"x_min":97,"x_max":807,"o":"m 807 0 l 319 0 q 149 58 201 0 q 97 215 97 117 l 97 722 q 149 879 97 821 q 319 938 201 938 l 800 938 l 800 708 l 354 708 l 354 229 l 807 229 l 807 0 m 768 354 l 299 354 l 264 583 l 768 583 l 768 354 m 706 1257 l 706 1069 l 171 1069 l 171 1257 l 706 1257 z "},"Ę":{"ha":876,"x_min":97,"x_max":881,"o":"m 807 0 l 319 0 q 149 58 201 0 q 97 215 97 117 l 97 722 q 149 879 97 821 q 319 938 201 938 l 800 938 l 800 708 l 354 708 l 354 229 l 807 229 l 807 0 m 768 354 l 299 354 l 264 583 l 768 583 l 768 354 m 881 -237 l 796 -429 q 647 -391 713 -422 q 543 -309 581 -360 q 506 -193 506 -258 q 529 -88 506 -135 q 596 0 553 -42 l 808 0 q 746 -67 765 -36 q 726 -131 726 -99 q 772 -206 726 -182 q 881 -237 817 -231 z "},"F":{"ha":833,"x_min":104,"x_max":799,"o":"m 361 0 l 104 0 l 104 722 q 156 879 104 821 q 326 938 208 938 l 799 938 l 799 701 l 361 701 l 361 0 m 767 283 l 306 283 l 271 519 l 767 519 l 767 283 z "},"G":{"ha":1003,"x_min":42,"x_max":947,"o":"m 536 -21 q 341 17 431 -21 q 184 121 251 54 q 79 276 117 188 q 42 468 42 365 q 78 660 42 571 q 183 815 115 749 q 340 919 250 882 q 536 957 431 957 q 698 929 619 957 q 839 847 776 901 q 935 714 901 793 l 725 597 q 680 660 706 633 q 617 701 654 686 q 525 715 579 715 q 435 697 475 715 q 365 644 394 678 q 321 565 336 611 q 306 464 306 519 q 322 359 306 406 q 367 279 338 313 q 440 228 397 246 q 536 211 483 211 q 603 215 574 211 q 656 227 632 218 q 699 254 679 236 l 697 447 l 947 447 l 947 169 q 851 71 911 114 q 710 3 790 28 q 536 -21 631 -21 z "},"Ğ":{"ha":1003,"x_min":42,"x_max":947,"o":"m 536 -21 q 341 17 431 -21 q 184 121 251 54 q 79 276 117 188 q 42 468 42 365 q 78 660 42 571 q 183 815 115 749 q 340 919 250 882 q 536 957 431 957 q 698 929 619 957 q 839 847 776 901 q 935 714 901 793 l 725 597 q 680 660 706 633 q 617 701 654 686 q 525 715 579 715 q 435 697 475 715 q 365 644 394 678 q 321 565 336 611 q 306 464 306 519 q 322 359 306 406 q 367 279 338 313 q 440 228 397 246 q 536 211 483 211 q 603 215 574 211 q 656 227 632 218 q 699 254 679 236 l 697 447 l 947 447 l 947 169 q 851 71 911 114 q 710 3 790 28 q 536 -21 631 -21 m 538 1039 q 328 1101 397 1039 q 260 1271 260 1163 l 260 1285 l 468 1285 l 468 1271 q 483 1227 468 1249 q 538 1206 497 1206 q 592 1228 578 1206 q 607 1271 607 1250 l 607 1285 l 815 1285 l 815 1271 q 747 1101 815 1163 q 538 1039 678 1039 z "},"Ģ":{"ha":1003,"x_min":42,"x_max":947,"o":"m 536 -21 q 341 17 431 -21 q 184 121 251 54 q 79 276 117 188 q 42 468 42 365 q 78 660 42 571 q 183 815 115 749 q 340 919 250 882 q 536 957 431 957 q 698 929 619 957 q 839 847 776 901 q 935 714 901 793 l 725 597 q 680 660 706 633 q 617 701 654 686 q 525 715 579 715 q 435 697 475 715 q 365 644 394 678 q 321 565 336 611 q 306 464 306 519 q 322 359 306 406 q 367 279 338 313 q 440 228 397 246 q 536 211 483 211 q 603 215 574 211 q 656 227 632 218 q 699 254 679 236 l 697 447 l 947 447 l 947 169 q 851 71 911 114 q 710 3 790 28 q 536 -21 631 -21 m 556 -454 l 421 -454 l 463 -203 l 646 -236 l 556 -454 m 525 -328 q 437 -291 474 -328 q 400 -203 400 -254 q 437 -115 400 -151 q 525 -78 474 -78 q 613 -115 576 -78 q 650 -203 650 -151 q 613 -291 650 -254 q 525 -328 576 -328 z "},"Ġ":{"ha":1003,"x_min":42,"x_max":947,"o":"m 536 -21 q 341 17 431 -21 q 184 121 251 54 q 79 276 117 188 q 42 468 42 365 q 78 660 42 571 q 183 815 115 749 q 340 919 250 882 q 536 957 431 957 q 698 929 619 957 q 839 847 776 901 q 935 714 901 793 l 725 597 q 680 660 706 633 q 617 701 654 686 q 525 715 579 715 q 435 697 475 715 q 365 644 394 678 q 321 565 336 611 q 306 464 306 519 q 322 359 306 406 q 367 279 338 313 q 440 228 397 246 q 536 211 483 211 q 603 215 574 211 q 656 227 632 218 q 699 254 679 236 l 697 447 l 947 447 l 947 169 q 851 71 911 114 q 710 3 790 28 q 536 -21 631 -21 m 538 1011 q 463 1031 497 1011 q 408 1086 428 1051 q 388 1161 388 1121 q 408 1237 388 1203 q 463 1291 428 1271 q 538 1311 497 1311 q 613 1291 579 1311 q 667 1237 647 1271 q 688 1161 688 1203 q 667 1086 688 1121 q 613 1031 647 1051 q 538 1011 579 1011 z "},"H":{"ha":1104,"x_min":111,"x_max":993,"o":"m 368 0 l 111 0 l 111 938 l 368 938 l 368 585 l 736 585 l 736 938 l 993 938 l 993 0 l 736 0 l 736 349 l 368 349 l 368 0 z "},"Ħ":{"ha":1104,"x_min":8,"x_max":1101,"o":"m 111 626 l 8 626 l 8 835 l 111 835 l 111 938 l 368 938 l 368 835 l 736 835 l 736 938 l 993 938 l 993 835 l 1101 835 l 1101 626 l 993 626 l 993 0 l 736 0 l 736 279 l 368 279 l 368 0 l 111 0 l 111 626 m 368 640 l 368 515 l 736 515 l 736 640 l 368 640 z "},"I":{"ha":479,"x_min":111,"x_max":368,"o":"m 111 938 l 368 938 l 368 0 l 111 0 l 111 938 z "},"Í":{"ha":479,"x_min":104,"x_max":535,"o":"m 111 938 l 368 938 l 368 0 l 111 0 l 111 938 m 351 1039 l 104 1039 l 281 1285 l 535 1285 l 351 1039 z "},"Î":{"ha":479,"x_min":-72,"x_max":553,"o":"m 111 938 l 368 938 l 368 0 l 111 0 l 111 938 m -72 1039 l 35 1190 q 126 1267 71 1242 q 240 1293 181 1293 q 355 1267 300 1293 q 446 1190 410 1242 l 553 1039 l 313 1039 l 239 1143 q 241 1148 236 1147 q 242 1143 246 1149 l 168 1039 l -72 1039 z "},"Ï":{"ha":479,"x_min":-83,"x_max":564,"o":"m 111 938 l 368 938 l 368 0 l 111 0 l 111 938 m 58 1019 q -42 1061 0 1019 q -83 1161 -83 1103 q -42 1261 -83 1219 q 58 1303 0 1303 q 157 1261 115 1303 q 199 1161 199 1219 q 157 1061 199 1103 q 58 1019 115 1019 m 422 1019 q 324 1061 365 1019 q 282 1161 282 1103 q 324 1261 282 1219 q 422 1303 365 1303 q 522 1261 481 1303 q 564 1161 564 1219 q 522 1061 564 1103 q 422 1019 481 1019 z "},"İ":{"ha":479,"x_min":90,"x_max":390,"o":"m 111 938 l 368 938 l 368 0 l 111 0 l 111 938 m 240 1011 q 165 1031 200 1011 q 110 1086 131 1051 q 90 1161 90 1121 q 110 1237 90 1203 q 165 1291 131 1271 q 240 1311 200 1311 q 316 1291 282 1311 q 370 1237 350 1271 q 390 1161 390 1203 q 370 1086 390 1121 q 316 1031 350 1051 q 240 1011 282 1011 z "},"Ì":{"ha":479,"x_min":-51,"x_max":379,"o":"m 111 938 l 368 938 l 368 0 l 111 0 l 111 938 m 203 1285 l 379 1039 l 132 1039 l -51 1285 l 203 1285 z "},"Ī":{"ha":479,"x_min":-28,"x_max":507,"o":"m 111 938 l 368 938 l 368 0 l 111 0 l 111 938 m 507 1257 l 507 1069 l -28 1069 l -28 1257 l 507 1257 z "},"Į":{"ha":479,"x_min":67,"x_max":442,"o":"m 111 938 l 368 938 l 368 0 l 111 0 l 111 938 m 442 -237 l 357 -429 q 208 -391 274 -422 q 104 -309 142 -360 q 67 -193 67 -258 q 90 -88 67 -135 q 157 0 114 -42 l 369 0 q 307 -67 326 -36 q 288 -131 288 -99 q 333 -206 288 -182 q 442 -237 378 -231 z "},"J":{"ha":550,"x_min":7,"x_max":446,"o":"m 7 -14 l 7 229 q 151 263 114 229 q 189 358 189 296 l 188 938 l 446 938 l 446 378 q 340 88 446 189 q 7 -14 233 -14 z "},"K":{"ha":1031,"x_min":111,"x_max":1017,"o":"m 1017 0 l 704 0 l 522 269 q 468 372 488 322 q 449 468 449 421 q 467 566 449 517 q 522 667 485 615 l 719 938 l 1008 938 l 765 600 q 722 532 736 560 q 707 478 707 504 q 722 424 707 451 q 765 354 736 396 l 1017 0 m 368 0 l 111 0 l 111 938 l 368 938 l 368 0 m 560 585 l 560 349 l 286 349 l 286 585 l 560 585 z "},"Ķ":{"ha":1031,"x_min":111,"x_max":1017,"o":"m 1017 0 l 704 0 l 522 269 q 468 372 488 322 q 449 468 449 421 q 467 566 449 517 q 522 667 485 615 l 719 938 l 1008 938 l 765 600 q 722 532 736 560 q 707 478 707 504 q 722 424 707 451 q 765 354 736 396 l 1017 0 m 368 0 l 111 0 l 111 938 l 368 938 l 368 0 m 560 585 l 560 349 l 286 349 l 286 585 l 560 585 m 532 -454 l 397 -454 l 439 -203 l 622 -236 l 532 -454 m 501 -328 q 413 -291 450 -328 q 376 -203 376 -254 q 413 -115 376 -151 q 501 -78 450 -78 q 590 -115 553 -78 q 626 -203 626 -151 q 590 -291 626 -254 q 501 -328 553 -328 z "},"L":{"ha":796,"x_min":111,"x_max":782,"o":"m 368 938 l 368 236 l 782 236 l 782 0 l 333 0 q 163 58 215 0 q 111 215 111 117 l 111 938 l 368 938 z "},"Ĺ":{"ha":796,"x_min":104,"x_max":782,"o":"m 368 938 l 368 236 l 782 236 l 782 0 l 333 0 q 163 58 215 0 q 111 215 111 117 l 111 938 l 368 938 m 351 1039 l 104 1039 l 281 1285 l 535 1285 l 351 1039 z "},"Ľ":{"ha":796,"x_min":111,"x_max":782,"o":"m 368 938 l 368 236 l 782 236 l 782 0 l 333 0 q 163 58 215 0 q 111 215 111 117 l 111 938 l 368 938 m 615 938 l 615 669 l 442 669 l 442 938 l 615 938 z "},"Ļ":{"ha":796,"x_min":111,"x_max":782,"o":"m 368 938 l 368 236 l 782 236 l 782 0 l 333 0 q 163 58 215 0 q 111 215 111 117 l 111 938 l 368 938 m 485 -454 l 350 -454 l 392 -203 l 575 -236 l 485 -454 m 454 -328 q 366 -291 403 -328 q 329 -203 329 -254 q 366 -115 329 -151 q 454 -78 403 -78 q 542 -115 506 -78 q 579 -203 579 -151 q 542 -291 579 -254 q 454 -328 506 -328 z "},"Ł":{"ha":782,"x_min":-7,"x_max":782,"o":"m -7 438 l 586 789 l 586 576 l -7 229 l -7 438 m 368 938 l 368 236 l 782 236 l 782 0 l 333 0 q 163 58 215 0 q 111 215 111 117 l 111 938 l 368 938 z "},"M":{"ha":1426,"x_min":56,"x_max":1371,"o":"m 317 0 l 56 0 l 179 788 q 248 915 193 871 q 388 958 303 958 q 517 924 461 958 q 593 813 574 890 l 728 288 q 721 296 725 296 q 717 293 718 296 q 714 288 715 290 l 847 808 q 925 922 867 886 q 1058 958 983 958 q 1194 914 1140 958 q 1260 783 1247 869 l 1371 0 l 1111 0 l 1032 697 q 1035 692 1033 694 q 1039 689 1036 689 q 1043 692 1042 689 q 1046 697 1044 694 l 888 119 q 824 26 869 57 q 721 -4 779 -4 q 617 25 664 -4 q 554 114 569 54 l 397 697 q 400 692 399 694 q 404 689 401 689 q 408 692 407 689 q 411 697 410 694 l 317 0 z "},"N":{"ha":1097,"x_min":104,"x_max":993,"o":"m 347 0 l 104 0 l 104 800 q 127 886 104 850 q 187 941 150 922 q 264 960 224 960 q 353 942 313 960 q 419 885 394 925 l 824 244 q 801 265 811 260 q 781 271 792 271 q 759 260 768 271 q 750 228 750 249 l 750 938 l 993 938 l 993 138 q 970 52 993 88 q 911 -2 947 17 q 833 -21 875 -21 q 744 -3 786 -21 q 678 54 703 15 l 279 686 q 298 669 289 674 q 318 664 307 664 q 340 675 332 664 q 347 708 347 686 l 347 0 z "},"Ń":{"ha":1097,"x_min":104,"x_max":993,"o":"m 347 0 l 104 0 l 104 800 q 127 886 104 850 q 187 941 150 922 q 264 960 224 960 q 353 942 313 960 q 419 885 394 925 l 824 244 q 801 265 811 260 q 781 271 792 271 q 759 260 768 271 q 750 228 750 249 l 750 938 l 993 938 l 993 138 q 970 52 993 88 q 911 -2 947 17 q 833 -21 875 -21 q 744 -3 786 -21 q 678 54 703 15 l 279 686 q 298 669 289 674 q 318 664 307 664 q 340 675 332 664 q 347 708 347 686 l 347 0 m 679 1039 l 432 1039 l 608 1285 l 863 1285 l 679 1039 z "},"Ň":{"ha":1097,"x_min":104,"x_max":993,"o":"m 347 0 l 104 0 l 104 800 q 127 886 104 850 q 187 941 150 922 q 264 960 224 960 q 353 942 313 960 q 419 885 394 925 l 824 244 q 801 265 811 260 q 781 271 792 271 q 759 260 768 271 q 750 228 750 249 l 750 938 l 993 938 l 993 138 q 970 52 993 88 q 911 -2 947 17 q 833 -21 875 -21 q 744 -3 786 -21 q 678 54 703 15 l 279 686 q 298 669 289 674 q 318 664 307 664 q 340 675 332 664 q 347 708 347 686 l 347 0 m 363 1133 l 256 1285 l 496 1285 l 569 1181 q 569 1176 574 1175 q 567 1181 564 1176 l 640 1285 l 881 1285 l 774 1133 q 683 1057 738 1082 q 568 1032 628 1032 q 453 1057 508 1032 q 363 1133 399 1082 z "},"Ņ":{"ha":1097,"x_min":104,"x_max":993,"o":"m 347 0 l 104 0 l 104 800 q 127 886 104 850 q 187 941 150 922 q 264 960 224 960 q 353 942 313 960 q 419 885 394 925 l 824 244 q 801 265 811 260 q 781 271 792 271 q 759 260 768 271 q 750 228 750 249 l 750 938 l 993 938 l 993 138 q 970 52 993 88 q 911 -2 947 17 q 833 -21 875 -21 q 744 -3 786 -21 q 678 54 703 15 l 279 686 q 298 669 289 674 q 318 664 307 664 q 340 675 332 664 q 347 708 347 686 l 347 0 m 578 -454 l 443 -454 l 485 -203 l 668 -236 l 578 -454 m 547 -328 q 459 -291 496 -328 q 422 -203 422 -254 q 459 -115 422 -151 q 547 -78 496 -78 q 635 -115 599 -78 q 672 -203 672 -151 q 635 -291 672 -254 q 547 -328 599 -328 z "},"Ŋ":{"ha":1097,"x_min":104,"x_max":993,"o":"m 347 0 l 104 0 l 104 800 q 127 886 104 850 q 187 941 150 922 q 264 960 224 960 q 353 942 313 960 q 419 885 394 925 l 824 244 q 801 265 811 260 q 781 271 792 271 q 759 260 768 271 q 750 228 750 249 l 750 938 l 993 938 l 993 138 q 970 52 993 88 q 911 -2 947 17 q 833 -21 875 -21 q 744 -3 786 -21 q 678 54 703 15 l 279 686 q 298 669 289 674 q 318 664 307 664 q 340 675 332 664 q 347 708 347 686 l 347 0 m 750 167 l 993 167 l 993 -18 q 947 -196 993 -125 q 819 -301 900 -267 q 633 -336 739 -336 l 632 -114 q 724 -95 697 -114 q 750 -37 750 -76 l 750 167 z "},"Ñ":{"ha":1097,"x_min":104,"x_max":993,"o":"m 347 0 l 104 0 l 104 800 q 127 886 104 850 q 187 941 150 922 q 264 960 224 960 q 353 942 313 960 q 419 885 394 925 l 824 244 q 801 265 811 260 q 781 271 792 271 q 759 260 768 271 q 750 228 750 249 l 750 938 l 993 938 l 993 138 q 970 52 993 88 q 911 -2 947 17 q 833 -21 875 -21 q 744 -3 786 -21 q 678 54 703 15 l 279 686 q 298 669 289 674 q 318 664 307 664 q 340 675 332 664 q 347 708 347 686 l 347 0 m 449 1039 l 272 1086 q 296 1178 275 1135 q 353 1248 317 1221 q 439 1275 390 1275 q 517 1265 482 1275 q 581 1244 551 1254 q 635 1233 610 1233 q 673 1250 658 1233 q 689 1285 688 1267 l 865 1238 q 842 1146 863 1189 q 785 1076 821 1103 q 699 1049 749 1049 q 620 1059 654 1049 q 558 1080 586 1069 q 503 1090 531 1090 q 465 1074 479 1090 q 449 1039 451 1057 z "},"O":{"ha":1072,"x_min":42,"x_max":1031,"o":"m 536 -21 q 340 16 431 -21 q 183 119 250 53 q 78 274 115 185 q 42 468 42 364 q 78 662 42 572 q 183 817 115 751 q 340 920 250 883 q 536 957 431 957 q 733 920 643 957 q 890 817 822 883 q 994 662 957 751 q 1031 468 1031 572 q 994 274 1031 364 q 890 119 957 185 q 733 16 822 53 q 536 -21 643 -21 m 536 222 q 627 241 585 222 q 701 293 669 260 q 749 372 732 326 q 767 468 767 417 q 749 565 767 521 q 701 643 732 610 q 627 695 669 676 q 536 714 585 714 q 445 695 488 714 q 372 643 403 676 q 323 565 340 610 q 306 468 306 521 q 323 372 306 417 q 372 293 340 326 q 445 241 403 260 q 536 222 488 222 z "},"Ó":{"ha":1072,"x_min":42,"x_max":1031,"o":"m 536 -21 q 340 16 431 -21 q 183 119 250 53 q 78 274 115 185 q 42 468 42 364 q 78 662 42 572 q 183 817 115 751 q 340 920 250 883 q 536 957 431 957 q 733 920 643 957 q 890 817 822 883 q 994 662 957 751 q 1031 468 1031 572 q 994 274 1031 364 q 890 119 957 185 q 733 16 822 53 q 536 -21 643 -21 m 536 222 q 627 241 585 222 q 701 293 669 260 q 749 372 732 326 q 767 468 767 417 q 749 565 767 521 q 701 643 732 610 q 627 695 669 676 q 536 714 585 714 q 445 695 488 714 q 372 643 403 676 q 323 565 340 610 q 306 468 306 521 q 323 372 306 417 q 372 293 340 326 q 445 241 403 260 q 536 222 488 222 m 647 1039 l 400 1039 l 576 1285 l 831 1285 l 647 1039 z "},"Ô":{"ha":1072,"x_min":42,"x_max":1031,"o":"m 536 -21 q 340 16 431 -21 q 183 119 250 53 q 78 274 115 185 q 42 468 42 364 q 78 662 42 572 q 183 817 115 751 q 340 920 250 883 q 536 957 431 957 q 733 920 643 957 q 890 817 822 883 q 994 662 957 751 q 1031 468 1031 572 q 994 274 1031 364 q 890 119 957 185 q 733 16 822 53 q 536 -21 643 -21 m 536 222 q 627 241 585 222 q 701 293 669 260 q 749 372 732 326 q 767 468 767 417 q 749 565 767 521 q 701 643 732 610 q 627 695 669 676 q 536 714 585 714 q 445 695 488 714 q 372 643 403 676 q 323 565 340 610 q 306 468 306 521 q 323 372 306 417 q 372 293 340 326 q 445 241 403 260 q 536 222 488 222 m 224 1039 l 331 1190 q 422 1267 367 1242 q 536 1293 476 1293 q 651 1267 596 1293 q 742 1190 706 1242 l 849 1039 l 608 1039 l 535 1143 q 537 1148 532 1147 q 538 1143 542 1149 l 464 1039 l 224 1039 z "},"Ö":{"ha":1072,"x_min":42,"x_max":1031,"o":"m 536 -21 q 340 16 431 -21 q 183 119 250 53 q 78 274 115 185 q 42 468 42 364 q 78 662 42 572 q 183 817 115 751 q 340 920 250 883 q 536 957 431 957 q 733 920 643 957 q 890 817 822 883 q 994 662 957 751 q 1031 468 1031 572 q 994 274 1031 364 q 890 119 957 185 q 733 16 822 53 q 536 -21 643 -21 m 536 222 q 627 241 585 222 q 701 293 669 260 q 749 372 732 326 q 767 468 767 417 q 749 565 767 521 q 701 643 732 610 q 627 695 669 676 q 536 714 585 714 q 445 695 488 714 q 372 643 403 676 q 323 565 340 610 q 306 468 306 521 q 323 372 306 417 q 372 293 340 326 q 445 241 403 260 q 536 222 488 222 m 354 1019 q 254 1061 296 1019 q 213 1161 213 1103 q 254 1261 213 1219 q 354 1303 296 1303 q 453 1261 411 1303 q 494 1161 494 1219 q 453 1061 494 1103 q 354 1019 411 1019 m 718 1019 q 619 1061 661 1019 q 578 1161 578 1103 q 619 1261 578 1219 q 718 1303 661 1303 q 818 1261 776 1303 q 860 1161 860 1219 q 818 1061 860 1103 q 718 1019 776 1019 z "},"Ò":{"ha":1072,"x_min":42,"x_max":1031,"o":"m 536 -21 q 340 16 431 -21 q 183 119 250 53 q 78 274 115 185 q 42 468 42 364 q 78 662 42 572 q 183 817 115 751 q 340 920 250 883 q 536 957 431 957 q 733 920 643 957 q 890 817 822 883 q 994 662 957 751 q 1031 468 1031 572 q 994 274 1031 364 q 890 119 957 185 q 733 16 822 53 q 536 -21 643 -21 m 536 222 q 627 241 585 222 q 701 293 669 260 q 749 372 732 326 q 767 468 767 417 q 749 565 767 521 q 701 643 732 610 q 627 695 669 676 q 536 714 585 714 q 445 695 488 714 q 372 643 403 676 q 323 565 340 610 q 306 468 306 521 q 323 372 306 417 q 372 293 340 326 q 445 241 403 260 q 536 222 488 222 m 499 1285 l 675 1039 l 428 1039 l 244 1285 l 499 1285 z "},"Ő":{"ha":1072,"x_min":42,"x_max":1031,"o":"m 536 -21 q 340 16 431 -21 q 183 119 250 53 q 78 274 115 185 q 42 468 42 364 q 78 662 42 572 q 183 817 115 751 q 340 920 250 883 q 536 957 431 957 q 733 920 643 957 q 890 817 822 883 q 994 662 957 751 q 1031 468 1031 572 q 994 274 1031 364 q 890 119 957 185 q 733 16 822 53 q 536 -21 643 -21 m 536 222 q 627 241 585 222 q 701 293 669 260 q 749 372 732 326 q 767 468 767 417 q 749 565 767 521 q 701 643 732 610 q 627 695 669 676 q 536 714 585 714 q 445 695 488 714 q 372 643 403 676 q 323 565 340 610 q 306 468 306 521 q 323 372 306 417 q 372 293 340 326 q 445 241 403 260 q 536 222 488 222 m 464 1039 l 231 1039 l 407 1285 l 647 1285 l 464 1039 m 825 1039 l 592 1039 l 768 1285 l 1008 1285 l 825 1039 z "},"Ō":{"ha":1072,"x_min":42,"x_max":1031,"o":"m 536 -21 q 340 16 431 -21 q 183 119 250 53 q 78 274 115 185 q 42 468 42 364 q 78 662 42 572 q 183 817 115 751 q 340 920 250 883 q 536 957 431 957 q 733 920 643 957 q 890 817 822 883 q 994 662 957 751 q 1031 468 1031 572 q 994 274 1031 364 q 890 119 957 185 q 733 16 822 53 q 536 -21 643 -21 m 536 222 q 627 241 585 222 q 701 293 669 260 q 749 372 732 326 q 767 468 767 417 q 749 565 767 521 q 701 643 732 610 q 627 695 669 676 q 536 714 585 714 q 445 695 488 714 q 372 643 403 676 q 323 565 340 610 q 306 468 306 521 q 323 372 306 417 q 372 293 340 326 q 445 241 403 260 q 536 222 488 222 m 803 1257 l 803 1069 l 268 1069 l 268 1257 l 803 1257 z "},"Ø":{"ha":1072,"x_min":42,"x_max":1031,"o":"m 729 839 l 801 938 l 1031 938 l 397 132 l 340 93 l 271 0 l 42 0 l 668 794 l 729 839 m 536 -21 q 340 16 431 -21 q 183 119 250 53 q 78 274 115 185 q 42 468 42 364 q 78 662 42 572 q 183 817 115 751 q 340 920 250 883 q 536 957 431 957 q 733 920 643 957 q 890 817 822 883 q 994 662 957 751 q 1031 468 1031 572 q 994 274 1031 364 q 890 119 957 185 q 733 16 822 53 q 536 -21 643 -21 m 536 222 q 627 241 585 222 q 701 293 669 260 q 749 372 732 326 q 767 468 767 417 q 749 565 767 521 q 701 643 732 610 q 627 695 669 676 q 536 714 585 714 q 445 695 488 714 q 372 643 403 676 q 323 565 340 610 q 306 468 306 521 q 323 372 306 417 q 372 293 340 326 q 445 241 403 260 q 536 222 488 222 z "},"Õ":{"ha":1072,"x_min":42,"x_max":1031,"o":"m 536 -21 q 340 16 431 -21 q 183 119 250 53 q 78 274 115 185 q 42 468 42 364 q 78 662 42 572 q 183 817 115 751 q 340 920 250 883 q 536 957 431 957 q 733 920 643 957 q 890 817 822 883 q 994 662 957 751 q 1031 468 1031 572 q 994 274 1031 364 q 890 119 957 185 q 733 16 822 53 q 536 -21 643 -21 m 536 222 q 627 241 585 222 q 701 293 669 260 q 749 372 732 326 q 767 468 767 417 q 749 565 767 521 q 701 643 732 610 q 627 695 669 676 q 536 714 585 714 q 445 695 488 714 q 372 643 403 676 q 323 565 340 610 q 306 468 306 521 q 323 372 306 417 q 372 293 340 326 q 445 241 403 260 q 536 222 488 222 m 417 1039 l 240 1086 q 264 1178 243 1135 q 322 1248 285 1221 q 407 1275 358 1275 q 485 1265 450 1275 q 549 1244 519 1254 q 603 1233 578 1233 q 641 1250 626 1233 q 657 1285 656 1267 l 833 1238 q 810 1146 831 1189 q 753 1076 789 1103 q 667 1049 717 1049 q 588 1059 622 1049 q 526 1080 554 1069 q 471 1090 499 1090 q 433 1074 447 1090 q 417 1039 419 1057 z "},"Œ":{"ha":1546,"x_min":42,"x_max":1476,"o":"m 536 -21 q 340 16 431 -21 q 183 119 250 53 q 78 274 115 185 q 42 468 42 364 q 78 662 42 572 q 183 817 115 751 q 340 920 250 883 q 536 957 431 957 q 733 920 643 957 q 890 817 822 883 q 994 662 957 751 q 1031 468 1031 572 q 994 274 1031 364 q 890 119 957 185 q 733 16 822 53 q 536 -21 643 -21 m 536 222 q 627 241 585 222 q 701 293 669 260 q 749 372 732 326 q 767 468 767 417 q 749 565 767 521 q 701 643 732 610 q 627 695 669 676 q 536 714 585 714 q 445 695 488 714 q 372 643 403 676 q 323 565 340 610 q 306 468 306 521 q 323 372 306 417 q 372 293 340 326 q 445 241 403 260 q 536 222 488 222 m 1476 0 l 989 0 q 819 58 871 0 q 767 215 767 117 l 767 722 q 819 879 767 821 q 989 938 871 938 l 1469 938 l 1469 708 l 1024 708 l 1024 229 l 1476 229 l 1476 0 m 1438 354 l 968 354 l 933 583 l 1438 583 l 1438 354 z "},"P":{"ha":946,"x_min":111,"x_max":911,"o":"m 368 1 l 111 0 l 111 938 l 471 938 q 708 895 610 938 q 859 775 807 853 q 911 588 911 697 q 861 395 911 475 q 716 272 811 315 q 485 229 621 229 l 311 229 l 346 465 l 478 465 q 574 479 536 465 q 629 521 611 493 q 647 588 647 549 q 628 650 647 625 q 571 688 608 675 q 478 701 533 701 l 368 701 l 368 1 z "},"Þ":{"ha":946,"x_min":111,"x_max":911,"o":"m 368 1014 l 368 1 l 111 0 l 111 1014 l 368 1014 m 346 643 l 340 879 l 471 879 q 708 837 610 879 q 859 717 807 794 q 911 529 911 639 q 861 337 911 417 q 716 214 811 257 q 485 171 621 171 l 311 171 l 346 407 l 478 407 q 574 421 536 407 q 629 463 611 435 q 647 529 647 490 q 628 592 647 567 q 571 630 608 617 q 478 643 533 643 l 346 643 z "},"Q":{"ha":1115,"x_min":42,"x_max":1108,"o":"m 1108 -21 l 529 -21 l 529 111 q 728 158 624 138 q 926 190 832 178 q 1081 201 1019 201 l 1108 201 l 1108 -21 m 536 -21 q 340 16 431 -21 q 183 119 250 53 q 78 274 115 185 q 42 468 42 364 q 78 662 42 572 q 183 817 115 751 q 340 920 250 883 q 536 957 431 957 q 733 920 643 957 q 890 817 822 883 q 994 662 957 751 q 1031 468 1031 572 q 994 274 1031 364 q 890 119 957 185 q 733 16 822 53 q 536 -21 643 -21 m 536 222 q 627 241 585 222 q 701 293 669 260 q 749 372 732 326 q 767 468 767 417 q 749 565 767 521 q 701 643 732 610 q 627 695 669 676 q 536 714 585 714 q 445 695 488 714 q 372 643 403 676 q 323 565 340 610 q 306 468 306 521 q 323 372 306 417 q 372 293 340 326 q 445 241 403 260 q 536 222 488 222 z "},"R":{"ha":988,"x_min":111,"x_max":932,"o":"m 365 0 l 111 0 l 111 938 l 504 938 q 704 903 615 938 q 844 799 793 868 q 896 626 896 731 q 862 487 896 549 q 767 389 828 425 q 625 353 707 353 l 556 401 q 687 382 639 401 q 767 318 735 363 q 836 197 799 274 l 932 0 l 653 0 l 565 176 q 531 228 550 208 q 483 256 511 247 q 414 264 456 264 l 346 264 l 346 492 l 504 492 q 571 505 542 492 q 616 542 600 518 q 632 600 632 567 q 616 658 632 636 q 572 691 600 681 q 507 701 543 701 l 368 701 l 365 0 z "},"Ŕ":{"ha":988,"x_min":111,"x_max":932,"o":"m 365 0 l 111 0 l 111 938 l 504 938 q 704 903 615 938 q 844 799 793 868 q 896 626 896 731 q 862 487 896 549 q 767 389 828 425 q 625 353 707 353 l 556 401 q 687 382 639 401 q 767 318 735 363 q 836 197 799 274 l 932 0 l 653 0 l 565 176 q 531 228 550 208 q 483 256 511 247 q 414 264 456 264 l 346 264 l 346 492 l 504 492 q 571 505 542 492 q 616 542 600 518 q 632 600 632 567 q 616 658 632 636 q 572 691 600 681 q 507 701 543 701 l 368 701 l 365 0 m 606 1039 l 358 1039 l 535 1285 l 789 1285 l 606 1039 z "},"Ř":{"ha":988,"x_min":111,"x_max":932,"o":"m 365 0 l 111 0 l 111 938 l 504 938 q 704 903 615 938 q 844 799 793 868 q 896 626 896 731 q 862 487 896 549 q 767 389 828 425 q 625 353 707 353 l 556 401 q 687 382 639 401 q 767 318 735 363 q 836 197 799 274 l 932 0 l 653 0 l 565 176 q 531 228 550 208 q 483 256 511 247 q 414 264 456 264 l 346 264 l 346 492 l 504 492 q 571 505 542 492 q 616 542 600 518 q 632 600 632 567 q 616 658 632 636 q 572 691 600 681 q 507 701 543 701 l 368 701 l 365 0 m 289 1133 l 182 1285 l 422 1285 l 496 1181 q 495 1176 500 1175 q 493 1181 490 1176 l 567 1285 l 807 1285 l 700 1133 q 609 1057 664 1082 q 494 1032 554 1032 q 380 1057 435 1032 q 289 1133 325 1082 z "},"Ŗ":{"ha":988,"x_min":111,"x_max":932,"o":"m 365 0 l 111 0 l 111 938 l 504 938 q 704 903 615 938 q 844 799 793 868 q 896 626 896 731 q 862 487 896 549 q 767 389 828 425 q 625 353 707 353 l 556 401 q 687 382 639 401 q 767 318 735 363 q 836 197 799 274 l 932 0 l 653 0 l 565 176 q 531 228 550 208 q 483 256 511 247 q 414 264 456 264 l 346 264 l 346 492 l 504 492 q 571 505 542 492 q 616 542 600 518 q 632 600 632 567 q 616 658 632 636 q 572 691 600 681 q 507 701 543 701 l 368 701 l 365 0 m 525 -454 l 390 -454 l 432 -203 l 615 -236 l 525 -454 m 494 -328 q 406 -291 443 -328 q 369 -203 369 -254 q 406 -115 369 -151 q 494 -78 443 -78 q 583 -115 546 -78 q 619 -203 619 -151 q 583 -291 619 -254 q 494 -328 546 -328 z "},"S":{"ha":861,"x_min":51,"x_max":808,"o":"m 432 -22 q 199 32 299 -22 q 51 190 100 86 l 265 297 q 326 234 285 254 q 432 214 367 214 q 493 221 467 214 q 535 242 519 228 q 551 279 551 257 q 534 321 551 307 q 485 342 517 335 q 411 356 454 350 q 299 380 358 364 q 185 428 239 396 q 99 516 132 461 q 65 654 65 571 q 113 809 65 740 q 242 918 160 878 q 428 958 324 958 q 649 904 551 958 q 794 746 747 850 l 581 639 q 522 698 561 674 q 417 722 482 722 q 365 716 386 722 q 333 697 344 710 q 322 664 322 683 q 342 622 322 638 q 395 597 361 606 q 475 581 429 588 q 585 556 528 572 q 694 508 643 540 q 776 421 744 475 q 808 282 808 367 q 758 127 808 196 q 622 18 707 58 q 432 -22 536 -22 z "},"Ś":{"ha":861,"x_min":51,"x_max":808,"o":"m 432 -22 q 199 32 299 -22 q 51 190 100 86 l 265 297 q 326 234 285 254 q 432 214 367 214 q 493 221 467 214 q 535 242 519 228 q 551 279 551 257 q 534 321 551 307 q 485 342 517 335 q 411 356 454 350 q 299 380 358 364 q 185 428 239 396 q 99 516 132 461 q 65 654 65 571 q 113 809 65 740 q 242 918 160 878 q 428 958 324 958 q 649 904 551 958 q 794 746 747 850 l 581 639 q 522 698 561 674 q 417 722 482 722 q 365 716 386 722 q 333 697 344 710 q 322 664 322 683 q 342 622 322 638 q 395 597 361 606 q 475 581 429 588 q 585 556 528 572 q 694 508 643 540 q 776 421 744 475 q 808 282 808 367 q 758 127 808 196 q 622 18 707 58 q 432 -22 536 -22 m 540 1039 l 293 1039 l 469 1285 l 724 1285 l 540 1039 z "},"Š":{"ha":861,"x_min":51,"x_max":808,"o":"m 432 -22 q 199 32 299 -22 q 51 190 100 86 l 265 297 q 326 234 285 254 q 432 214 367 214 q 493 221 467 214 q 535 242 519 228 q 551 279 551 257 q 534 321 551 307 q 485 342 517 335 q 411 356 454 350 q 299 380 358 364 q 185 428 239 396 q 99 516 132 461 q 65 654 65 571 q 113 809 65 740 q 242 918 160 878 q 428 958 324 958 q 649 904 551 958 q 794 746 747 850 l 581 639 q 522 698 561 674 q 417 722 482 722 q 365 716 386 722 q 333 697 344 710 q 322 664 322 683 q 342 622 322 638 q 395 597 361 606 q 475 581 429 588 q 585 556 528 572 q 694 508 643 540 q 776 421 744 475 q 808 282 808 367 q 758 127 808 196 q 622 18 707 58 q 432 -22 536 -22 m 224 1133 l 117 1285 l 357 1285 l 431 1181 q 430 1176 435 1175 q 428 1181 425 1176 l 501 1285 l 742 1285 l 635 1133 q 544 1057 599 1082 q 429 1032 489 1032 q 315 1057 369 1032 q 224 1133 260 1082 z "},"Ş":{"ha":861,"x_min":51,"x_max":808,"o":"m 432 -22 q 199 32 299 -22 q 51 190 100 86 l 265 297 q 326 234 285 254 q 432 214 367 214 q 493 221 467 214 q 535 242 519 228 q 551 279 551 257 q 534 321 551 307 q 485 342 517 335 q 411 356 454 350 q 299 380 358 364 q 185 428 239 396 q 99 516 132 461 q 65 654 65 571 q 113 809 65 740 q 242 918 160 878 q 428 958 324 958 q 649 904 551 958 q 794 746 747 850 l 581 639 q 522 698 561 674 q 417 722 482 722 q 365 716 386 722 q 333 697 344 710 q 322 664 322 683 q 342 622 322 638 q 395 597 361 606 q 475 581 429 588 q 585 556 528 572 q 694 508 643 540 q 776 421 744 475 q 808 282 808 367 q 758 127 808 196 q 622 18 707 58 q 432 -22 536 -22 m 540 0 l 513 -93 l 286 -93 l 321 0 l 540 0 m 360 -424 l 281 -260 q 370 -230 347 -250 q 393 -186 393 -210 q 367 -150 393 -160 q 299 -140 340 -140 l 268 -140 l 311 -25 l 382 -25 q 544 -69 481 -24 q 608 -201 608 -115 q 576 -310 608 -264 q 487 -385 543 -357 q 360 -424 431 -414 z "},"Ș":{"ha":861,"x_min":51,"x_max":808,"o":"m 432 -22 q 199 32 299 -22 q 51 190 100 86 l 265 297 q 326 234 285 254 q 432 214 367 214 q 493 221 467 214 q 535 242 519 228 q 551 279 551 257 q 534 321 551 307 q 485 342 517 335 q 411 356 454 350 q 299 380 358 364 q 185 428 239 396 q 99 516 132 461 q 65 654 65 571 q 113 809 65 740 q 242 918 160 878 q 428 958 324 958 q 649 904 551 958 q 794 746 747 850 l 581 639 q 522 698 561 674 q 417 722 482 722 q 365 716 386 722 q 333 697 344 710 q 322 664 322 683 q 342 622 322 638 q 395 597 361 606 q 475 581 429 588 q 585 556 528 572 q 694 508 643 540 q 776 421 744 475 q 808 282 808 367 q 758 127 808 196 q 622 18 707 58 q 432 -22 536 -22 m 460 -454 l 325 -454 l 367 -203 l 550 -236 l 460 -454 m 429 -328 q 341 -291 378 -328 q 304 -203 304 -254 q 341 -115 304 -151 q 429 -78 378 -78 q 517 -115 481 -78 q 554 -203 554 -151 q 517 -291 554 -254 q 429 -328 481 -328 z "},"ẞ":{"ha":1031,"x_min":63,"x_max":961,"o":"m 663 -21 q 488 8 565 -21 q 368 114 410 36 l 546 231 q 594 185 569 197 q 643 172 619 172 q 688 183 671 172 q 704 217 704 193 q 682 260 704 240 q 627 299 660 279 q 562 338 594 318 q 507 383 529 358 q 485 439 485 408 q 494 485 485 463 q 516 530 504 507 q 538 576 528 553 q 547 621 547 599 q 522 688 547 661 q 443 715 496 715 q 375 696 403 715 q 333 641 347 676 q 319 556 319 606 l 319 0 l 64 0 l 63 575 q 106 776 63 690 q 237 910 150 863 q 453 958 324 958 q 638 926 554 958 q 771 838 721 894 q 821 706 821 782 q 810 635 821 665 q 785 581 799 606 q 760 534 771 556 q 749 489 749 513 q 770 447 749 467 q 824 407 792 428 q 887 360 856 386 q 940 296 918 333 q 961 206 961 258 q 920 79 961 129 q 811 4 879 29 q 663 -21 743 -21 z "},"T":{"ha":829,"x_min":21,"x_max":808,"o":"m 286 938 l 543 938 l 543 0 l 286 0 l 286 938 m 808 938 l 808 701 l 21 701 l 21 938 l 808 938 z "},"Ŧ":{"ha":829,"x_min":21,"x_max":808,"o":"m 286 701 l 21 701 l 21 938 l 808 938 l 808 701 l 543 701 l 543 515 l 710 515 l 710 307 l 543 307 l 543 0 l 286 0 l 286 307 l 119 307 l 119 515 l 286 515 l 286 701 z "},"Ť":{"ha":829,"x_min":21,"x_max":808,"o":"m 286 938 l 543 938 l 543 0 l 286 0 l 286 938 m 808 938 l 808 701 l 21 701 l 21 938 l 808 938 m 210 1133 l 103 1285 l 343 1285 l 417 1181 q 416 1176 421 1175 q 414 1181 411 1176 l 488 1285 l 728 1285 l 621 1133 q 530 1057 585 1082 q 415 1032 475 1032 q 301 1057 356 1032 q 210 1133 246 1082 z "},"Ţ":{"ha":829,"x_min":21,"x_max":808,"o":"m 286 938 l 543 938 l 543 0 l 286 0 l 286 938 m 808 938 l 808 701 l 21 701 l 21 938 l 808 938 m 526 0 l 499 -93 l 272 -93 l 307 0 l 526 0 m 346 -424 l 267 -260 q 356 -230 333 -250 q 379 -186 379 -210 q 353 -150 379 -160 q 285 -140 326 -140 l 254 -140 l 297 -25 l 368 -25 q 531 -69 467 -24 q 594 -201 594 -115 q 562 -310 594 -264 q 473 -385 529 -357 q 346 -424 417 -414 z "},"Ț":{"ha":829,"x_min":21,"x_max":808,"o":"m 286 938 l 543 938 l 543 0 l 286 0 l 286 938 m 808 938 l 808 701 l 21 701 l 21 938 l 808 938 m 446 -454 l 311 -454 l 353 -203 l 536 -236 l 446 -454 m 415 -328 q 327 -291 364 -328 q 290 -203 290 -254 q 327 -115 290 -151 q 415 -78 364 -78 q 503 -115 467 -78 q 540 -203 540 -151 q 503 -291 540 -254 q 415 -328 467 -328 z "},"U":{"ha":1035,"x_min":90,"x_max":944,"o":"m 517 -17 q 193 99 296 -17 q 90 424 90 215 l 90 938 l 347 938 l 347 431 q 390 274 347 322 q 517 226 432 226 q 645 274 603 226 q 688 431 688 322 l 688 938 l 944 938 l 944 424 q 840 99 944 215 q 517 -17 736 -17 z "},"Ú":{"ha":1035,"x_min":90,"x_max":944,"o":"m 517 -17 q 193 99 296 -17 q 90 424 90 215 l 90 938 l 347 938 l 347 431 q 390 274 347 322 q 517 226 432 226 q 645 274 603 226 q 688 431 688 322 l 688 938 l 944 938 l 944 424 q 840 99 944 215 q 517 -17 736 -17 m 629 1039 l 382 1039 l 558 1285 l 813 1285 l 629 1039 z "},"Û":{"ha":1035,"x_min":90,"x_max":944,"o":"m 517 -17 q 193 99 296 -17 q 90 424 90 215 l 90 938 l 347 938 l 347 431 q 390 274 347 322 q 517 226 432 226 q 645 274 603 226 q 688 431 688 322 l 688 938 l 944 938 l 944 424 q 840 99 944 215 q 517 -17 736 -17 m 206 1039 l 313 1190 q 403 1267 349 1242 q 518 1293 458 1293 q 633 1267 578 1293 q 724 1190 688 1242 l 831 1039 l 590 1039 l 517 1143 q 519 1148 514 1147 q 519 1143 524 1149 l 446 1039 l 206 1039 z "},"Ü":{"ha":1035,"x_min":90,"x_max":944,"o":"m 517 -17 q 193 99 296 -17 q 90 424 90 215 l 90 938 l 347 938 l 347 431 q 390 274 347 322 q 517 226 432 226 q 645 274 603 226 q 688 431 688 322 l 688 938 l 944 938 l 944 424 q 840 99 944 215 q 517 -17 736 -17 m 336 1019 q 236 1061 278 1019 q 194 1161 194 1103 q 236 1261 194 1219 q 336 1303 278 1303 q 435 1261 393 1303 q 476 1161 476 1219 q 435 1061 476 1103 q 336 1019 393 1019 m 700 1019 q 601 1061 643 1019 q 560 1161 560 1103 q 601 1261 560 1219 q 700 1303 643 1303 q 800 1261 758 1303 q 842 1161 842 1219 q 800 1061 842 1103 q 700 1019 758 1019 z "},"Ù":{"ha":1035,"x_min":90,"x_max":944,"o":"m 517 -17 q 193 99 296 -17 q 90 424 90 215 l 90 938 l 347 938 l 347 431 q 390 274 347 322 q 517 226 432 226 q 645 274 603 226 q 688 431 688 322 l 688 938 l 944 938 l 944 424 q 840 99 944 215 q 517 -17 736 -17 m 481 1285 l 657 1039 l 410 1039 l 226 1285 l 481 1285 z "},"Ű":{"ha":1035,"x_min":90,"x_max":990,"o":"m 517 -17 q 193 99 296 -17 q 90 424 90 215 l 90 938 l 347 938 l 347 431 q 390 274 347 322 q 517 226 432 226 q 645 274 603 226 q 688 431 688 322 l 688 938 l 944 938 l 944 424 q 840 99 944 215 q 517 -17 736 -17 m 446 1039 l 213 1039 l 389 1285 l 629 1285 l 446 1039 m 807 1039 l 574 1039 l 750 1285 l 990 1285 l 807 1039 z "},"Ū":{"ha":1035,"x_min":90,"x_max":944,"o":"m 517 -17 q 193 99 296 -17 q 90 424 90 215 l 90 938 l 347 938 l 347 431 q 390 274 347 322 q 517 226 432 226 q 645 274 603 226 q 688 431 688 322 l 688 938 l 944 938 l 944 424 q 840 99 944 215 q 517 -17 736 -17 m 785 1257 l 785 1069 l 250 1069 l 250 1257 l 785 1257 z "},"Ų":{"ha":1035,"x_min":90,"x_max":944,"o":"m 517 -17 q 193 99 296 -17 q 90 424 90 215 l 90 938 l 347 938 l 347 431 q 390 274 347 322 q 517 226 432 226 q 645 274 603 226 q 688 431 688 322 l 688 938 l 944 938 l 944 424 q 840 99 944 215 q 517 -17 736 -17 m 735 -237 l 650 -429 q 501 -391 567 -422 q 397 -309 435 -360 q 360 -193 360 -258 q 383 -88 360 -135 q 450 0 407 -42 l 663 0 q 600 -67 619 -36 q 581 -131 581 -99 q 626 -206 581 -182 q 735 -237 671 -231 z "},"Ů":{"ha":1035,"x_min":90,"x_max":944,"o":"m 517 -17 q 193 99 296 -17 q 90 424 90 215 l 90 938 l 347 938 l 347 431 q 390 274 347 322 q 517 226 432 226 q 645 274 603 226 q 688 431 688 322 l 688 938 l 944 938 l 944 424 q 840 99 944 215 q 517 -17 736 -17 m 518 963 q 419 990 464 963 q 347 1062 374 1017 q 319 1161 319 1107 q 347 1260 319 1215 q 419 1333 374 1306 q 518 1360 464 1360 q 617 1333 572 1360 q 690 1260 663 1306 q 717 1161 717 1215 q 690 1062 717 1107 q 617 990 663 1017 q 518 963 572 963 m 518 1106 q 558 1122 542 1106 q 574 1161 574 1139 q 558 1201 574 1185 q 518 1217 542 1217 q 479 1201 496 1217 q 463 1161 463 1185 q 479 1122 463 1139 q 518 1106 496 1106 z "},"V":{"ha":956,"x_min":7,"x_max":949,"o":"m 478 -22 q 328 26 385 -22 q 243 169 272 74 l 7 938 l 269 938 l 474 246 q 476 242 475 243 q 479 240 478 240 q 483 242 482 240 q 485 246 483 243 l 686 938 l 949 938 l 713 169 q 628 26 683 74 q 478 -22 572 -22 z "},"W":{"ha":1386,"x_min":14,"x_max":1372,"o":"m 181 153 l 14 938 l 271 938 l 404 232 q 400 243 403 239 q 392 247 397 247 q 383 243 386 247 q 378 232 381 239 l 497 763 q 569 912 521 865 q 693 958 618 958 q 817 912 768 958 q 889 763 867 865 l 1008 232 q 1003 242 1007 239 q 994 246 1000 246 q 986 242 989 246 q 982 232 983 239 l 1115 938 l 1372 938 l 1206 153 q 1135 23 1188 68 q 1006 -22 1082 -22 q 882 22 938 -22 q 808 142 826 65 l 679 710 q 685 701 682 704 q 693 697 688 697 q 702 700 699 697 q 707 710 706 703 l 578 142 q 505 22 560 65 q 381 -22 450 -22 q 251 23 304 -22 q 181 153 199 68 z "},"Ẃ":{"ha":1386,"x_min":14,"x_max":1372,"o":"m 181 153 l 14 938 l 271 938 l 404 232 q 400 243 403 239 q 392 247 397 247 q 383 243 386 247 q 378 232 381 239 l 497 763 q 569 912 521 865 q 693 958 618 958 q 817 912 768 958 q 889 763 867 865 l 1008 232 q 1003 242 1007 239 q 994 246 1000 246 q 986 242 989 246 q 982 232 983 239 l 1115 938 l 1372 938 l 1206 153 q 1135 23 1188 68 q 1006 -22 1082 -22 q 882 22 938 -22 q 808 142 826 65 l 679 710 q 685 701 682 704 q 693 697 688 697 q 702 700 699 697 q 707 710 706 703 l 578 142 q 505 22 560 65 q 381 -22 450 -22 q 251 23 304 -22 q 181 153 199 68 m 804 1039 l 557 1039 l 733 1285 l 988 1285 l 804 1039 z "},"Ŵ":{"ha":1386,"x_min":14,"x_max":1372,"o":"m 181 153 l 14 938 l 271 938 l 404 232 q 400 243 403 239 q 392 247 397 247 q 383 243 386 247 q 378 232 381 239 l 497 763 q 569 912 521 865 q 693 958 618 958 q 817 912 768 958 q 889 763 867 865 l 1008 232 q 1003 242 1007 239 q 994 246 1000 246 q 986 242 989 246 q 982 232 983 239 l 1115 938 l 1372 938 l 1206 153 q 1135 23 1188 68 q 1006 -22 1082 -22 q 882 22 938 -22 q 808 142 826 65 l 679 710 q 685 701 682 704 q 693 697 688 697 q 702 700 699 697 q 707 710 706 703 l 578 142 q 505 22 560 65 q 381 -22 450 -22 q 251 23 304 -22 q 181 153 199 68 m 381 1039 l 488 1190 q 578 1267 524 1242 q 693 1293 633 1293 q 808 1267 753 1293 q 899 1190 863 1242 l 1006 1039 l 765 1039 l 692 1143 q 694 1148 689 1147 q 694 1143 699 1149 l 621 1039 l 381 1039 z "},"Ẅ":{"ha":1386,"x_min":14,"x_max":1372,"o":"m 181 153 l 14 938 l 271 938 l 404 232 q 400 243 403 239 q 392 247 397 247 q 383 243 386 247 q 378 232 381 239 l 497 763 q 569 912 521 865 q 693 958 618 958 q 817 912 768 958 q 889 763 867 865 l 1008 232 q 1003 242 1007 239 q 994 246 1000 246 q 986 242 989 246 q 982 232 983 239 l 1115 938 l 1372 938 l 1206 153 q 1135 23 1188 68 q 1006 -22 1082 -22 q 882 22 938 -22 q 808 142 826 65 l 679 710 q 685 701 682 704 q 693 697 688 697 q 702 700 699 697 q 707 710 706 703 l 578 142 q 505 22 560 65 q 381 -22 450 -22 q 251 23 304 -22 q 181 153 199 68 m 511 1019 q 411 1061 453 1019 q 369 1161 369 1103 q 411 1261 369 1219 q 511 1303 453 1303 q 610 1261 568 1303 q 651 1161 651 1219 q 610 1061 651 1103 q 511 1019 568 1019 m 875 1019 q 776 1061 818 1019 q 735 1161 735 1103 q 776 1261 735 1219 q 875 1303 818 1303 q 975 1261 933 1303 q 1017 1161 1017 1219 q 975 1061 1017 1103 q 875 1019 933 1019 z "},"Ẁ":{"ha":1386,"x_min":14,"x_max":1372,"o":"m 181 153 l 14 938 l 271 938 l 404 232 q 400 243 403 239 q 392 247 397 247 q 383 243 386 247 q 378 232 381 239 l 497 763 q 569 912 521 865 q 693 958 618 958 q 817 912 768 958 q 889 763 867 865 l 1008 232 q 1003 242 1007 239 q 994 246 1000 246 q 986 242 989 246 q 982 232 983 239 l 1115 938 l 1372 938 l 1206 153 q 1135 23 1188 68 q 1006 -22 1082 -22 q 882 22 938 -22 q 808 142 826 65 l 679 710 q 685 701 682 704 q 693 697 688 697 q 702 700 699 697 q 707 710 706 703 l 578 142 q 505 22 560 65 q 381 -22 450 -22 q 251 23 304 -22 q 181 153 199 68 m 656 1285 l 832 1039 l 585 1039 l 401 1285 l 656 1285 z "},"X":{"ha":1068,"x_min":7,"x_max":1061,"o":"m 1061 0 l 754 0 l 611 256 q 567 361 582 307 q 553 467 553 415 q 611 681 553 575 l 753 938 l 1053 938 l 853 600 q 817 530 828 557 q 806 478 806 503 q 816 426 806 454 q 853 354 826 399 l 1061 0 m 314 0 l 7 0 l 215 354 q 252 426 242 399 q 263 478 263 454 q 251 530 263 503 q 215 600 240 557 l 15 938 l 315 938 l 457 681 q 515 467 515 575 q 501 361 515 415 q 457 256 486 307 l 314 0 m 674 585 l 674 349 l 421 349 l 421 585 l 674 585 z "},"Y":{"ha":928,"x_min":7,"x_max":921,"o":"m 594 0 l 338 0 l 338 410 l 594 410 l 594 0 m 235 404 l 7 938 l 283 938 l 468 475 q 469 467 471 469 q 465 465 468 465 q 462 468 463 465 q 463 475 461 471 l 644 938 l 921 938 l 693 404 q 596 282 658 324 q 464 240 533 240 q 333 282 396 240 q 235 404 271 324 z "},"Ý":{"ha":928,"x_min":7,"x_max":921,"o":"m 594 0 l 338 0 l 338 410 l 594 410 l 594 0 m 235 404 l 7 938 l 283 938 l 468 475 q 469 467 471 469 q 465 465 468 465 q 462 468 463 465 q 463 475 461 471 l 644 938 l 921 938 l 693 404 q 596 282 658 324 q 464 240 533 240 q 333 282 396 240 q 235 404 271 324 m 575 1039 l 328 1039 l 504 1285 l 758 1285 l 575 1039 z "},"Ŷ":{"ha":928,"x_min":7,"x_max":921,"o":"m 594 0 l 338 0 l 338 410 l 594 410 l 594 0 m 235 404 l 7 938 l 283 938 l 468 475 q 469 467 471 469 q 465 465 468 465 q 462 468 463 465 q 463 475 461 471 l 644 938 l 921 938 l 693 404 q 596 282 658 324 q 464 240 533 240 q 333 282 396 240 q 235 404 271 324 m 151 1039 l 258 1190 q 349 1267 294 1242 q 464 1293 404 1293 q 578 1267 524 1293 q 669 1190 633 1242 l 776 1039 l 536 1039 l 463 1143 q 465 1148 460 1147 q 465 1143 469 1149 l 392 1039 l 151 1039 z "},"Ÿ":{"ha":928,"x_min":7,"x_max":921,"o":"m 594 0 l 338 0 l 338 410 l 594 410 l 594 0 m 235 404 l 7 938 l 283 938 l 468 475 q 469 467 471 469 q 465 465 468 465 q 462 468 463 465 q 463 475 461 471 l 644 938 l 921 938 l 693 404 q 596 282 658 324 q 464 240 533 240 q 333 282 396 240 q 235 404 271 324 m 282 1019 q 182 1061 224 1019 q 140 1161 140 1103 q 182 1261 140 1219 q 282 1303 224 1303 q 381 1261 339 1303 q 422 1161 422 1219 q 381 1061 422 1103 q 282 1019 339 1019 m 646 1019 q 547 1061 589 1019 q 506 1161 506 1103 q 547 1261 506 1219 q 646 1303 589 1303 q 746 1261 704 1303 q 788 1161 788 1219 q 746 1061 788 1103 q 646 1019 704 1019 z "},"Ỳ":{"ha":928,"x_min":7,"x_max":921,"o":"m 594 0 l 338 0 l 338 410 l 594 410 l 594 0 m 235 404 l 7 938 l 283 938 l 468 475 q 469 467 471 469 q 465 465 468 465 q 462 468 463 465 q 463 475 461 471 l 644 938 l 921 938 l 693 404 q 596 282 658 324 q 464 240 533 240 q 333 282 396 240 q 235 404 271 324 m 426 1285 l 603 1039 l 356 1039 l 172 1285 l 426 1285 z "},"Z":{"ha":832,"x_min":56,"x_max":776,"o":"m 757 236 l 757 0 l 267 0 q 147 28 193 0 q 78 101 100 57 q 56 196 56 146 q 72 283 56 240 q 121 358 89 326 l 476 718 q 472 713 474 715 q 469 707 469 710 q 473 703 469 706 q 482 701 476 701 l 79 701 l 79 938 l 558 938 q 678 910 629 938 q 751 840 726 883 q 776 746 776 797 q 758 660 776 704 q 703 579 740 617 l 351 222 q 354 227 354 225 q 354 231 354 229 q 352 235 354 233 q 344 236 350 236 l 757 236 z "},"Ź":{"ha":832,"x_min":56,"x_max":776,"o":"m 757 236 l 757 0 l 267 0 q 147 28 193 0 q 78 101 100 57 q 56 196 56 146 q 72 283 56 240 q 121 358 89 326 l 476 718 q 472 713 474 715 q 469 707 469 710 q 473 703 469 706 q 482 701 476 701 l 79 701 l 79 938 l 558 938 q 678 910 629 938 q 751 840 726 883 q 776 746 776 797 q 758 660 776 704 q 703 579 740 617 l 351 222 q 354 227 354 225 q 354 231 354 229 q 352 235 354 233 q 344 236 350 236 l 757 236 m 528 1039 l 281 1039 l 457 1285 l 711 1285 l 528 1039 z "},"Ž":{"ha":832,"x_min":56,"x_max":776,"o":"m 757 236 l 757 0 l 267 0 q 147 28 193 0 q 78 101 100 57 q 56 196 56 146 q 72 283 56 240 q 121 358 89 326 l 476 718 q 472 713 474 715 q 469 707 469 710 q 473 703 469 706 q 482 701 476 701 l 79 701 l 79 938 l 558 938 q 678 910 629 938 q 751 840 726 883 q 776 746 776 797 q 758 660 776 704 q 703 579 740 617 l 351 222 q 354 227 354 225 q 354 231 354 229 q 352 235 354 233 q 344 236 350 236 l 757 236 m 211 1133 l 104 1285 l 344 1285 l 418 1181 q 417 1176 422 1175 q 415 1181 413 1176 l 489 1285 l 729 1285 l 622 1133 q 531 1057 586 1082 q 417 1032 476 1032 q 302 1057 357 1032 q 211 1133 247 1082 z "},"Ż":{"ha":832,"x_min":56,"x_max":776,"o":"m 757 236 l 757 0 l 267 0 q 147 28 193 0 q 78 101 100 57 q 56 196 56 146 q 72 283 56 240 q 121 358 89 326 l 476 718 q 472 713 474 715 q 469 707 469 710 q 473 703 469 706 q 482 701 476 701 l 79 701 l 79 938 l 558 938 q 678 910 629 938 q 751 840 726 883 q 776 746 776 797 q 758 660 776 704 q 703 579 740 617 l 351 222 q 354 227 354 225 q 354 231 354 229 q 352 235 354 233 q 344 236 350 236 l 757 236 m 417 1011 q 342 1031 376 1011 q 287 1086 307 1051 q 267 1161 267 1121 q 287 1237 267 1203 q 342 1291 307 1271 q 417 1311 376 1311 q 492 1291 458 1311 q 547 1237 526 1271 q 567 1161 567 1203 q 547 1086 567 1121 q 492 1031 526 1051 q 417 1011 458 1011 z "},"a":{"ha":875,"x_min":42,"x_max":806,"o":"m 382 -21 q 204 29 281 -21 q 85 163 128 79 q 42 349 42 247 q 92 533 42 450 q 229 667 143 617 q 424 717 315 717 q 621 669 535 717 q 756 538 707 621 q 806 349 806 456 l 806 0 l 569 0 l 569 243 l 639 243 q 608 107 639 167 q 521 13 578 47 q 382 -21 464 -21 m 424 214 q 493 232 464 214 q 539 281 522 250 q 556 347 556 311 q 539 415 556 385 q 493 464 522 446 q 424 482 464 482 q 355 464 385 482 q 308 415 325 446 q 292 347 292 385 q 308 281 292 311 q 355 232 325 250 q 424 214 385 214 z "},"á":{"ha":875,"x_min":42,"x_max":806,"o":"m 382 -21 q 204 29 281 -21 q 85 163 128 79 q 42 349 42 247 q 92 533 42 450 q 229 667 143 617 q 424 717 315 717 q 621 669 535 717 q 756 538 707 621 q 806 349 806 456 l 806 0 l 569 0 l 569 243 l 639 243 q 608 107 639 167 q 521 13 578 47 q 382 -21 464 -21 m 424 214 q 493 232 464 214 q 539 281 522 250 q 556 347 556 311 q 539 415 556 385 q 493 464 522 446 q 424 482 464 482 q 355 464 385 482 q 308 415 325 446 q 292 347 292 385 q 308 281 292 311 q 355 232 325 250 q 424 214 385 214 m 542 796 l 294 796 l 471 1042 l 725 1042 l 542 796 z "},"ă":{"ha":875,"x_min":42,"x_max":806,"o":"m 382 -21 q 204 29 281 -21 q 85 163 128 79 q 42 349 42 247 q 92 533 42 450 q 229 667 143 617 q 424 717 315 717 q 621 669 535 717 q 756 538 707 621 q 806 349 806 456 l 806 0 l 569 0 l 569 243 l 639 243 q 608 107 639 167 q 521 13 578 47 q 382 -21 464 -21 m 424 214 q 493 232 464 214 q 539 281 522 250 q 556 347 556 311 q 539 415 556 385 q 493 464 522 446 q 424 482 464 482 q 355 464 385 482 q 308 415 325 446 q 292 347 292 385 q 308 281 292 311 q 355 232 325 250 q 424 214 385 214 m 431 796 q 222 858 290 796 q 153 1028 153 919 l 153 1042 l 361 1042 l 361 1028 q 376 984 361 1006 q 431 963 390 963 q 485 985 471 963 q 500 1028 500 1007 l 500 1042 l 708 1042 l 708 1028 q 640 858 708 919 q 431 796 571 796 z "},"â":{"ha":875,"x_min":42,"x_max":806,"o":"m 382 -21 q 204 29 281 -21 q 85 163 128 79 q 42 349 42 247 q 92 533 42 450 q 229 667 143 617 q 424 717 315 717 q 621 669 535 717 q 756 538 707 621 q 806 349 806 456 l 806 0 l 569 0 l 569 243 l 639 243 q 608 107 639 167 q 521 13 578 47 q 382 -21 464 -21 m 424 214 q 493 232 464 214 q 539 281 522 250 q 556 347 556 311 q 539 415 556 385 q 493 464 522 446 q 424 482 464 482 q 355 464 385 482 q 308 415 325 446 q 292 347 292 385 q 308 281 292 311 q 355 232 325 250 q 424 214 385 214 m 118 796 l 225 947 q 316 1024 261 999 q 431 1050 371 1050 q 545 1024 490 1050 q 636 947 600 999 l 743 796 l 503 796 l 429 900 q 431 905 426 904 q 432 900 436 906 l 358 796 l 118 796 z "},"ä":{"ha":875,"x_min":42,"x_max":806,"o":"m 382 -21 q 204 29 281 -21 q 85 163 128 79 q 42 349 42 247 q 92 533 42 450 q 229 667 143 617 q 424 717 315 717 q 621 669 535 717 q 756 538 707 621 q 806 349 806 456 l 806 0 l 569 0 l 569 243 l 639 243 q 608 107 639 167 q 521 13 578 47 q 382 -21 464 -21 m 424 214 q 493 232 464 214 q 539 281 522 250 q 556 347 556 311 q 539 415 556 385 q 493 464 522 446 q 424 482 464 482 q 355 464 385 482 q 308 415 325 446 q 292 347 292 385 q 308 281 292 311 q 355 232 325 250 q 424 214 385 214 m 249 776 q 149 818 190 776 q 107 918 107 860 q 149 1018 107 976 q 249 1060 190 1060 q 347 1018 306 1060 q 389 918 389 976 q 347 818 389 860 q 249 776 306 776 m 613 776 q 514 818 556 776 q 472 918 472 860 q 514 1018 472 976 q 613 1060 556 1060 q 713 1018 671 1060 q 754 918 754 976 q 713 818 754 860 q 613 776 671 776 z "},"à":{"ha":875,"x_min":42,"x_max":806,"o":"m 382 -21 q 204 29 281 -21 q 85 163 128 79 q 42 349 42 247 q 92 533 42 450 q 229 667 143 617 q 424 717 315 717 q 621 669 535 717 q 756 538 707 621 q 806 349 806 456 l 806 0 l 569 0 l 569 243 l 639 243 q 608 107 639 167 q 521 13 578 47 q 382 -21 464 -21 m 424 214 q 493 232 464 214 q 539 281 522 250 q 556 347 556 311 q 539 415 556 385 q 493 464 522 446 q 424 482 464 482 q 355 464 385 482 q 308 415 325 446 q 292 347 292 385 q 308 281 292 311 q 355 232 325 250 q 424 214 385 214 m 393 1042 l 569 796 l 322 796 l 139 1042 l 393 1042 z "},"ā":{"ha":875,"x_min":42,"x_max":806,"o":"m 382 -21 q 204 29 281 -21 q 85 163 128 79 q 42 349 42 247 q 92 533 42 450 q 229 667 143 617 q 424 717 315 717 q 621 669 535 717 q 756 538 707 621 q 806 349 806 456 l 806 0 l 569 0 l 569 243 l 639 243 q 608 107 639 167 q 521 13 578 47 q 382 -21 464 -21 m 424 214 q 493 232 464 214 q 539 281 522 250 q 556 347 556 311 q 539 415 556 385 q 493 464 522 446 q 424 482 464 482 q 355 464 385 482 q 308 415 325 446 q 292 347 292 385 q 308 281 292 311 q 355 232 325 250 q 424 214 385 214 m 697 1014 l 697 826 l 163 826 l 163 1014 l 697 1014 z "},"ą":{"ha":875,"x_min":42,"x_max":879,"o":"m 382 -21 q 204 29 281 -21 q 85 163 128 79 q 42 349 42 247 q 92 533 42 450 q 229 667 143 617 q 424 717 315 717 q 621 669 535 717 q 756 538 707 621 q 806 349 806 456 l 806 0 l 569 0 l 569 243 l 639 243 q 608 107 639 167 q 521 13 578 47 q 382 -21 464 -21 m 424 214 q 493 232 464 214 q 539 281 522 250 q 556 347 556 311 q 539 415 556 385 q 493 464 522 446 q 424 482 464 482 q 355 464 385 482 q 308 415 325 446 q 292 347 292 385 q 308 281 292 311 q 355 232 325 250 q 424 214 385 214 m 879 -237 l 794 -429 q 644 -391 710 -422 q 542 -309 579 -360 q 504 -193 504 -258 q 528 -88 504 -135 q 594 0 551 -42 l 807 0 q 744 -67 764 -36 q 725 -131 725 -99 q 770 -206 725 -182 q 879 -237 815 -231 z "},"å":{"ha":875,"x_min":42,"x_max":806,"o":"m 382 -21 q 204 29 281 -21 q 85 163 128 79 q 42 349 42 247 q 92 533 42 450 q 229 667 143 617 q 424 717 315 717 q 621 669 535 717 q 756 538 707 621 q 806 349 806 456 l 806 0 l 569 0 l 569 243 l 639 243 q 608 107 639 167 q 521 13 578 47 q 382 -21 464 -21 m 424 214 q 493 232 464 214 q 539 281 522 250 q 556 347 556 311 q 539 415 556 385 q 493 464 522 446 q 424 482 464 482 q 355 464 385 482 q 308 415 325 446 q 292 347 292 385 q 308 281 292 311 q 355 232 325 250 q 424 214 385 214 m 431 719 q 331 747 376 719 q 259 819 286 774 q 232 918 232 864 q 259 1017 232 972 q 331 1090 286 1063 q 431 1117 376 1117 q 530 1090 485 1117 q 602 1017 575 1063 q 629 918 629 972 q 602 819 629 864 q 530 747 575 774 q 431 719 485 719 m 431 863 q 470 879 454 863 q 486 918 486 896 q 470 958 486 942 q 431 974 454 974 q 392 958 408 974 q 375 918 375 942 q 392 879 375 896 q 431 863 408 863 z "},"ã":{"ha":875,"x_min":42,"x_max":806,"o":"m 382 -21 q 204 29 281 -21 q 85 163 128 79 q 42 349 42 247 q 92 533 42 450 q 229 667 143 617 q 424 717 315 717 q 621 669 535 717 q 756 538 707 621 q 806 349 806 456 l 806 0 l 569 0 l 569 243 l 639 243 q 608 107 639 167 q 521 13 578 47 q 382 -21 464 -21 m 424 214 q 493 232 464 214 q 539 281 522 250 q 556 347 556 311 q 539 415 556 385 q 493 464 522 446 q 424 482 464 482 q 355 464 385 482 q 308 415 325 446 q 292 347 292 385 q 308 281 292 311 q 355 232 325 250 q 424 214 385 214 m 311 796 l 135 843 q 158 935 138 892 q 216 1005 179 978 q 301 1032 253 1032 q 379 1022 344 1032 q 443 1001 414 1011 q 497 990 472 990 q 535 1007 521 990 q 551 1042 550 1024 l 728 994 q 704 903 725 946 q 647 833 683 860 q 561 806 611 806 q 483 816 517 806 q 421 837 449 826 q 365 847 393 847 q 328 831 342 847 q 311 796 314 814 z "},"æ":{"ha":1446,"x_min":42,"x_max":1390,"o":"m 382 -21 q 204 29 281 -21 q 85 163 128 79 q 42 349 42 247 q 92 533 42 450 q 229 667 143 617 q 424 717 315 717 q 614 669 535 717 q 735 538 693 621 q 778 349 778 456 l 778 0 l 569 0 l 569 243 l 639 243 q 608 107 639 167 q 521 13 578 47 q 382 -21 464 -21 m 424 214 q 493 232 464 214 q 539 281 522 250 q 556 347 556 311 q 539 415 556 385 q 493 464 522 446 q 424 482 464 482 q 355 464 385 482 q 308 415 325 446 q 292 347 292 385 q 308 281 292 311 q 355 232 325 250 q 424 214 385 214 m 1056 -19 q 856 27 944 -19 q 717 158 768 74 q 667 356 667 242 q 713 539 667 456 q 843 672 760 622 q 1036 722 926 722 q 1229 672 1150 722 q 1349 541 1308 622 q 1390 367 1390 460 l 1390 304 l 868 304 l 903 349 q 922 266 903 301 q 974 212 940 231 q 1053 193 1007 193 q 1141 218 1103 193 q 1197 283 1179 243 l 1389 188 q 1258 35 1344 90 q 1056 -19 1172 -19 m 918 433 l 1142 433 q 1122 470 1136 453 q 1085 498 1107 488 q 1033 508 1063 508 q 981 498 1004 508 q 942 471 957 488 q 918 433 926 454 z "},"b":{"ha":875,"x_min":69,"x_max":833,"o":"m 451 -21 q 254 26 340 -21 q 119 157 168 74 q 69 346 69 240 l 69 1014 l 319 1014 l 319 507 l 203 507 q 240 609 203 561 q 338 686 278 657 q 465 715 399 715 q 659 669 576 715 q 788 540 742 624 q 833 346 833 457 q 783 163 833 246 q 647 29 733 79 q 451 -21 560 -21 m 451 214 q 521 232 492 214 q 567 281 550 250 q 583 347 583 311 q 567 414 583 383 q 521 463 550 444 q 451 481 492 481 q 383 463 413 481 q 336 414 353 444 q 319 347 319 383 q 336 281 319 311 q 383 232 353 250 q 451 214 413 214 z "},"c":{"ha":782,"x_min":42,"x_max":754,"o":"m 424 -19 q 273 8 343 -21 q 151 88 203 38 q 71 206 100 139 q 42 349 42 274 q 71 491 42 424 q 151 609 100 558 q 273 688 203 660 q 424 715 343 717 q 617 665 528 714 q 754 508 707 615 l 547 397 q 499 457 531 433 q 424 481 467 481 q 355 463 385 481 q 308 416 325 446 q 292 349 292 386 q 308 282 292 313 q 355 233 325 251 q 424 215 385 215 q 499 240 467 215 q 547 299 531 264 l 754 188 q 617 31 707 81 q 424 -19 528 -18 z "},"ć":{"ha":782,"x_min":42,"x_max":754,"o":"m 424 -19 q 273 8 343 -21 q 151 88 203 38 q 71 206 100 139 q 42 349 42 274 q 71 491 42 424 q 151 609 100 558 q 273 688 203 660 q 424 715 343 717 q 617 665 528 714 q 754 508 707 615 l 547 397 q 499 457 531 433 q 424 481 467 481 q 355 463 385 481 q 308 416 325 446 q 292 349 292 386 q 308 282 292 313 q 355 233 325 251 q 424 215 385 215 q 499 240 467 215 q 547 299 531 264 l 754 188 q 617 31 707 81 q 424 -19 528 -18 m 503 796 l 256 796 l 432 1042 l 686 1042 l 503 796 z "},"č":{"ha":782,"x_min":42,"x_max":754,"o":"m 424 -19 q 273 8 343 -21 q 151 88 203 38 q 71 206 100 139 q 42 349 42 274 q 71 491 42 424 q 151 609 100 558 q 273 688 203 660 q 424 715 343 717 q 617 665 528 714 q 754 508 707 615 l 547 397 q 499 457 531 433 q 424 481 467 481 q 355 463 385 481 q 308 416 325 446 q 292 349 292 386 q 308 282 292 313 q 355 233 325 251 q 424 215 385 215 q 499 240 467 215 q 547 299 531 264 l 754 188 q 617 31 707 81 q 424 -19 528 -18 m 186 890 l 79 1042 l 319 1042 l 393 938 q 392 933 397 932 q 390 938 388 933 l 464 1042 l 704 1042 l 597 890 q 506 814 561 839 q 392 789 451 789 q 277 814 332 789 q 186 890 222 839 z "},"ç":{"ha":782,"x_min":42,"x_max":754,"o":"m 424 -19 q 273 8 343 -21 q 151 88 203 38 q 71 206 100 139 q 42 349 42 274 q 71 491 42 424 q 151 609 100 558 q 273 688 203 660 q 424 715 343 717 q 617 665 528 714 q 754 508 707 615 l 547 397 q 499 457 531 433 q 424 481 467 481 q 355 463 385 481 q 308 416 325 446 q 292 349 292 386 q 308 282 292 313 q 355 233 325 251 q 424 215 385 215 q 499 240 467 215 q 547 299 531 264 l 754 188 q 617 31 707 81 q 424 -19 528 -18 m 503 0 l 475 -93 l 249 -93 l 283 0 l 503 0 m 322 -424 l 243 -260 q 333 -230 310 -250 q 356 -186 356 -210 q 329 -150 356 -160 q 261 -140 303 -140 l 231 -140 l 274 -25 l 344 -25 q 507 -69 443 -24 q 571 -201 571 -115 q 538 -310 571 -264 q 449 -385 506 -357 q 322 -424 393 -414 z "},"ċ":{"ha":782,"x_min":42,"x_max":754,"o":"m 424 -19 q 273 8 343 -21 q 151 88 203 38 q 71 206 100 139 q 42 349 42 274 q 71 491 42 424 q 151 609 100 558 q 273 688 203 660 q 424 715 343 717 q 617 665 528 714 q 754 508 707 615 l 547 397 q 499 457 531 433 q 424 481 467 481 q 355 463 385 481 q 308 416 325 446 q 292 349 292 386 q 308 282 292 313 q 355 233 325 251 q 424 215 385 215 q 499 240 467 215 q 547 299 531 264 l 754 188 q 617 31 707 81 q 424 -19 528 -18 m 392 768 q 316 788 350 768 q 262 843 282 808 q 242 918 242 878 q 262 994 242 960 q 316 1048 282 1028 q 392 1068 350 1068 q 467 1048 433 1068 q 522 994 501 1028 q 542 918 542 960 q 522 843 542 878 q 467 788 501 808 q 392 768 433 768 z "},"d":{"ha":875,"x_min":42,"x_max":806,"o":"m 424 -21 q 229 29 315 -21 q 92 163 143 79 q 42 346 42 246 q 88 540 42 457 q 217 669 133 624 q 410 715 300 715 q 538 686 478 715 q 635 609 597 657 q 672 507 672 561 l 556 507 l 556 1014 l 806 1014 l 806 346 q 756 157 806 240 q 621 26 707 74 q 424 -21 535 -21 m 424 214 q 493 232 464 214 q 539 281 522 250 q 556 347 556 311 q 539 414 556 383 q 493 463 522 444 q 424 481 464 481 q 355 463 385 481 q 308 414 325 444 q 292 347 292 383 q 308 281 292 311 q 355 232 325 250 q 424 214 385 214 z "},"ð":{"ha":833,"x_min":42,"x_max":778,"o":"m 399 -21 q 210 22 290 -21 q 85 140 129 65 q 42 311 42 215 q 82 465 42 393 q 199 581 122 536 q 382 625 275 625 q 560 565 490 625 q 629 403 629 506 l 560 417 q 447 677 543 574 q 196 842 350 781 l 344 1028 q 578 872 481 965 q 726 663 675 779 q 778 411 778 546 q 729 193 778 292 q 595 37 681 94 q 399 -21 510 -21 m 413 200 q 473 217 449 200 q 510 262 497 235 q 524 317 524 289 q 509 373 524 349 q 468 411 494 397 q 406 425 442 425 q 345 409 371 425 q 306 367 319 393 q 292 314 292 342 q 307 255 292 281 q 349 215 322 229 q 413 200 376 200 m 182 751 l 658 986 l 724 864 l 242 632 l 182 751 z "},"ď":{"ha":903,"x_min":42,"x_max":1028,"o":"m 424 -21 q 229 29 315 -21 q 92 163 143 79 q 42 346 42 246 q 88 540 42 457 q 217 669 133 624 q 410 715 300 715 q 538 686 478 715 q 635 609 597 657 q 672 507 672 561 l 556 507 l 556 1014 l 806 1014 l 806 346 q 756 157 806 240 q 621 26 707 74 q 424 -21 535 -21 m 424 214 q 493 232 464 214 q 539 281 522 250 q 556 347 556 311 q 539 414 556 383 q 493 463 522 444 q 424 481 464 481 q 355 463 385 481 q 308 414 325 444 q 292 347 292 383 q 308 281 292 311 q 355 232 325 250 q 424 214 385 214 m 1028 1014 l 1028 746 l 854 746 l 854 1014 l 1028 1014 z "},"đ":{"ha":949,"x_min":42,"x_max":949,"o":"m 949 946 l 949 751 l 328 751 l 328 946 l 949 946 m 424 -21 q 229 29 315 -21 q 92 163 143 79 q 42 346 42 246 q 88 540 42 457 q 217 669 133 624 q 410 715 300 715 q 538 686 478 715 q 635 609 597 657 q 672 507 672 561 l 556 507 l 556 1014 l 806 1014 l 806 346 q 756 157 806 240 q 621 26 707 74 q 424 -21 535 -21 m 424 214 q 493 232 464 214 q 539 281 522 250 q 556 347 556 311 q 539 414 556 383 q 493 463 522 444 q 424 481 464 481 q 355 463 385 481 q 308 414 325 444 q 292 347 292 383 q 308 281 292 311 q 355 232 325 250 q 424 214 385 214 z "},"e":{"ha":821,"x_min":42,"x_max":765,"o":"m 431 -19 q 231 27 319 -19 q 92 158 143 74 q 42 356 42 242 q 88 539 42 456 q 218 672 135 622 q 411 722 301 722 q 604 672 525 722 q 724 541 683 622 q 765 367 765 460 l 765 304 l 243 304 l 278 349 q 297 266 278 301 q 349 212 315 231 q 428 193 382 193 q 516 218 478 193 q 572 283 554 243 l 764 188 q 633 35 719 90 q 431 -19 547 -19 m 293 433 l 517 433 q 497 470 511 453 q 460 498 482 488 q 408 508 438 508 q 356 498 379 508 q 317 471 332 488 q 293 433 301 454 z "},"é":{"ha":821,"x_min":42,"x_max":765,"o":"m 431 -19 q 231 27 319 -19 q 92 158 143 74 q 42 356 42 242 q 88 539 42 456 q 218 672 135 622 q 411 722 301 722 q 604 672 525 722 q 724 541 683 622 q 765 367 765 460 l 765 304 l 243 304 l 278 349 q 297 266 278 301 q 349 212 315 231 q 428 193 382 193 q 516 218 478 193 q 572 283 554 243 l 764 188 q 633 35 719 90 q 431 -19 547 -19 m 293 433 l 517 433 q 497 470 511 453 q 460 498 482 488 q 408 508 438 508 q 356 498 379 508 q 317 471 332 488 q 293 433 301 454 m 522 796 l 275 796 l 451 1042 l 706 1042 l 522 796 z "},"ě":{"ha":821,"x_min":42,"x_max":765,"o":"m 431 -19 q 231 27 319 -19 q 92 158 143 74 q 42 356 42 242 q 88 539 42 456 q 218 672 135 622 q 411 722 301 722 q 604 672 525 722 q 724 541 683 622 q 765 367 765 460 l 765 304 l 243 304 l 278 349 q 297 266 278 301 q 349 212 315 231 q 428 193 382 193 q 516 218 478 193 q 572 283 554 243 l 764 188 q 633 35 719 90 q 431 -19 547 -19 m 293 433 l 517 433 q 497 470 511 453 q 460 498 482 488 q 408 508 438 508 q 356 498 379 508 q 317 471 332 488 q 293 433 301 454 m 206 890 l 99 1042 l 339 1042 l 413 938 q 412 933 417 932 q 410 938 407 933 l 483 1042 l 724 1042 l 617 890 q 526 814 581 839 q 411 789 471 789 q 297 814 351 789 q 206 890 242 839 z "},"ê":{"ha":821,"x_min":42,"x_max":765,"o":"m 431 -19 q 231 27 319 -19 q 92 158 143 74 q 42 356 42 242 q 88 539 42 456 q 218 672 135 622 q 411 722 301 722 q 604 672 525 722 q 724 541 683 622 q 765 367 765 460 l 765 304 l 243 304 l 278 349 q 297 266 278 301 q 349 212 315 231 q 428 193 382 193 q 516 218 478 193 q 572 283 554 243 l 764 188 q 633 35 719 90 q 431 -19 547 -19 m 293 433 l 517 433 q 497 470 511 453 q 460 498 482 488 q 408 508 438 508 q 356 498 379 508 q 317 471 332 488 q 293 433 301 454 m 99 796 l 206 947 q 297 1024 242 999 q 411 1050 351 1050 q 526 1024 471 1050 q 617 947 581 999 l 724 796 l 483 796 l 410 900 q 412 905 407 904 q 413 900 417 906 l 339 796 l 99 796 z "},"ë":{"ha":821,"x_min":42,"x_max":765,"o":"m 431 -19 q 231 27 319 -19 q 92 158 143 74 q 42 356 42 242 q 88 539 42 456 q 218 672 135 622 q 411 722 301 722 q 604 672 525 722 q 724 541 683 622 q 765 367 765 460 l 765 304 l 243 304 l 278 349 q 297 266 278 301 q 349 212 315 231 q 428 193 382 193 q 516 218 478 193 q 572 283 554 243 l 764 188 q 633 35 719 90 q 431 -19 547 -19 m 293 433 l 517 433 q 497 470 511 453 q 460 498 482 488 q 408 508 438 508 q 356 498 379 508 q 317 471 332 488 q 293 433 301 454 m 229 776 q 129 818 171 776 q 88 918 88 860 q 129 1018 88 976 q 229 1060 171 1060 q 328 1018 286 1060 q 369 918 369 976 q 328 818 369 860 q 229 776 286 776 m 593 776 q 494 818 536 776 q 453 918 453 860 q 494 1018 453 976 q 593 1060 536 1060 q 693 1018 651 1060 q 735 918 735 976 q 693 818 735 860 q 593 776 651 776 z "},"ė":{"ha":821,"x_min":42,"x_max":765,"o":"m 431 -19 q 231 27 319 -19 q 92 158 143 74 q 42 356 42 242 q 88 539 42 456 q 218 672 135 622 q 411 722 301 722 q 604 672 525 722 q 724 541 683 622 q 765 367 765 460 l 765 304 l 243 304 l 278 349 q 297 266 278 301 q 349 212 315 231 q 428 193 382 193 q 516 218 478 193 q 572 283 554 243 l 764 188 q 633 35 719 90 q 431 -19 547 -19 m 293 433 l 517 433 q 497 470 511 453 q 460 498 482 488 q 408 508 438 508 q 356 498 379 508 q 317 471 332 488 q 293 433 301 454 m 411 768 q 336 788 371 768 q 281 843 301 808 q 261 918 261 878 q 281 994 261 960 q 336 1048 301 1028 q 411 1068 371 1068 q 487 1048 453 1068 q 541 994 521 1028 q 561 918 561 960 q 541 843 561 878 q 487 788 521 808 q 411 768 453 768 z "},"è":{"ha":821,"x_min":42,"x_max":765,"o":"m 431 -19 q 231 27 319 -19 q 92 158 143 74 q 42 356 42 242 q 88 539 42 456 q 218 672 135 622 q 411 722 301 722 q 604 672 525 722 q 724 541 683 622 q 765 367 765 460 l 765 304 l 243 304 l 278 349 q 297 266 278 301 q 349 212 315 231 q 428 193 382 193 q 516 218 478 193 q 572 283 554 243 l 764 188 q 633 35 719 90 q 431 -19 547 -19 m 293 433 l 517 433 q 497 470 511 453 q 460 498 482 488 q 408 508 438 508 q 356 498 379 508 q 317 471 332 488 q 293 433 301 454 m 374 1042 l 550 796 l 303 796 l 119 1042 l 374 1042 z "},"ē":{"ha":821,"x_min":42,"x_max":765,"o":"m 431 -19 q 231 27 319 -19 q 92 158 143 74 q 42 356 42 242 q 88 539 42 456 q 218 672 135 622 q 411 722 301 722 q 604 672 525 722 q 724 541 683 622 q 765 367 765 460 l 765 304 l 243 304 l 278 349 q 297 266 278 301 q 349 212 315 231 q 428 193 382 193 q 516 218 478 193 q 572 283 554 243 l 764 188 q 633 35 719 90 q 431 -19 547 -19 m 293 433 l 517 433 q 497 470 511 453 q 460 498 482 488 q 408 508 438 508 q 356 498 379 508 q 317 471 332 488 q 293 433 301 454 m 678 1014 l 678 826 l 143 826 l 143 1014 l 678 1014 z "},"ę":{"ha":821,"x_min":42,"x_max":765,"o":"m 431 -19 q 231 27 319 -19 q 92 158 143 74 q 42 356 42 242 q 88 539 42 456 q 218 672 135 622 q 411 722 301 722 q 604 672 525 722 q 724 541 683 622 q 765 367 765 460 l 765 304 l 243 304 l 278 349 q 297 266 278 301 q 349 212 315 231 q 428 193 382 193 q 516 218 478 193 q 572 283 554 243 l 764 188 q 633 35 719 90 q 431 -19 547 -19 m 293 433 l 517 433 q 497 470 511 453 q 460 498 482 488 q 408 508 438 508 q 356 498 379 508 q 317 471 332 488 q 293 433 301 454 m 628 -237 l 543 -429 q 394 -391 460 -422 q 290 -309 328 -360 q 253 -193 253 -258 q 276 -88 253 -135 q 343 0 300 -42 l 556 0 q 493 -67 513 -36 q 474 -131 474 -99 q 519 -206 474 -182 q 628 -237 564 -231 z "},"f":{"ha":611,"x_min":28,"x_max":611,"o":"m 396 0 l 146 0 l 146 699 q 182 867 146 792 q 292 986 218 942 q 478 1031 365 1031 q 549 1024 514 1031 q 611 1007 585 1018 l 611 781 q 557 801 586 794 q 501 808 528 808 q 424 781 453 808 q 396 704 396 754 l 396 0 m 596 486 l 28 486 l 28 694 l 596 694 l 596 486 z "},"g":{"ha":875,"x_min":42,"x_max":806,"o":"m 403 -340 q 182 -285 274 -340 q 42 -128 90 -229 l 249 -17 q 300 -82 265 -51 q 399 -112 335 -112 q 482 -92 447 -112 q 536 -31 517 -71 q 556 64 556 8 l 556 132 l 600 132 q 580 73 600 106 q 514 17 560 40 q 390 -7 468 -7 q 215 39 294 -7 q 89 165 136 85 q 42 350 42 246 q 92 534 42 451 q 229 666 143 617 q 424 715 315 715 q 621 668 535 715 q 756 538 707 621 q 806 349 806 456 l 806 74 q 753 -144 806 -51 q 609 -289 700 -237 q 403 -340 518 -340 m 419 228 q 487 244 457 228 q 534 289 517 260 q 551 356 551 318 q 534 421 551 393 q 487 465 517 449 q 419 481 457 481 q 353 465 383 481 q 305 421 322 449 q 288 356 288 393 q 305 289 288 318 q 353 244 322 260 q 419 228 383 228 z "},"ğ":{"ha":875,"x_min":42,"x_max":806,"o":"m 403 -340 q 182 -285 274 -340 q 42 -128 90 -229 l 249 -17 q 300 -82 265 -51 q 399 -112 335 -112 q 482 -92 447 -112 q 536 -31 517 -71 q 556 64 556 8 l 556 132 l 600 132 q 580 73 600 106 q 514 17 560 40 q 390 -7 468 -7 q 215 39 294 -7 q 89 165 136 85 q 42 350 42 246 q 92 534 42 451 q 229 666 143 617 q 424 715 315 715 q 621 668 535 715 q 756 538 707 621 q 806 349 806 456 l 806 74 q 753 -144 806 -51 q 609 -289 700 -237 q 403 -340 518 -340 m 419 228 q 487 244 457 228 q 534 289 517 260 q 551 356 551 318 q 534 421 551 393 q 487 465 517 449 q 419 481 457 481 q 353 465 383 481 q 305 421 322 449 q 288 356 288 393 q 305 289 288 318 q 353 244 322 260 q 419 228 383 228 m 432 796 q 223 858 292 796 q 154 1028 154 919 l 154 1042 l 363 1042 l 363 1028 q 377 984 363 1006 q 432 963 392 963 q 487 985 472 963 q 501 1028 501 1007 l 501 1042 l 710 1042 l 710 1028 q 641 858 710 919 q 432 796 572 796 z "},"ģ":{"ha":875,"x_min":42,"x_max":806,"o":"m 403 -340 q 182 -285 274 -340 q 42 -128 90 -229 l 249 -17 q 300 -82 265 -51 q 399 -112 335 -112 q 482 -92 447 -112 q 536 -31 517 -71 q 556 64 556 8 l 556 132 l 600 132 q 580 73 600 106 q 514 17 560 40 q 390 -7 468 -7 q 215 39 294 -7 q 89 165 136 85 q 42 350 42 246 q 92 534 42 451 q 229 666 143 617 q 424 715 315 715 q 621 668 535 715 q 756 538 707 621 q 806 349 806 456 l 806 74 q 753 -144 806 -51 q 609 -289 700 -237 q 403 -340 518 -340 m 419 228 q 487 244 457 228 q 534 289 517 260 q 551 356 551 318 q 534 421 551 393 q 487 465 517 449 q 419 481 457 481 q 353 465 383 481 q 305 421 322 449 q 288 356 288 393 q 305 289 288 318 q 353 244 322 260 q 419 228 383 228 m 403 1131 l 538 1131 l 496 879 l 313 913 l 403 1131 m 433 1004 q 522 967 485 1004 q 558 879 558 931 q 522 791 558 828 q 433 754 485 754 q 345 791 382 754 q 308 879 308 828 q 345 967 308 931 q 433 1004 382 1004 z "},"ġ":{"ha":875,"x_min":42,"x_max":806,"o":"m 403 -340 q 182 -285 274 -340 q 42 -128 90 -229 l 249 -17 q 300 -82 265 -51 q 399 -112 335 -112 q 482 -92 447 -112 q 536 -31 517 -71 q 556 64 556 8 l 556 132 l 600 132 q 580 73 600 106 q 514 17 560 40 q 390 -7 468 -7 q 215 39 294 -7 q 89 165 136 85 q 42 350 42 246 q 92 534 42 451 q 229 666 143 617 q 424 715 315 715 q 621 668 535 715 q 756 538 707 621 q 806 349 806 456 l 806 74 q 753 -144 806 -51 q 609 -289 700 -237 q 403 -340 518 -340 m 419 228 q 487 244 457 228 q 534 289 517 260 q 551 356 551 318 q 534 421 551 393 q 487 465 517 449 q 419 481 457 481 q 353 465 383 481 q 305 421 322 449 q 288 356 288 393 q 305 289 288 318 q 353 244 322 260 q 419 228 383 228 m 432 768 q 357 788 392 768 q 302 843 322 808 q 282 918 282 878 q 302 994 282 960 q 357 1048 322 1028 q 432 1068 392 1068 q 508 1048 474 1068 q 562 994 542 1028 q 582 918 582 960 q 562 843 582 878 q 508 788 542 808 q 432 768 474 768 z "},"h":{"ha":910,"x_min":97,"x_max":840,"o":"m 347 0 l 97 0 l 97 1014 l 347 1014 l 347 507 l 231 507 q 269 609 231 561 q 372 686 307 657 q 514 715 436 715 q 696 673 624 715 q 804 551 768 631 q 840 360 840 472 l 840 0 l 590 1 l 590 333 q 577 406 590 372 q 538 460 564 439 q 474 481 511 481 q 406 462 435 481 q 363 410 378 443 q 347 333 347 376 l 347 0 z "},"ħ":{"ha":971,"x_min":0,"x_max":874,"o":"m 621 946 l 621 751 l 0 751 l 0 946 l 621 946 m 381 0 l 131 0 l 131 1014 l 381 1014 l 381 507 l 264 507 q 302 609 264 561 q 405 686 340 657 q 547 715 469 715 q 729 673 657 715 q 838 551 801 631 q 874 360 874 472 l 874 0 l 624 1 l 624 333 q 610 406 624 372 q 571 460 597 439 q 507 481 544 481 q 440 462 468 481 q 396 410 411 443 q 381 333 381 376 l 381 0 z "},"i":{"ha":444,"x_min":72,"x_max":372,"o":"m 97 694 l 347 694 l 347 0 l 97 0 l 97 694 m 222 768 q 147 788 182 768 q 92 843 113 808 q 72 918 72 878 q 92 994 72 960 q 147 1048 113 1028 q 222 1068 182 1068 q 298 1048 264 1068 q 352 994 332 1028 q 372 918 372 960 q 352 843 372 878 q 298 788 332 808 q 222 768 264 768 z "},"ı":{"ha":444,"x_min":97,"x_max":347,"o":"m 97 694 l 347 694 l 347 0 l 97 0 l 97 694 z "},"í":{"ha":444,"x_min":86,"x_max":517,"o":"m 97 694 l 347 694 l 347 0 l 97 0 l 97 694 m 333 796 l 86 796 l 263 1042 l 517 1042 l 333 796 z "},"î":{"ha":444,"x_min":-90,"x_max":535,"o":"m 97 694 l 347 694 l 347 0 l 97 0 l 97 694 m -90 796 l 17 947 q 108 1024 53 999 q 222 1050 163 1050 q 337 1024 282 1050 q 428 947 392 999 l 535 796 l 294 796 l 221 900 q 223 905 218 904 q 224 900 228 906 l 150 796 l -90 796 z "},"ï":{"ha":444,"x_min":-101,"x_max":546,"o":"m 97 694 l 347 694 l 347 0 l 97 0 l 97 694 m 40 776 q -60 818 -18 776 q -101 918 -101 860 q -60 1018 -101 976 q 40 1060 -18 1060 q 139 1018 97 1060 q 181 918 181 976 q 139 818 181 860 q 40 776 97 776 m 404 776 q 306 818 347 776 q 264 918 264 860 q 306 1018 264 976 q 404 1060 347 1060 q 504 1018 463 1060 q 546 918 546 976 q 504 818 546 860 q 404 776 463 776 z "},"ì":{"ha":444,"x_min":-69,"x_max":361,"o":"m 97 694 l 347 694 l 347 0 l 97 0 l 97 694 m 185 1042 l 361 796 l 114 796 l -69 1042 l 185 1042 z "},"ī":{"ha":444,"x_min":-46,"x_max":489,"o":"m 97 694 l 347 694 l 347 0 l 97 0 l 97 694 m 489 1014 l 489 826 l -46 826 l -46 1014 l 489 1014 z "},"į":{"ha":444,"x_min":44,"x_max":419,"o":"m 97 694 l 347 694 l 347 0 l 97 0 l 97 694 m 222 768 q 147 788 182 768 q 92 843 113 808 q 72 918 72 878 q 92 994 72 960 q 147 1048 113 1028 q 222 1068 182 1068 q 298 1048 264 1068 q 352 994 332 1028 q 372 918 372 960 q 352 843 372 878 q 298 788 332 808 q 222 768 264 768 m 419 -237 l 335 -429 q 185 -391 251 -422 q 82 -309 119 -360 q 44 -193 44 -258 q 68 -88 44 -135 q 135 0 92 -42 l 347 0 q 285 -67 304 -36 q 265 -131 265 -99 q 310 -206 265 -182 q 419 -237 356 -231 z "},"j":{"ha":417,"x_min":-26,"x_max":374,"o":"m 97 694 l 347 694 l 347 -18 q 307 -183 347 -111 q 187 -295 267 -254 q -12 -336 107 -336 l -26 -100 q 68 -74 39 -100 q 97 -10 97 -49 l 97 694 m 224 768 q 149 788 183 768 q 94 843 114 808 q 74 918 74 878 q 94 994 74 960 q 149 1048 114 1028 q 224 1068 183 1068 q 299 1048 265 1068 q 353 994 333 1028 q 374 918 374 960 q 353 843 374 878 q 299 788 333 808 q 224 768 265 768 z "},"ȷ":{"ha":417,"x_min":-26,"x_max":347,"o":"m 97 694 l 347 694 l 347 -18 q 307 -183 347 -111 q 187 -295 267 -254 q -12 -336 107 -336 l -26 -100 q 68 -74 39 -100 q 97 -10 97 -49 l 97 694 z "},"k":{"ha":883,"x_min":97,"x_max":876,"o":"m 875 0 l 582 0 l 415 229 q 374 351 374 288 q 415 472 374 417 l 581 694 l 876 694 l 586 322 q 594 336 590 329 q 597 351 597 343 q 594 366 597 358 q 586 379 590 374 l 875 0 m 347 0 l 97 0 l 97 1014 l 347 1014 l 347 0 m 308 260 l 308 440 l 474 440 l 474 260 l 308 260 z "},"ķ":{"ha":883,"x_min":97,"x_max":876,"o":"m 875 0 l 582 0 l 415 229 q 374 351 374 288 q 415 472 374 417 l 581 694 l 876 694 l 586 322 q 594 336 590 329 q 597 351 597 343 q 594 366 597 358 q 586 379 590 374 l 875 0 m 347 0 l 97 0 l 97 1014 l 347 1014 l 347 0 m 308 260 l 308 440 l 474 440 l 474 260 l 308 260 m 472 -454 l 338 -454 l 379 -203 l 563 -236 l 472 -454 m 442 -328 q 353 -291 390 -328 q 317 -203 317 -254 q 353 -115 317 -151 q 442 -78 390 -78 q 530 -115 493 -78 q 567 -203 567 -151 q 530 -291 567 -254 q 442 -328 493 -328 z "},"l":{"ha":444,"x_min":97,"x_max":347,"o":"m 97 1014 l 347 1014 l 347 0 l 97 0 l 97 1014 z "},"ĺ":{"ha":444,"x_min":86,"x_max":517,"o":"m 97 1014 l 347 1014 l 347 0 l 97 0 l 97 1014 m 333 1115 l 86 1115 l 263 1361 l 517 1361 l 333 1115 z "},"ľ":{"ha":444,"x_min":97,"x_max":569,"o":"m 97 1014 l 347 1014 l 347 0 l 97 0 l 97 1014 m 569 1014 l 569 746 l 396 746 l 396 1014 l 569 1014 z "},"ļ":{"ha":444,"x_min":97,"x_max":347,"o":"m 97 1014 l 347 1014 l 347 0 l 97 0 l 97 1014 m 253 -454 l 118 -454 l 160 -203 l 343 -236 l 253 -454 m 222 -328 q 134 -291 171 -328 q 97 -203 97 -254 q 134 -115 97 -151 q 222 -78 171 -78 q 310 -115 274 -78 q 347 -203 347 -151 q 310 -291 347 -254 q 222 -328 274 -328 z "},"ł":{"ha":497,"x_min":28,"x_max":469,"o":"m 28 493 l 469 772 l 469 560 l 28 285 l 28 493 m 124 1014 l 374 1014 l 374 0 l 124 0 l 124 1014 z "},"m":{"ha":1381,"x_min":69,"x_max":1311,"o":"m 957 722 q 1155 672 1076 722 q 1272 541 1233 622 q 1311 363 1311 460 l 1311 0 l 1061 0 l 1061 319 q 1049 400 1061 364 q 1010 458 1038 436 q 938 479 983 479 q 865 458 892 479 q 827 400 839 436 q 815 319 815 364 l 815 0 l 565 0 l 565 319 q 554 400 565 364 q 516 458 543 436 q 443 479 489 479 q 370 458 397 479 q 331 400 343 436 q 319 319 319 364 l 319 0 l 69 0 l 69 363 q 108 541 69 460 q 226 672 147 622 q 424 722 304 722 q 581 691 515 722 q 683 603 647 660 q 718 469 718 546 l 663 469 q 701 603 663 546 q 807 691 740 660 q 957 722 874 722 z "},"n":{"ha":892,"x_min":69,"x_max":822,"o":"m 446 472 q 372 450 400 472 q 332 392 344 428 q 319 311 319 356 l 319 0 l 69 0 l 69 342 q 110 529 69 444 q 233 665 150 614 q 446 715 317 715 q 658 665 575 715 q 782 529 742 614 q 822 342 822 444 l 822 0 l 572 0 l 572 311 q 560 392 572 356 q 519 450 547 428 q 446 472 492 472 z "},"ń":{"ha":892,"x_min":69,"x_max":822,"o":"m 446 472 q 372 450 400 472 q 332 392 344 428 q 319 311 319 356 l 319 0 l 69 0 l 69 342 q 110 529 69 444 q 233 665 150 614 q 446 715 317 715 q 658 665 575 715 q 782 529 742 614 q 822 342 822 444 l 822 0 l 572 0 l 572 311 q 560 392 572 356 q 519 450 547 428 q 446 472 492 472 m 557 796 l 310 796 l 486 1042 l 740 1042 l 557 796 z "},"ň":{"ha":892,"x_min":69,"x_max":822,"o":"m 446 472 q 372 450 400 472 q 332 392 344 428 q 319 311 319 356 l 319 0 l 69 0 l 69 342 q 110 529 69 444 q 233 665 150 614 q 446 715 317 715 q 658 665 575 715 q 782 529 742 614 q 822 342 822 444 l 822 0 l 572 0 l 572 311 q 560 392 572 356 q 519 450 547 428 q 446 472 492 472 m 240 890 l 133 1042 l 374 1042 l 447 938 q 447 933 451 932 q 444 938 442 933 l 518 1042 l 758 1042 l 651 890 q 560 814 615 839 q 446 789 506 789 q 331 814 386 789 q 240 890 276 839 z "},"ņ":{"ha":892,"x_min":69,"x_max":822,"o":"m 446 472 q 372 450 400 472 q 332 392 344 428 q 319 311 319 356 l 319 0 l 69 0 l 69 342 q 110 529 69 444 q 233 665 150 614 q 446 715 317 715 q 658 665 575 715 q 782 529 742 614 q 822 342 822 444 l 822 0 l 572 0 l 572 311 q 560 392 572 356 q 519 450 547 428 q 446 472 492 472 m 476 -454 l 342 -454 l 383 -203 l 567 -236 l 476 -454 m 446 -328 q 358 -291 394 -328 q 321 -203 321 -254 q 358 -115 321 -151 q 446 -78 394 -78 q 534 -115 497 -78 q 571 -203 571 -151 q 534 -291 571 -254 q 446 -328 497 -328 z "},"ŋ":{"ha":892,"x_min":69,"x_max":822,"o":"m 319 0 l 69 0 l 69 342 q 110 529 69 444 q 233 665 150 614 q 446 715 317 715 q 658 665 575 715 q 782 529 742 614 q 822 342 822 444 l 822 -18 q 782 -183 822 -111 q 662 -295 742 -254 q 463 -336 582 -336 l 449 -100 q 543 -74 514 -100 q 572 -10 572 -49 l 572 311 q 560 392 572 356 q 519 450 547 428 q 446 472 492 472 q 372 450 400 472 q 332 392 344 428 q 319 311 319 356 l 319 0 z "},"ñ":{"ha":892,"x_min":69,"x_max":822,"o":"m 446 472 q 372 450 400 472 q 332 392 344 428 q 319 311 319 356 l 319 0 l 69 0 l 69 342 q 110 529 69 444 q 233 665 150 614 q 446 715 317 715 q 658 665 575 715 q 782 529 742 614 q 822 342 822 444 l 822 0 l 572 0 l 572 311 q 560 392 572 356 q 519 450 547 428 q 446 472 492 472 m 326 796 l 150 843 q 174 935 153 892 q 231 1005 194 978 q 317 1032 268 1032 q 394 1022 360 1032 q 458 1001 429 1011 q 513 990 488 990 q 551 1007 536 990 q 567 1042 565 1024 l 743 994 q 719 903 740 946 q 663 833 699 860 q 576 806 626 806 q 498 816 532 806 q 436 837 464 826 q 381 847 408 847 q 343 831 357 847 q 326 796 329 814 z "},"o":{"ha":847,"x_min":42,"x_max":806,"o":"m 424 -21 q 229 29 315 -21 q 92 163 143 79 q 42 349 42 247 q 92 533 42 450 q 229 667 143 617 q 424 717 315 717 q 619 667 532 717 q 756 533 706 617 q 806 349 806 450 q 756 163 806 247 q 619 29 706 79 q 424 -21 532 -21 m 424 214 q 493 232 464 214 q 539 281 522 250 q 556 347 556 311 q 539 415 556 385 q 493 464 522 446 q 424 482 464 482 q 355 464 385 482 q 308 415 325 446 q 292 347 292 385 q 308 281 292 311 q 355 232 325 250 q 424 214 385 214 z "},"ó":{"ha":847,"x_min":42,"x_max":806,"o":"m 424 -21 q 229 29 315 -21 q 92 163 143 79 q 42 349 42 247 q 92 533 42 450 q 229 667 143 617 q 424 717 315 717 q 619 667 532 717 q 756 533 706 617 q 806 349 806 450 q 756 163 806 247 q 619 29 706 79 q 424 -21 532 -21 m 424 214 q 493 232 464 214 q 539 281 522 250 q 556 347 556 311 q 539 415 556 385 q 493 464 522 446 q 424 482 464 482 q 355 464 385 482 q 308 415 325 446 q 292 347 292 385 q 308 281 292 311 q 355 232 325 250 q 424 214 385 214 m 535 796 l 288 796 l 464 1042 l 718 1042 l 535 796 z "},"ô":{"ha":847,"x_min":42,"x_max":806,"o":"m 424 -21 q 229 29 315 -21 q 92 163 143 79 q 42 349 42 247 q 92 533 42 450 q 229 667 143 617 q 424 717 315 717 q 619 667 532 717 q 756 533 706 617 q 806 349 806 450 q 756 163 806 247 q 619 29 706 79 q 424 -21 532 -21 m 424 214 q 493 232 464 214 q 539 281 522 250 q 556 347 556 311 q 539 415 556 385 q 493 464 522 446 q 424 482 464 482 q 355 464 385 482 q 308 415 325 446 q 292 347 292 385 q 308 281 292 311 q 355 232 325 250 q 424 214 385 214 m 111 796 l 218 947 q 309 1024 254 999 q 424 1050 364 1050 q 538 1024 483 1050 q 629 947 593 999 l 736 796 l 496 796 l 422 900 q 424 905 419 904 q 425 900 429 906 l 351 796 l 111 796 z "},"ö":{"ha":847,"x_min":42,"x_max":806,"o":"m 424 -21 q 229 29 315 -21 q 92 163 143 79 q 42 349 42 247 q 92 533 42 450 q 229 667 143 617 q 424 717 315 717 q 619 667 532 717 q 756 533 706 617 q 806 349 806 450 q 756 163 806 247 q 619 29 706 79 q 424 -21 532 -21 m 424 214 q 493 232 464 214 q 539 281 522 250 q 556 347 556 311 q 539 415 556 385 q 493 464 522 446 q 424 482 464 482 q 355 464 385 482 q 308 415 325 446 q 292 347 292 385 q 308 281 292 311 q 355 232 325 250 q 424 214 385 214 m 242 776 q 142 818 183 776 q 100 918 100 860 q 142 1018 100 976 q 242 1060 183 1060 q 340 1018 299 1060 q 382 918 382 976 q 340 818 382 860 q 242 776 299 776 m 606 776 q 507 818 549 776 q 465 918 465 860 q 507 1018 465 976 q 606 1060 549 1060 q 706 1018 664 1060 q 747 918 747 976 q 706 818 747 860 q 606 776 664 776 z "},"ò":{"ha":847,"x_min":42,"x_max":806,"o":"m 424 -21 q 229 29 315 -21 q 92 163 143 79 q 42 349 42 247 q 92 533 42 450 q 229 667 143 617 q 424 717 315 717 q 619 667 532 717 q 756 533 706 617 q 806 349 806 450 q 756 163 806 247 q 619 29 706 79 q 424 -21 532 -21 m 424 214 q 493 232 464 214 q 539 281 522 250 q 556 347 556 311 q 539 415 556 385 q 493 464 522 446 q 424 482 464 482 q 355 464 385 482 q 308 415 325 446 q 292 347 292 385 q 308 281 292 311 q 355 232 325 250 q 424 214 385 214 m 386 1042 l 563 796 l 315 796 l 132 1042 l 386 1042 z "},"ő":{"ha":847,"x_min":42,"x_max":896,"o":"m 424 -21 q 229 29 315 -21 q 92 163 143 79 q 42 349 42 247 q 92 533 42 450 q 229 667 143 617 q 424 717 315 717 q 619 667 532 717 q 756 533 706 617 q 806 349 806 450 q 756 163 806 247 q 619 29 706 79 q 424 -21 532 -21 m 424 214 q 493 232 464 214 q 539 281 522 250 q 556 347 556 311 q 539 415 556 385 q 493 464 522 446 q 424 482 464 482 q 355 464 385 482 q 308 415 325 446 q 292 347 292 385 q 308 281 292 311 q 355 232 325 250 q 424 214 385 214 m 351 796 l 118 796 l 294 1042 l 535 1042 l 351 796 m 713 796 l 479 796 l 656 1042 l 896 1042 l 713 796 z "},"ō":{"ha":847,"x_min":42,"x_max":806,"o":"m 424 -21 q 229 29 315 -21 q 92 163 143 79 q 42 349 42 247 q 92 533 42 450 q 229 667 143 617 q 424 717 315 717 q 619 667 532 717 q 756 533 706 617 q 806 349 806 450 q 756 163 806 247 q 619 29 706 79 q 424 -21 532 -21 m 424 214 q 493 232 464 214 q 539 281 522 250 q 556 347 556 311 q 539 415 556 385 q 493 464 522 446 q 424 482 464 482 q 355 464 385 482 q 308 415 325 446 q 292 347 292 385 q 308 281 292 311 q 355 232 325 250 q 424 214 385 214 m 690 1014 l 690 826 l 156 826 l 156 1014 l 690 1014 z "},"ø":{"ha":847,"x_min":42,"x_max":806,"o":"m 593 629 l 647 694 l 786 694 l 307 104 l 249 67 l 194 0 l 56 0 l 536 593 l 593 629 m 424 -21 q 229 29 315 -21 q 92 163 143 79 q 42 349 42 247 q 92 533 42 450 q 229 667 143 617 q 424 717 315 717 q 619 667 532 717 q 756 533 706 617 q 806 349 806 450 q 756 163 806 247 q 619 29 706 79 q 424 -21 532 -21 m 424 214 q 493 232 464 214 q 539 281 522 250 q 556 347 556 311 q 539 415 556 385 q 493 464 522 446 q 424 482 464 482 q 355 464 385 482 q 308 415 325 446 q 292 347 292 385 q 308 281 292 311 q 355 232 325 250 q 424 214 385 214 z "},"õ":{"ha":847,"x_min":42,"x_max":806,"o":"m 424 -21 q 229 29 315 -21 q 92 163 143 79 q 42 349 42 247 q 92 533 42 450 q 229 667 143 617 q 424 717 315 717 q 619 667 532 717 q 756 533 706 617 q 806 349 806 450 q 756 163 806 247 q 619 29 706 79 q 424 -21 532 -21 m 424 214 q 493 232 464 214 q 539 281 522 250 q 556 347 556 311 q 539 415 556 385 q 493 464 522 446 q 424 482 464 482 q 355 464 385 482 q 308 415 325 446 q 292 347 292 385 q 308 281 292 311 q 355 232 325 250 q 424 214 385 214 m 304 796 l 128 843 q 151 935 131 892 q 209 1005 172 978 q 294 1032 246 1032 q 372 1022 338 1032 q 436 1001 407 1011 q 490 990 465 990 q 528 1007 514 990 q 544 1042 543 1024 l 721 994 q 697 903 718 946 q 640 833 676 860 q 554 806 604 806 q 476 816 510 806 q 414 837 442 826 q 358 847 386 847 q 321 831 335 847 q 304 796 307 814 z "},"œ":{"ha":1363,"x_min":42,"x_max":1307,"o":"m 417 -21 q 269 8 338 -21 q 150 88 201 38 q 70 206 99 139 q 42 349 42 272 q 92 533 42 450 q 227 665 142 615 q 417 715 313 715 q 610 665 529 715 q 734 533 690 615 q 778 349 778 450 q 734 163 778 247 q 610 29 690 79 q 417 -21 529 -21 m 424 214 q 493 232 464 214 q 539 281 522 250 q 556 347 556 311 q 539 415 556 385 q 493 463 522 444 q 424 481 464 481 q 355 463 385 481 q 308 415 325 444 q 292 347 292 385 q 308 281 292 311 q 355 232 325 250 q 424 214 385 214 m 972 -19 q 773 27 861 -19 q 634 158 685 74 q 583 356 583 242 q 630 539 583 456 q 760 672 676 622 q 953 722 843 722 q 1146 672 1067 722 q 1266 541 1225 622 q 1307 367 1307 460 l 1307 304 l 785 304 l 819 349 q 838 266 819 301 q 890 212 857 231 q 969 193 924 193 q 1058 218 1019 193 q 1114 283 1096 243 l 1306 188 q 1175 35 1261 90 q 972 -19 1089 -19 m 835 433 l 1058 433 q 1038 470 1053 453 q 1001 498 1024 488 q 950 508 979 508 q 897 498 921 508 q 858 471 874 488 q 835 433 843 454 z "},"p":{"ha":875,"x_min":69,"x_max":833,"o":"m 319 -319 l 69 -319 l 69 349 q 119 538 69 456 q 254 668 168 621 q 451 715 340 715 q 647 665 560 715 q 783 533 733 615 q 833 349 833 450 q 788 154 833 238 q 659 25 742 71 q 465 -21 576 -21 q 338 9 399 -21 q 240 86 278 39 q 203 188 203 133 l 319 188 l 319 -319 m 451 214 q 521 232 492 214 q 567 281 550 250 q 583 347 583 311 q 567 415 583 385 q 521 463 550 444 q 451 481 492 481 q 383 463 413 481 q 336 415 353 444 q 319 347 319 385 q 336 281 319 311 q 383 232 353 250 q 451 214 413 214 z "},"þ":{"ha":875,"x_min":69,"x_max":833,"o":"m 319 -319 l 69 -319 l 69 1014 l 319 1014 l 319 507 l 203 507 q 238 605 203 557 q 336 684 274 653 q 479 715 399 715 q 669 665 590 715 q 791 533 749 615 q 833 349 833 450 q 785 154 833 238 q 656 25 736 71 q 479 -21 576 -21 q 342 9 406 -21 q 241 86 279 39 q 203 188 203 133 l 319 188 l 319 -319 m 451 214 q 521 232 492 214 q 567 281 550 250 q 583 347 583 311 q 567 415 583 385 q 521 463 550 444 q 451 481 492 481 q 383 463 413 481 q 336 415 353 444 q 319 347 319 385 q 336 281 319 311 q 383 232 353 250 q 451 214 413 214 z "},"q":{"ha":875,"x_min":42,"x_max":806,"o":"m 806 -319 l 556 -319 l 556 188 l 672 188 q 635 86 672 133 q 538 9 597 39 q 410 -21 478 -21 q 217 25 300 -21 q 88 154 133 71 q 42 349 42 238 q 92 533 42 450 q 229 665 143 615 q 424 715 315 715 q 621 668 535 715 q 756 538 707 621 q 806 349 806 456 l 806 -319 m 424 214 q 493 232 464 214 q 539 281 522 250 q 556 347 556 311 q 539 415 556 385 q 493 463 522 444 q 424 481 464 481 q 355 463 385 481 q 308 415 325 444 q 292 347 292 385 q 308 281 292 311 q 355 232 325 250 q 424 214 385 214 z "},"r":{"ha":514,"x_min":69,"x_max":535,"o":"m 319 0 l 69 0 l 69 385 q 106 553 69 478 q 215 672 142 628 q 401 717 289 717 q 473 710 438 717 q 535 693 508 704 l 535 453 q 481 474 510 467 q 425 481 451 481 q 348 453 376 481 q 319 376 319 426 l 319 0 z "},"ŕ":{"ha":514,"x_min":69,"x_max":646,"o":"m 319 0 l 69 0 l 69 385 q 106 553 69 478 q 215 672 142 628 q 401 717 289 717 q 473 710 438 717 q 535 693 508 704 l 535 453 q 481 474 510 467 q 425 481 451 481 q 348 453 376 481 q 319 376 319 426 l 319 0 m 463 796 l 215 796 l 392 1042 l 646 1042 l 463 796 z "},"ř":{"ha":514,"x_min":39,"x_max":664,"o":"m 319 0 l 69 0 l 69 385 q 106 553 69 478 q 215 672 142 628 q 401 717 289 717 q 473 710 438 717 q 535 693 508 704 l 535 453 q 481 474 510 467 q 425 481 451 481 q 348 453 376 481 q 319 376 319 426 l 319 0 m 146 890 l 39 1042 l 279 1042 l 353 938 q 352 933 357 932 q 350 938 347 933 l 424 1042 l 664 1042 l 557 890 q 466 814 521 839 q 351 789 411 789 q 237 814 292 789 q 146 890 182 839 z "},"ŗ":{"ha":514,"x_min":69,"x_max":535,"o":"m 319 0 l 69 0 l 69 385 q 106 553 69 478 q 215 672 142 628 q 401 717 289 717 q 473 710 438 717 q 535 693 508 704 l 535 453 q 481 474 510 467 q 425 481 451 481 q 348 453 376 481 q 319 376 319 426 l 319 0 m 226 -454 l 92 -454 l 133 -203 l 317 -236 l 226 -454 m 196 -328 q 108 -291 144 -328 q 71 -203 71 -254 q 108 -115 71 -151 q 196 -78 144 -78 q 284 -115 247 -78 q 321 -203 321 -151 q 284 -291 321 -254 q 196 -328 247 -328 z "},"s":{"ha":714,"x_min":42,"x_max":672,"o":"m 360 -22 q 164 18 242 -22 q 42 138 86 58 l 222 239 q 271 189 242 206 q 347 172 300 172 q 390 178 374 172 q 414 192 406 183 q 422 213 422 201 q 396 243 422 233 q 328 260 369 253 q 239 277 286 267 q 150 310 192 288 q 82 373 108 332 q 56 481 56 414 q 91 599 56 546 q 194 685 126 653 q 356 717 261 717 q 497 693 439 717 q 594 633 556 669 q 651 558 632 597 l 471 456 q 428 505 460 488 q 361 522 397 522 q 331 517 343 522 q 312 505 318 513 q 306 486 306 497 q 332 454 306 465 q 400 436 358 443 q 489 418 442 429 q 578 385 536 407 q 646 323 619 363 q 672 218 672 283 q 629 92 672 146 q 515 8 586 38 q 360 -22 444 -22 z "},"ś":{"ha":714,"x_min":42,"x_max":672,"o":"m 360 -22 q 164 18 242 -22 q 42 138 86 58 l 222 239 q 271 189 242 206 q 347 172 300 172 q 390 178 374 172 q 414 192 406 183 q 422 213 422 201 q 396 243 422 233 q 328 260 369 253 q 239 277 286 267 q 150 310 192 288 q 82 373 108 332 q 56 481 56 414 q 91 599 56 546 q 194 685 126 653 q 356 717 261 717 q 497 693 439 717 q 594 633 556 669 q 651 558 632 597 l 471 456 q 428 505 460 488 q 361 522 397 522 q 331 517 343 522 q 312 505 318 513 q 306 486 306 497 q 332 454 306 465 q 400 436 358 443 q 489 418 442 429 q 578 385 536 407 q 646 323 619 363 q 672 218 672 283 q 629 92 672 146 q 515 8 586 38 q 360 -22 444 -22 m 468 796 l 221 796 l 397 1042 l 651 1042 l 468 796 z "},"š":{"ha":714,"x_min":42,"x_max":672,"o":"m 360 -22 q 164 18 242 -22 q 42 138 86 58 l 222 239 q 271 189 242 206 q 347 172 300 172 q 390 178 374 172 q 414 192 406 183 q 422 213 422 201 q 396 243 422 233 q 328 260 369 253 q 239 277 286 267 q 150 310 192 288 q 82 373 108 332 q 56 481 56 414 q 91 599 56 546 q 194 685 126 653 q 356 717 261 717 q 497 693 439 717 q 594 633 556 669 q 651 558 632 597 l 471 456 q 428 505 460 488 q 361 522 397 522 q 331 517 343 522 q 312 505 318 513 q 306 486 306 497 q 332 454 306 465 q 400 436 358 443 q 489 418 442 429 q 578 385 536 407 q 646 323 619 363 q 672 218 672 283 q 629 92 672 146 q 515 8 586 38 q 360 -22 444 -22 m 151 890 l 44 1042 l 285 1042 l 358 938 q 358 933 363 932 q 356 938 353 933 l 429 1042 l 669 1042 l 563 890 q 472 814 526 839 q 357 789 417 789 q 242 814 297 789 q 151 890 188 839 z "},"ş":{"ha":714,"x_min":42,"x_max":672,"o":"m 360 -22 q 164 18 242 -22 q 42 138 86 58 l 222 239 q 271 189 242 206 q 347 172 300 172 q 390 178 374 172 q 414 192 406 183 q 422 213 422 201 q 396 243 422 233 q 328 260 369 253 q 239 277 286 267 q 150 310 192 288 q 82 373 108 332 q 56 481 56 414 q 91 599 56 546 q 194 685 126 653 q 356 717 261 717 q 497 693 439 717 q 594 633 556 669 q 651 558 632 597 l 471 456 q 428 505 460 488 q 361 522 397 522 q 331 517 343 522 q 312 505 318 513 q 306 486 306 497 q 332 454 306 465 q 400 436 358 443 q 489 418 442 429 q 578 385 536 407 q 646 323 619 363 q 672 218 672 283 q 629 92 672 146 q 515 8 586 38 q 360 -22 444 -22 m 468 0 l 440 -93 l 214 -93 l 249 0 l 468 0 m 288 -424 l 208 -260 q 298 -230 275 -250 q 321 -186 321 -210 q 294 -150 321 -160 q 226 -140 268 -140 l 196 -140 l 239 -25 l 310 -25 q 472 -69 408 -24 q 536 -201 536 -115 q 503 -310 536 -264 q 415 -385 471 -357 q 288 -424 358 -414 z "},"ș":{"ha":714,"x_min":42,"x_max":672,"o":"m 360 -22 q 164 18 242 -22 q 42 138 86 58 l 222 239 q 271 189 242 206 q 347 172 300 172 q 390 178 374 172 q 414 192 406 183 q 422 213 422 201 q 396 243 422 233 q 328 260 369 253 q 239 277 286 267 q 150 310 192 288 q 82 373 108 332 q 56 481 56 414 q 91 599 56 546 q 194 685 126 653 q 356 717 261 717 q 497 693 439 717 q 594 633 556 669 q 651 558 632 597 l 471 456 q 428 505 460 488 q 361 522 397 522 q 331 517 343 522 q 312 505 318 513 q 306 486 306 497 q 332 454 306 465 q 400 436 358 443 q 489 418 442 429 q 578 385 536 407 q 646 323 619 363 q 672 218 672 283 q 629 92 672 146 q 515 8 586 38 q 360 -22 444 -22 m 388 -454 l 253 -454 l 294 -203 l 478 -236 l 388 -454 m 357 -328 q 269 -291 306 -328 q 232 -203 232 -254 q 269 -115 232 -151 q 357 -78 306 -78 q 445 -115 408 -78 q 482 -203 482 -151 q 445 -291 482 -254 q 357 -328 408 -328 z "},"ß":{"ha":999,"x_min":97,"x_max":950,"o":"m 669 -21 q 507 15 572 -21 q 389 128 442 50 l 539 228 q 594 181 569 194 q 654 167 619 167 q 696 180 679 167 q 713 214 713 193 q 692 261 713 242 q 640 298 671 281 q 578 334 608 315 q 526 378 547 353 q 506 438 506 403 q 517 500 506 474 q 543 547 528 526 q 569 589 558 568 q 581 632 581 610 q 553 697 581 672 q 474 722 526 722 q 399 701 426 722 q 359 644 371 679 q 347 569 347 610 l 347 0 l 99 0 l 97 575 q 147 776 97 690 q 288 910 197 863 q 501 958 379 958 q 669 926 596 958 q 785 838 743 894 q 828 706 828 782 q 814 626 828 660 q 783 567 800 593 q 751 521 765 542 q 738 481 738 500 q 759 447 738 464 q 813 410 781 431 q 876 363 844 390 q 928 297 907 336 q 950 206 950 258 q 913 85 950 136 q 813 7 876 35 q 669 -21 750 -21 z "},"t":{"ha":651,"x_min":14,"x_max":610,"o":"m 464 -22 q 278 19 351 -22 q 168 132 204 60 q 132 296 132 204 l 132 868 l 382 868 l 382 304 q 410 227 382 254 q 488 200 439 200 q 549 207 514 200 q 610 228 585 214 l 610 7 q 542 -15 583 -7 q 464 -22 500 -22 m 610 486 l 14 486 l 14 694 l 610 694 l 610 486 z "},"ŧ":{"ha":651,"x_min":14,"x_max":610,"o":"m 567 279 l 40 279 l 40 432 l 567 432 l 567 279 m 464 -22 q 278 22 351 -22 q 168 142 204 67 q 132 310 132 218 l 132 868 l 382 868 l 382 304 q 410 227 382 254 q 488 200 439 200 q 554 207 524 200 q 610 228 585 214 l 610 7 q 542 -15 583 -7 q 464 -22 500 -22 m 610 515 l 14 515 l 14 694 l 610 694 l 610 515 z "},"ť":{"ha":651,"x_min":14,"x_max":611,"o":"m 464 -22 q 278 19 351 -22 q 168 132 204 60 q 132 296 132 204 l 132 868 l 382 868 l 382 304 q 410 227 382 254 q 488 200 439 200 q 549 207 514 200 q 610 228 585 214 l 610 7 q 542 -15 583 -7 q 464 -22 500 -22 m 610 486 l 14 486 l 14 694 l 610 694 l 610 486 m 611 1014 l 611 746 l 438 746 l 438 1014 l 611 1014 z "},"ţ":{"ha":651,"x_min":14,"x_max":615,"o":"m 464 -22 q 278 19 351 -22 q 168 132 204 60 q 132 296 132 204 l 132 868 l 382 868 l 382 304 q 410 227 382 254 q 488 200 439 200 q 549 207 514 200 q 610 228 585 214 l 610 7 q 542 -15 583 -7 q 464 -22 500 -22 m 610 486 l 14 486 l 14 694 l 610 694 l 610 486 m 547 0 l 519 -93 l 293 -93 l 328 0 l 547 0 m 367 -424 l 288 -260 q 377 -230 354 -250 q 400 -186 400 -210 q 374 -150 400 -160 q 306 -140 347 -140 l 275 -140 l 318 -25 l 389 -25 q 551 -69 488 -24 q 615 -201 615 -115 q 583 -310 615 -264 q 494 -385 550 -357 q 367 -424 438 -414 z "},"ț":{"ha":651,"x_min":14,"x_max":610,"o":"m 464 -22 q 278 19 351 -22 q 168 132 204 60 q 132 296 132 204 l 132 868 l 382 868 l 382 304 q 410 227 382 254 q 488 200 439 200 q 549 207 514 200 q 610 228 585 214 l 610 7 q 542 -15 583 -7 q 464 -22 500 -22 m 610 486 l 14 486 l 14 694 l 610 694 l 610 486 m 467 -454 l 332 -454 l 374 -203 l 557 -236 l 467 -454 m 436 -328 q 348 -291 385 -328 q 311 -203 311 -254 q 348 -115 311 -151 q 436 -78 385 -78 q 524 -115 488 -78 q 561 -203 561 -151 q 524 -291 561 -254 q 436 -328 488 -328 z "},"u":{"ha":842,"x_min":56,"x_max":786,"o":"m 421 222 q 487 244 461 222 q 524 303 513 267 q 536 383 536 340 l 536 694 l 786 694 l 786 353 q 746 166 786 251 q 625 30 706 81 q 421 -21 544 -21 q 217 30 299 -21 q 96 166 136 81 q 56 353 56 251 l 56 694 l 306 694 l 306 383 q 317 303 306 340 q 355 244 329 267 q 421 222 381 222 z "},"ú":{"ha":842,"x_min":56,"x_max":786,"o":"m 421 222 q 487 244 461 222 q 524 303 513 267 q 536 383 536 340 l 536 694 l 786 694 l 786 353 q 746 166 786 251 q 625 30 706 81 q 421 -21 544 -21 q 217 30 299 -21 q 96 166 136 81 q 56 353 56 251 l 56 694 l 306 694 l 306 383 q 317 303 306 340 q 355 244 329 267 q 421 222 381 222 m 532 796 l 285 796 l 461 1042 l 715 1042 l 532 796 z "},"û":{"ha":842,"x_min":56,"x_max":786,"o":"m 421 222 q 487 244 461 222 q 524 303 513 267 q 536 383 536 340 l 536 694 l 786 694 l 786 353 q 746 166 786 251 q 625 30 706 81 q 421 -21 544 -21 q 217 30 299 -21 q 96 166 136 81 q 56 353 56 251 l 56 694 l 306 694 l 306 383 q 317 303 306 340 q 355 244 329 267 q 421 222 381 222 m 108 796 l 215 947 q 306 1024 251 999 q 421 1050 361 1050 q 535 1024 481 1050 q 626 947 590 999 l 733 796 l 493 796 l 419 900 q 422 905 417 904 q 422 900 426 906 l 349 796 l 108 796 z "},"ü":{"ha":842,"x_min":56,"x_max":786,"o":"m 421 222 q 487 244 461 222 q 524 303 513 267 q 536 383 536 340 l 536 694 l 786 694 l 786 353 q 746 166 786 251 q 625 30 706 81 q 421 -21 544 -21 q 217 30 299 -21 q 96 166 136 81 q 56 353 56 251 l 56 694 l 306 694 l 306 383 q 317 303 306 340 q 355 244 329 267 q 421 222 381 222 m 239 776 q 139 818 181 776 q 97 918 97 860 q 139 1018 97 976 q 239 1060 181 1060 q 338 1018 296 1060 q 379 918 379 976 q 338 818 379 860 q 239 776 296 776 m 603 776 q 504 818 546 776 q 463 918 463 860 q 504 1018 463 976 q 603 1060 546 1060 q 703 1018 661 1060 q 744 918 744 976 q 703 818 744 860 q 603 776 661 776 z "},"ù":{"ha":842,"x_min":56,"x_max":786,"o":"m 421 222 q 487 244 461 222 q 524 303 513 267 q 536 383 536 340 l 536 694 l 786 694 l 786 353 q 746 166 786 251 q 625 30 706 81 q 421 -21 544 -21 q 217 30 299 -21 q 96 166 136 81 q 56 353 56 251 l 56 694 l 306 694 l 306 383 q 317 303 306 340 q 355 244 329 267 q 421 222 381 222 m 383 1042 l 560 796 l 313 796 l 129 1042 l 383 1042 z "},"ű":{"ha":842,"x_min":56,"x_max":893,"o":"m 421 222 q 487 244 461 222 q 524 303 513 267 q 536 383 536 340 l 536 694 l 786 694 l 786 353 q 746 166 786 251 q 625 30 706 81 q 421 -21 544 -21 q 217 30 299 -21 q 96 166 136 81 q 56 353 56 251 l 56 694 l 306 694 l 306 383 q 317 303 306 340 q 355 244 329 267 q 421 222 381 222 m 349 796 l 115 796 l 292 1042 l 532 1042 l 349 796 m 710 796 l 476 796 l 653 1042 l 893 1042 l 710 796 z "},"ū":{"ha":842,"x_min":56,"x_max":786,"o":"m 421 222 q 487 244 461 222 q 524 303 513 267 q 536 383 536 340 l 536 694 l 786 694 l 786 353 q 746 166 786 251 q 625 30 706 81 q 421 -21 544 -21 q 217 30 299 -21 q 96 166 136 81 q 56 353 56 251 l 56 694 l 306 694 l 306 383 q 317 303 306 340 q 355 244 329 267 q 421 222 381 222 m 688 1014 l 688 826 l 153 826 l 153 1014 l 688 1014 z "},"ų":{"ha":842,"x_min":56,"x_max":786,"o":"m 421 222 q 487 244 461 222 q 524 303 513 267 q 536 383 536 340 l 536 694 l 786 694 l 786 353 q 746 166 786 251 q 625 30 706 81 q 421 -21 544 -21 q 217 30 299 -21 q 96 166 136 81 q 56 353 56 251 l 56 694 l 306 694 l 306 383 q 317 303 306 340 q 355 244 329 267 q 421 222 381 222 m 629 -237 l 544 -429 q 395 -391 461 -422 q 292 -309 329 -360 q 254 -193 254 -258 q 278 -88 254 -135 q 344 0 301 -42 l 557 0 q 494 -67 514 -36 q 475 -131 475 -99 q 520 -206 475 -182 q 629 -237 565 -231 z "},"ů":{"ha":842,"x_min":56,"x_max":786,"o":"m 421 222 q 487 244 461 222 q 524 303 513 267 q 536 383 536 340 l 536 694 l 786 694 l 786 353 q 746 166 786 251 q 625 30 706 81 q 421 -21 544 -21 q 217 30 299 -21 q 96 166 136 81 q 56 353 56 251 l 56 694 l 306 694 l 306 383 q 317 303 306 340 q 355 244 329 267 q 421 222 381 222 m 421 719 q 322 747 367 719 q 249 819 276 774 q 222 918 222 864 q 249 1017 222 972 q 322 1090 276 1063 q 421 1117 367 1117 q 520 1090 475 1117 q 592 1017 565 1063 q 619 918 619 972 q 592 819 619 864 q 520 747 565 774 q 421 719 475 719 m 421 863 q 460 879 444 863 q 476 918 476 896 q 460 958 476 942 q 421 974 444 974 q 382 958 399 974 q 365 918 365 942 q 382 879 365 896 q 421 863 399 863 z "},"v":{"ha":828,"x_min":0,"x_max":828,"o":"m 201 136 l 0 694 l 267 694 l 432 207 q 422 216 426 214 q 414 218 418 218 q 406 216 410 218 q 396 207 401 214 l 561 694 l 828 694 l 622 136 q 541 17 593 57 q 414 -22 489 -22 q 285 17 339 -22 q 201 136 231 57 z "},"w":{"ha":1228,"x_min":14,"x_max":1214,"o":"m 351 -22 q 267 -4 310 -22 q 191 51 224 14 q 144 144 158 88 l 14 694 l 247 694 l 361 190 q 356 203 360 199 q 349 207 351 207 q 342 203 346 207 q 335 190 338 199 l 428 550 q 499 675 450 633 q 619 717 547 717 q 740 676 693 717 q 808 553 788 635 l 901 190 q 895 201 900 197 q 888 206 890 206 q 882 201 886 206 q 875 190 878 197 l 983 694 l 1214 694 l 1092 144 q 1046 51 1079 88 q 969 -4 1013 14 q 885 -22 926 -22 q 769 19 819 -22 q 697 144 718 61 l 601 519 q 610 506 604 510 q 618 501 615 501 q 627 506 621 501 q 635 518 633 510 l 540 144 q 468 19 519 61 q 351 -22 417 -22 z "},"ẃ":{"ha":1228,"x_min":14,"x_max":1214,"o":"m 351 -22 q 267 -4 310 -22 q 191 51 224 14 q 144 144 158 88 l 14 694 l 247 694 l 361 190 q 356 203 360 199 q 349 207 351 207 q 342 203 346 207 q 335 190 338 199 l 428 550 q 499 675 450 633 q 619 717 547 717 q 740 676 693 717 q 808 553 788 635 l 901 190 q 895 201 900 197 q 888 206 890 206 q 882 201 886 206 q 875 190 878 197 l 983 694 l 1214 694 l 1092 144 q 1046 51 1079 88 q 969 -4 1013 14 q 885 -22 926 -22 q 769 19 819 -22 q 697 144 718 61 l 601 519 q 610 506 604 510 q 618 501 615 501 q 627 506 621 501 q 635 518 633 510 l 540 144 q 468 19 519 61 q 351 -22 417 -22 m 725 796 l 478 796 l 654 1042 l 908 1042 l 725 796 z "},"ŵ":{"ha":1228,"x_min":14,"x_max":1214,"o":"m 351 -22 q 267 -4 310 -22 q 191 51 224 14 q 144 144 158 88 l 14 694 l 247 694 l 361 190 q 356 203 360 199 q 349 207 351 207 q 342 203 346 207 q 335 190 338 199 l 428 550 q 499 675 450 633 q 619 717 547 717 q 740 676 693 717 q 808 553 788 635 l 901 190 q 895 201 900 197 q 888 206 890 206 q 882 201 886 206 q 875 190 878 197 l 983 694 l 1214 694 l 1092 144 q 1046 51 1079 88 q 969 -4 1013 14 q 885 -22 926 -22 q 769 19 819 -22 q 697 144 718 61 l 601 519 q 610 506 604 510 q 618 501 615 501 q 627 506 621 501 q 635 518 633 510 l 540 144 q 468 19 519 61 q 351 -22 417 -22 m 301 796 l 408 947 q 499 1024 444 999 q 614 1050 554 1050 q 728 1024 674 1050 q 819 947 783 999 l 926 796 l 686 796 l 613 900 q 615 905 610 904 q 615 900 619 906 l 542 796 l 301 796 z "},"ẅ":{"ha":1228,"x_min":14,"x_max":1214,"o":"m 351 -22 q 267 -4 310 -22 q 191 51 224 14 q 144 144 158 88 l 14 694 l 247 694 l 361 190 q 356 203 360 199 q 349 207 351 207 q 342 203 346 207 q 335 190 338 199 l 428 550 q 499 675 450 633 q 619 717 547 717 q 740 676 693 717 q 808 553 788 635 l 901 190 q 895 201 900 197 q 888 206 890 206 q 882 201 886 206 q 875 190 878 197 l 983 694 l 1214 694 l 1092 144 q 1046 51 1079 88 q 969 -4 1013 14 q 885 -22 926 -22 q 769 19 819 -22 q 697 144 718 61 l 601 519 q 610 506 604 510 q 618 501 615 501 q 627 506 621 501 q 635 518 633 510 l 540 144 q 468 19 519 61 q 351 -22 417 -22 m 432 776 q 332 818 374 776 q 290 918 290 860 q 332 1018 290 976 q 432 1060 374 1060 q 531 1018 489 1060 q 572 918 572 976 q 531 818 572 860 q 432 776 489 776 m 796 776 q 697 818 739 776 q 656 918 656 860 q 697 1018 656 976 q 796 1060 739 1060 q 896 1018 854 1060 q 938 918 938 976 q 896 818 938 860 q 796 776 854 776 z "},"ẁ":{"ha":1228,"x_min":14,"x_max":1214,"o":"m 351 -22 q 267 -4 310 -22 q 191 51 224 14 q 144 144 158 88 l 14 694 l 247 694 l 361 190 q 356 203 360 199 q 349 207 351 207 q 342 203 346 207 q 335 190 338 199 l 428 550 q 499 675 450 633 q 619 717 547 717 q 740 676 693 717 q 808 553 788 635 l 901 190 q 895 201 900 197 q 888 206 890 206 q 882 201 886 206 q 875 190 878 197 l 983 694 l 1214 694 l 1092 144 q 1046 51 1079 88 q 969 -4 1013 14 q 885 -22 926 -22 q 769 19 819 -22 q 697 144 718 61 l 601 519 q 610 506 604 510 q 618 501 615 501 q 627 506 621 501 q 635 518 633 510 l 540 144 q 468 19 519 61 q 351 -22 417 -22 m 576 1042 l 753 796 l 506 796 l 322 1042 l 576 1042 z "},"x":{"ha":874,"x_min":14,"x_max":860,"o":"m 858 0 l 579 0 l 481 176 q 449 256 460 213 q 439 343 439 300 q 449 432 439 388 q 481 514 460 476 l 578 694 l 860 694 l 703 418 q 676 346 676 374 q 707 264 676 317 l 858 0 m 294 0 l 15 0 l 167 264 q 197 346 197 317 q 171 418 197 374 l 14 694 l 296 694 l 393 514 q 424 432 414 476 q 435 343 435 388 q 424 256 435 300 q 393 176 414 213 l 294 0 m 585 239 l 311 239 l 311 461 l 585 461 l 585 239 z "},"y":{"ha":914,"x_min":56,"x_max":824,"o":"m 421 -342 q 195 -286 286 -342 q 56 -129 104 -231 l 263 -18 q 316 -83 279 -53 q 417 -114 353 -114 q 500 -92 465 -114 q 554 -31 535 -71 q 574 64 574 8 l 574 132 l 618 132 q 578 51 604 82 q 512 7 551 21 q 418 -7 472 -7 q 228 39 301 -7 q 122 165 156 85 q 88 350 88 246 l 88 694 l 333 694 l 333 356 q 365 263 333 299 q 451 228 396 228 q 509 244 482 228 q 553 289 536 260 q 569 356 569 318 l 569 694 l 824 694 l 824 67 q 771 -150 824 -58 q 627 -292 718 -242 q 421 -342 536 -342 z "},"ý":{"ha":914,"x_min":56,"x_max":824,"o":"m 421 -342 q 195 -286 286 -342 q 56 -129 104 -231 l 263 -18 q 316 -83 279 -53 q 417 -114 353 -114 q 500 -92 465 -114 q 554 -31 535 -71 q 574 64 574 8 l 574 132 l 618 132 q 578 51 604 82 q 512 7 551 21 q 418 -7 472 -7 q 228 39 301 -7 q 122 165 156 85 q 88 350 88 246 l 88 694 l 333 694 l 333 356 q 365 263 333 299 q 451 228 396 228 q 509 244 482 228 q 553 289 536 260 q 569 356 569 318 l 569 694 l 824 694 l 824 67 q 771 -150 824 -58 q 627 -292 718 -242 q 421 -342 536 -342 m 568 796 l 321 796 l 497 1042 l 751 1042 l 568 796 z "},"ŷ":{"ha":914,"x_min":56,"x_max":824,"o":"m 421 -342 q 195 -286 286 -342 q 56 -129 104 -231 l 263 -18 q 316 -83 279 -53 q 417 -114 353 -114 q 500 -92 465 -114 q 554 -31 535 -71 q 574 64 574 8 l 574 132 l 618 132 q 578 51 604 82 q 512 7 551 21 q 418 -7 472 -7 q 228 39 301 -7 q 122 165 156 85 q 88 350 88 246 l 88 694 l 333 694 l 333 356 q 365 263 333 299 q 451 228 396 228 q 509 244 482 228 q 553 289 536 260 q 569 356 569 318 l 569 694 l 824 694 l 824 67 q 771 -150 824 -58 q 627 -292 718 -242 q 421 -342 536 -342 m 144 796 l 251 947 q 342 1024 288 999 q 457 1050 397 1050 q 572 1024 517 1050 q 663 947 626 999 l 769 796 l 529 796 l 456 900 q 458 905 453 904 q 458 900 463 906 l 385 796 l 144 796 z "},"ÿ":{"ha":914,"x_min":56,"x_max":824,"o":"m 421 -342 q 195 -286 286 -342 q 56 -129 104 -231 l 263 -18 q 316 -83 279 -53 q 417 -114 353 -114 q 500 -92 465 -114 q 554 -31 535 -71 q 574 64 574 8 l 574 132 l 618 132 q 578 51 604 82 q 512 7 551 21 q 418 -7 472 -7 q 228 39 301 -7 q 122 165 156 85 q 88 350 88 246 l 88 694 l 333 694 l 333 356 q 365 263 333 299 q 451 228 396 228 q 509 244 482 228 q 553 289 536 260 q 569 356 569 318 l 569 694 l 824 694 l 824 67 q 771 -150 824 -58 q 627 -292 718 -242 q 421 -342 536 -342 m 275 776 q 175 818 217 776 q 133 918 133 860 q 175 1018 133 976 q 275 1060 217 1060 q 374 1018 332 1060 q 415 918 415 976 q 374 818 415 860 q 275 776 332 776 m 639 776 q 540 818 582 776 q 499 918 499 860 q 540 1018 499 976 q 639 1060 582 1060 q 739 1018 697 1060 q 781 918 781 976 q 739 818 781 860 q 639 776 697 776 z "},"ỳ":{"ha":914,"x_min":56,"x_max":824,"o":"m 421 -342 q 195 -286 286 -342 q 56 -129 104 -231 l 263 -18 q 316 -83 279 -53 q 417 -114 353 -114 q 500 -92 465 -114 q 554 -31 535 -71 q 574 64 574 8 l 574 132 l 618 132 q 578 51 604 82 q 512 7 551 21 q 418 -7 472 -7 q 228 39 301 -7 q 122 165 156 85 q 88 350 88 246 l 88 694 l 333 694 l 333 356 q 365 263 333 299 q 451 228 396 228 q 509 244 482 228 q 553 289 536 260 q 569 356 569 318 l 569 694 l 824 694 l 824 67 q 771 -150 824 -58 q 627 -292 718 -242 q 421 -342 536 -342 m 419 1042 l 596 796 l 349 796 l 165 1042 l 419 1042 z "},"z":{"ha":763,"x_min":54,"x_max":708,"o":"m 697 0 l 256 0 q 106 47 156 0 q 56 156 57 93 q 77 252 54 210 q 153 325 100 294 l 447 500 q 443 493 443 496 q 445 489 443 492 q 451 486 447 486 l 83 486 l 83 694 l 507 694 q 656 648 607 694 q 707 539 706 601 q 685 443 708 485 q 610 369 663 401 l 315 194 q 318 199 318 197 q 315 205 318 201 q 308 208 313 208 l 697 208 l 697 0 z "},"ź":{"ha":763,"x_min":54,"x_max":708,"o":"m 697 0 l 256 0 q 106 47 156 0 q 56 156 57 93 q 77 252 54 210 q 153 325 100 294 l 447 500 q 443 493 443 496 q 445 489 443 492 q 451 486 447 486 l 83 486 l 83 694 l 507 694 q 656 648 607 694 q 707 539 706 601 q 685 443 708 485 q 610 369 663 401 l 315 194 q 318 199 318 197 q 315 205 318 201 q 308 208 313 208 l 697 208 l 697 0 m 493 796 l 246 796 l 422 1042 l 676 1042 l 493 796 z "},"ž":{"ha":763,"x_min":54,"x_max":708,"o":"m 697 0 l 256 0 q 106 47 156 0 q 56 156 57 93 q 77 252 54 210 q 153 325 100 294 l 447 500 q 443 493 443 496 q 445 489 443 492 q 451 486 447 486 l 83 486 l 83 694 l 507 694 q 656 648 607 694 q 707 539 706 601 q 685 443 708 485 q 610 369 663 401 l 315 194 q 318 199 318 197 q 315 205 318 201 q 308 208 313 208 l 697 208 l 697 0 m 176 890 l 69 1042 l 310 1042 l 383 938 q 383 933 388 932 q 381 938 378 933 l 454 1042 l 694 1042 l 588 890 q 497 814 551 839 q 382 789 442 789 q 267 814 322 789 q 176 890 213 839 z "},"ż":{"ha":763,"x_min":54,"x_max":708,"o":"m 697 0 l 256 0 q 106 47 156 0 q 56 156 57 93 q 77 252 54 210 q 153 325 100 294 l 447 500 q 443 493 443 496 q 445 489 443 492 q 451 486 447 486 l 83 486 l 83 694 l 507 694 q 656 648 607 694 q 707 539 706 601 q 685 443 708 485 q 610 369 663 401 l 315 194 q 318 199 318 197 q 315 205 318 201 q 308 208 313 208 l 697 208 l 697 0 m 382 768 q 307 788 342 768 q 252 843 272 808 q 232 918 232 878 q 252 994 232 960 q 307 1048 272 1028 q 382 1068 342 1068 q 458 1048 424 1068 q 512 994 492 1028 q 532 918 532 960 q 512 843 532 878 q 458 788 492 808 q 382 768 424 768 z "},"ﬁ":{"ha":926,"x_min":28,"x_max":854,"o":"m 604 694 l 854 694 l 854 0 l 604 0 l 604 694 m 396 0 l 146 0 l 146 699 q 182 867 146 792 q 292 986 218 942 q 478 1031 365 1031 q 549 1024 514 1031 q 611 1007 585 1018 l 611 767 q 557 788 586 781 q 501 794 528 794 q 424 767 453 794 q 396 690 396 740 l 396 0 m 750 486 l 28 486 l 28 694 l 750 694 l 750 486 z "},"ﬂ":{"ha":1007,"x_min":28,"x_max":910,"o":"m 396 0 l 146 0 l 146 685 q 188 856 146 778 q 310 983 231 935 q 499 1031 389 1031 q 606 1024 546 1031 q 729 996 667 1018 q 844 925 792 974 l 731 742 q 647 797 693 778 q 543 817 600 817 q 429 784 463 817 q 396 690 396 751 l 396 0 m 554 486 l 28 486 l 28 694 l 554 694 l 554 486 m 910 0 l 660 0 l 660 1014 l 910 1014 l 910 0 z "},"ª":{"ha":597,"x_min":33,"x_max":564,"o":"m 271 450 q 149 483 203 450 q 65 574 96 517 q 33 704 33 632 q 69 833 33 775 q 165 924 104 890 q 299 958 225 958 q 436 926 376 958 q 530 835 496 893 q 564 704 564 778 l 564 463 l 392 463 l 392 642 l 450 642 q 428 544 450 588 q 367 475 407 500 q 271 450 326 450 m 299 621 q 340 631 322 621 q 367 660 357 642 q 378 703 378 679 q 367 747 378 728 q 340 776 357 765 q 299 786 322 786 q 258 776 276 786 q 230 747 240 765 q 219 703 219 728 q 230 660 219 679 q 258 631 240 642 q 299 621 276 621 z "},"º":{"ha":663,"x_min":69,"x_max":593,"o":"m 331 454 q 198 488 257 454 q 104 580 139 522 q 69 707 69 638 q 104 833 69 776 q 198 924 139 890 q 331 958 257 958 q 465 924 406 958 q 558 833 524 890 q 593 707 593 776 q 558 580 593 638 q 465 488 524 522 q 331 454 406 454 m 331 621 q 374 633 356 621 q 403 664 393 644 q 414 706 414 683 q 403 749 414 729 q 374 779 393 768 q 331 790 356 790 q 288 779 307 790 q 259 749 269 768 q 249 706 249 729 q 259 664 249 683 q 288 633 269 644 q 331 621 307 621 z "},"Δ":{"ha":983,"x_min":74,"x_max":919,"o":"m 492 958 q 626 916 565 958 q 717 789 686 874 l 907 272 q 917 217 915 250 q 919 174 919 185 q 871 51 919 101 q 736 0 822 0 l 257 0 q 122 51 171 0 q 74 174 74 101 q 76 217 74 185 q 86 272 79 250 l 267 789 q 358 916 296 874 q 492 958 419 958 m 493 728 q 503 714 507 728 l 326 203 q 328 210 328 207 q 325 217 328 214 q 320 221 324 219 q 314 222 317 222 l 679 222 q 674 221 676 222 q 668 217 671 219 q 666 210 667 214 q 667 203 665 207 l 483 714 q 493 728 479 728 z "},"Ω":{"ha":975,"x_min":54,"x_max":921,"o":"m 488 958 q 721 905 628 958 q 860 760 814 851 q 906 551 906 668 q 883 414 906 479 q 828 297 860 349 q 771 211 796 244 q 772 218 772 215 q 772 225 772 221 q 769 233 772 229 q 760 236 767 236 l 921 236 l 921 0 l 728 0 q 583 42 633 0 q 533 156 533 83 q 539 207 533 179 q 557 265 544 235 q 588 336 568 290 q 625 433 608 382 q 642 524 642 485 q 623 617 642 579 q 570 675 604 656 q 488 694 536 694 q 406 675 440 694 q 352 617 371 656 q 333 524 333 579 q 351 433 333 485 q 388 336 368 382 q 418 265 408 290 q 435 207 429 235 q 442 156 442 179 q 392 42 442 83 q 247 0 342 0 l 54 0 l 54 236 l 215 236 q 206 233 210 236 q 203 225 203 229 q 203 218 203 221 q 204 211 203 215 q 148 297 179 244 q 93 414 117 349 q 69 551 69 479 q 115 760 69 668 q 254 905 161 851 q 488 958 347 958 z "},"μ":{"ha":842,"x_min":56,"x_max":786,"o":"m 57 403 l 246 221 q 294 1 281 99 q 307 -182 307 -97 l 307 -222 l 57 -222 l 57 403 m 421 222 q 487 244 461 222 q 524 303 513 267 q 536 383 536 340 l 536 694 l 786 694 l 786 353 q 746 166 786 251 q 625 30 706 81 q 421 -21 544 -21 q 217 30 299 -21 q 96 166 136 81 q 56 353 56 251 l 56 694 l 306 694 l 306 383 q 317 303 306 340 q 355 244 329 267 q 421 222 381 222 z "},"π":{"ha":1058,"x_min":22,"x_max":1038,"o":"m 839 -14 q 680 29 739 -14 q 594 144 621 72 q 568 304 568 217 l 569 694 l 813 694 l 813 292 q 827 236 813 257 q 871 215 842 215 q 912 222 894 215 q 944 239 929 228 l 1038 56 q 942 3 993 21 q 839 -14 892 -14 m 410 0 l 167 0 l 167 694 l 410 694 l 410 0 m 976 472 l 22 472 l 22 694 l 976 694 l 976 472 z "},"¹":{"ha":499,"x_min":14,"x_max":360,"o":"m 360 468 l 178 468 l 178 775 q 184 756 178 763 q 197 750 190 750 q 209 752 203 750 q 222 757 215 754 l 81 685 l 14 840 l 172 922 q 222 943 199 936 q 264 950 246 950 q 333 923 307 950 q 360 851 360 896 l 360 468 z "},"²":{"ha":496,"x_min":29,"x_max":447,"o":"m 447 468 l 149 468 q 73 498 100 468 q 46 565 46 528 q 57 611 46 589 q 92 647 68 633 l 215 721 q 255 749 242 736 q 268 776 268 763 q 256 799 268 792 q 229 806 244 806 q 180 791 203 806 q 146 756 157 776 l 29 832 q 117 922 67 893 q 239 950 168 950 q 380 908 325 950 q 435 796 435 867 q 407 708 435 744 q 336 647 379 671 l 199 571 q 213 590 213 579 q 206 603 213 597 q 186 608 199 608 l 447 608 l 447 468 z "},"³":{"ha":464,"x_min":28,"x_max":414,"o":"m 49 803 l 49 938 l 332 938 q 390 917 371 938 q 408 868 408 896 q 401 836 408 853 q 381 806 394 819 l 294 722 q 300 738 300 728 q 281 754 300 754 l 286 754 q 378 719 343 754 q 414 624 414 685 q 360 506 414 553 q 224 460 306 460 q 103 490 153 460 q 28 574 54 521 l 156 642 q 183 605 167 618 q 225 592 200 592 q 256 601 244 592 q 268 624 268 611 q 219 658 268 658 l 196 658 q 153 673 169 658 q 138 710 138 688 q 145 740 138 729 q 167 765 153 751 l 232 825 q 228 815 228 821 q 240 803 228 803 l 49 803 z "},"⁄":{"ha":833,"x_min":56,"x_max":744,"o":"m 56 0 l 522 938 l 744 938 l 278 0 l 56 0 z "},"½":{"ha":1168,"x_min":42,"x_max":1126,"o":"m 388 468 l 206 468 l 206 775 q 212 756 206 763 q 225 750 218 750 q 237 752 231 750 q 250 757 243 754 l 108 685 l 42 840 l 200 922 q 250 943 226 936 q 292 950 274 950 q 361 923 335 950 q 388 851 388 896 l 388 468 m 236 0 l 703 938 l 925 938 l 458 0 l 236 0 m 1126 0 l 828 0 q 752 30 779 0 q 725 97 725 60 q 736 143 725 121 q 771 179 747 165 l 894 253 q 934 281 921 268 q 947 308 947 294 q 935 331 947 324 q 908 338 924 338 q 859 323 882 338 q 825 288 836 308 l 708 364 q 797 453 746 425 q 918 482 847 482 q 1059 440 1004 482 q 1114 328 1114 399 q 1086 240 1114 276 q 1015 179 1058 203 l 878 103 q 892 122 892 111 q 885 135 892 129 q 865 140 878 140 l 1126 140 l 1126 0 z "},"¼":{"ha":1213,"x_min":42,"x_max":1143,"o":"m 1076 0 l 917 0 l 917 350 q 928 338 917 338 q 943 346 935 338 l 797 174 q 800 183 800 179 q 795 194 800 190 q 782 197 790 197 l 1143 197 l 1143 68 l 756 68 q 676 95 704 68 q 649 161 649 122 q 685 240 649 200 l 854 431 q 909 472 879 458 q 968 485 939 485 q 1044 456 1013 485 q 1076 371 1076 426 l 1076 0 m 388 468 l 206 468 l 206 775 q 212 756 206 763 q 225 750 218 750 q 237 752 231 750 q 250 757 243 754 l 108 685 l 42 840 l 200 922 q 250 943 226 936 q 292 950 274 950 q 361 923 335 950 q 388 851 388 896 l 388 468 m 236 0 l 703 938 l 925 938 l 458 0 l 236 0 z "},"¾":{"ha":1213,"x_min":28,"x_max":1143,"o":"m 1076 0 l 917 0 l 917 350 q 928 338 917 338 q 943 346 935 338 l 797 174 q 800 183 800 179 q 795 194 800 190 q 782 197 790 197 l 1143 197 l 1143 68 l 756 68 q 676 95 704 68 q 649 161 649 122 q 685 240 649 200 l 854 431 q 909 472 879 458 q 968 485 939 485 q 1044 456 1013 485 q 1076 371 1076 426 l 1076 0 m 49 803 l 49 938 l 332 938 q 390 917 371 938 q 408 868 408 896 q 401 836 408 853 q 381 806 394 819 l 294 722 q 300 738 300 728 q 281 754 300 754 l 286 754 q 378 719 343 754 q 414 624 414 685 q 360 506 414 553 q 224 460 306 460 q 103 490 153 460 q 28 574 54 521 l 156 642 q 183 605 167 618 q 225 592 200 592 q 256 601 244 592 q 268 624 268 611 q 219 658 268 658 l 196 658 q 153 673 169 658 q 138 710 138 688 q 145 740 138 729 q 167 765 153 751 l 232 825 q 228 815 228 821 q 240 803 228 803 l 49 803 m 236 0 l 703 938 l 925 938 l 458 0 l 236 0 z "},".":{"ha":494,"x_min":97,"x_max":397,"o":"m 247 -17 q 172 3 207 -17 q 117 58 138 24 q 97 133 97 93 q 117 209 97 175 q 172 263 138 243 q 247 283 207 283 q 323 263 289 283 q 377 209 357 243 q 397 133 397 175 q 377 58 397 93 q 323 3 357 24 q 247 -17 289 -17 z "},",":{"ha":494,"x_min":97,"x_max":397,"o":"m 283 -268 l 122 -268 l 172 133 l 392 93 l 283 -268 m 247 -17 q 172 3 207 -17 q 117 58 138 24 q 97 133 97 93 q 117 209 97 175 q 172 263 138 243 q 247 283 207 283 q 323 263 289 283 q 377 209 357 243 q 397 133 397 175 q 377 58 397 93 q 323 3 357 24 q 247 -17 289 -17 z "},":":{"ha":494,"x_min":97,"x_max":397,"o":"m 247 -17 q 172 3 207 -17 q 117 58 138 24 q 97 133 97 93 q 117 209 97 175 q 172 263 138 243 q 247 283 207 283 q 323 263 289 283 q 377 209 357 243 q 397 133 397 175 q 377 58 397 93 q 323 3 357 24 q 247 -17 289 -17 m 247 411 q 172 431 207 411 q 117 486 138 451 q 97 561 97 521 q 117 637 97 603 q 172 691 138 671 q 247 711 207 711 q 323 691 289 711 q 377 637 357 671 q 397 561 397 603 q 377 486 397 521 q 323 431 357 451 q 247 411 289 411 z "},";":{"ha":494,"x_min":97,"x_max":397,"o":"m 283 -268 l 122 -268 l 172 133 l 392 93 l 283 -268 m 247 -17 q 172 3 207 -17 q 117 58 138 24 q 97 133 97 93 q 117 209 97 175 q 172 263 138 243 q 247 283 207 283 q 323 263 289 283 q 377 209 357 243 q 397 133 397 175 q 377 58 397 93 q 323 3 357 24 q 247 -17 289 -17 m 247 411 q 172 431 207 411 q 117 486 138 451 q 97 561 97 521 q 117 637 97 603 q 172 691 138 671 q 247 711 207 711 q 323 691 289 711 q 377 637 357 671 q 397 561 397 603 q 377 486 397 521 q 323 431 357 451 q 247 411 289 411 z "},"…":{"ha":1383,"x_min":97,"x_max":1286,"o":"m 692 -17 q 617 3 651 -17 q 562 58 582 24 q 542 133 542 93 q 562 209 542 175 q 617 263 582 243 q 692 283 651 283 q 767 263 733 283 q 822 209 801 243 q 842 133 842 175 q 822 58 842 93 q 767 3 801 24 q 692 -17 733 -17 m 1136 -17 q 1061 3 1096 -17 q 1006 58 1026 24 q 986 133 986 93 q 1006 209 986 175 q 1061 263 1026 243 q 1136 283 1096 283 q 1212 263 1178 283 q 1266 209 1246 243 q 1286 133 1286 175 q 1266 58 1286 93 q 1212 3 1246 24 q 1136 -17 1178 -17 m 247 -17 q 172 3 207 -17 q 117 58 138 24 q 97 133 97 93 q 117 209 97 175 q 172 263 138 243 q 247 283 207 283 q 323 263 289 283 q 377 209 357 243 q 397 133 397 175 q 377 58 397 93 q 323 3 357 24 q 247 -17 289 -17 z "},"!":{"ha":536,"x_min":125,"x_max":411,"o":"m 144 938 l 401 938 l 401 329 l 144 329 l 144 938 m 268 -17 q 167 26 210 -17 q 125 126 125 68 q 167 227 125 185 q 268 269 210 269 q 369 227 326 269 q 411 126 411 185 q 369 26 411 68 q 268 -17 326 -17 z "},"¡":{"ha":536,"x_min":125,"x_max":411,"o":"m 401 365 l 401 -243 l 144 -243 l 144 365 l 401 365 m 268 711 q 369 669 326 711 q 411 568 411 626 q 369 467 411 510 q 268 425 326 425 q 167 467 210 425 q 125 568 125 510 q 167 669 125 626 q 268 711 210 711 z "},"?":{"ha":796,"x_min":-4,"x_max":706,"o":"m 501 329 l 219 329 q 242 413 221 379 q 296 472 264 447 q 360 518 328 497 q 413 563 392 539 q 435 617 435 586 q 424 656 435 639 q 393 683 413 674 q 347 693 374 693 q 266 667 300 693 q 210 597 232 640 l -4 719 q 71 836 21 782 q 194 924 121 890 q 357 957 267 957 q 540 918 461 957 q 662 810 618 879 q 706 651 706 742 q 685 542 706 586 q 634 469 664 499 q 574 418 604 440 q 522 376 543 396 q 501 329 501 356 m 354 -17 q 253 26 296 -17 q 211 126 211 68 q 253 227 211 185 q 354 269 296 269 q 455 227 413 269 q 497 126 497 185 q 455 26 497 68 q 354 -17 413 -17 z "},"¿":{"ha":824,"x_min":83,"x_max":810,"o":"m 294 365 l 576 365 q 554 281 576 315 q 499 222 532 247 q 432 176 465 197 q 376 133 399 156 q 354 78 354 110 q 365 38 354 56 q 397 11 376 21 q 446 1 418 1 q 527 29 492 1 q 578 101 563 57 l 810 -28 q 724 -149 779 -96 q 598 -233 669 -203 q 446 -262 526 -262 q 256 -224 338 -262 q 128 -115 174 -185 q 83 46 83 -46 q 105 156 83 111 q 158 230 126 200 q 220 281 189 260 q 273 322 251 303 q 294 365 294 342 m 442 711 q 542 669 500 711 q 585 568 585 626 q 542 467 585 510 q 442 425 500 425 q 341 467 383 425 q 299 568 299 510 q 341 669 299 626 q 442 711 383 711 z "},"·":{"ha":494,"x_min":97,"x_max":397,"o":"m 247 275 q 172 295 207 275 q 117 350 138 315 q 97 425 97 385 q 117 501 97 467 q 172 555 138 535 q 247 575 207 575 q 323 555 289 575 q 377 501 357 535 q 397 425 397 467 q 377 350 397 385 q 323 295 357 315 q 247 275 289 275 z "},"•":{"ha":689,"x_min":104,"x_max":585,"o":"m 344 185 q 224 217 279 185 q 137 305 169 250 q 104 425 104 360 q 137 546 104 492 q 224 633 169 600 q 344 665 279 665 q 465 633 411 665 q 552 546 519 600 q 585 425 585 492 q 552 305 585 360 q 465 217 519 250 q 344 185 411 185 z "},"*":{"ha":851,"x_min":97,"x_max":754,"o":"m 556 379 q 479 415 508 379 q 440 500 450 450 l 407 663 l 447 690 l 592 610 q 652 560 628 590 q 676 493 676 531 q 659 438 676 464 q 614 395 642 411 q 556 379 586 379 m 299 378 q 242 394 269 378 q 196 435 214 410 q 178 492 178 461 q 204 561 178 532 q 263 608 231 590 l 407 690 l 446 661 l 414 499 q 373 411 401 444 q 299 378 344 378 m 433 699 l 418 653 l 253 633 q 142 654 188 625 q 97 740 97 683 q 128 824 97 786 q 207 861 160 861 q 265 845 236 861 q 311 811 293 829 l 433 699 m 450 676 l 401 676 l 332 828 q 318 867 324 846 q 313 907 313 888 q 344 985 313 954 q 426 1015 375 1015 q 508 985 476 1015 q 539 908 539 954 q 533 867 539 888 q 519 828 528 847 l 450 676 m 433 654 l 419 700 l 540 813 q 592 847 563 832 q 647 863 621 863 q 724 826 693 863 q 754 742 754 790 q 731 675 754 701 q 672 639 708 649 q 599 635 636 629 l 433 654 z "},"#":{"ha":1260,"x_min":56,"x_max":1204,"o":"m 163 0 l 444 938 l 674 938 l 392 0 l 163 0 m 599 0 l 881 938 l 1110 938 l 828 0 l 599 0 m 1204 790 l 1204 575 l 139 575 l 139 790 l 1204 790 m 1121 356 l 1121 140 l 56 140 l 56 356 l 1121 356 z "},"/":{"ha":507,"x_min":-97,"x_max":535,"o":"m -97 -264 l 278 1014 l 535 1014 l 160 -264 l -97 -264 z "},"\\":{"ha":507,"x_min":-28,"x_max":604,"o":"m -28 1014 l 229 1014 l 604 -264 l 347 -264 l -28 1014 z "},"(":{"ha":586,"x_min":83,"x_max":554,"o":"m 83 375 q 140 665 83 533 q 303 888 197 796 q 554 1014 408 979 l 554 754 q 401 613 453 706 q 350 375 350 519 q 401 143 350 240 q 554 -3 453 46 l 554 -262 q 303 -133 408 -226 q 140 92 197 -40 q 83 375 83 224 z "},")":{"ha":586,"x_min":32,"x_max":503,"o":"m 503 375 q 446 92 503 224 q 283 -133 389 -40 q 32 -262 178 -226 l 32 -3 q 185 143 133 46 q 236 375 236 240 q 185 613 236 519 q 32 754 133 706 l 32 1014 q 283 888 178 979 q 446 665 389 796 q 503 375 503 533 z "},"{":{"ha":603,"x_min":69,"x_max":533,"o":"m 69 257 l 69 496 l 89 496 q 155 515 131 496 q 179 572 179 533 q 170 647 179 618 q 151 706 161 675 q 142 790 142 738 q 176 915 142 860 q 271 1001 211 969 q 406 1032 331 1032 q 533 1008 474 1032 l 533 758 q 499 781 518 774 q 461 789 481 789 q 416 771 433 789 q 399 726 399 753 q 410 661 399 689 q 431 606 421 633 q 442 536 442 578 q 384 419 442 471 q 218 368 326 368 l 218 385 q 384 333 326 385 q 442 217 442 282 q 431 148 442 176 q 410 92 421 119 q 399 26 399 65 q 416 -18 399 0 q 461 -36 433 -36 q 499 -28 481 -36 q 533 -6 518 -19 l 533 -256 q 406 -279 474 -279 q 271 -248 331 -279 q 176 -162 211 -217 q 142 -37 142 -107 q 151 47 142 17 q 170 106 161 78 q 179 181 179 135 q 155 239 179 221 q 89 257 131 257 l 69 257 z "},"}":{"ha":603,"x_min":69,"x_max":533,"o":"m 514 496 l 533 496 l 533 257 l 514 257 q 448 239 472 257 q 424 181 424 221 q 433 106 424 135 q 452 47 443 78 q 461 -37 461 17 q 426 -162 461 -107 q 333 -248 392 -217 q 197 -279 274 -279 q 69 -256 129 -279 l 69 -6 q 103 -28 85 -19 q 142 -36 122 -36 q 187 -18 169 -36 q 204 26 204 0 q 194 92 204 65 q 172 148 183 119 q 161 217 161 176 q 219 333 161 282 q 385 385 276 385 l 385 368 q 219 419 276 368 q 161 536 161 471 q 172 606 161 578 q 194 661 183 633 q 204 726 204 689 q 187 771 204 753 q 142 789 169 789 q 103 781 122 789 q 69 758 85 774 l 69 1008 q 197 1032 129 1032 q 333 1001 274 1032 q 426 915 392 969 q 461 790 461 860 q 452 706 461 738 q 433 647 443 675 q 424 572 424 618 q 448 515 424 533 q 514 496 472 496 z "},"[":{"ha":613,"x_min":111,"x_max":557,"o":"m 557 -264 l 333 -264 q 163 -206 215 -264 q 111 -49 111 -147 l 111 778 q 163 935 111 876 q 333 993 215 993 l 550 993 l 550 757 l 368 757 l 368 -35 l 557 -35 l 557 -264 z "},"]":{"ha":613,"x_min":56,"x_max":501,"o":"m 279 -264 l 56 -264 l 56 -35 l 244 -35 l 244 757 l 63 757 l 63 993 l 279 993 q 450 935 399 993 q 501 778 501 876 l 501 -49 q 450 -206 501 -147 q 279 -264 399 -264 z "},"-":{"ha":843,"x_min":153,"x_max":690,"o":"m 690 536 l 690 314 l 153 314 l 153 536 l 690 536 z "},"–":{"ha":1028,"x_min":153,"x_max":875,"o":"m 875 536 l 875 314 l 153 314 l 153 536 l 875 536 z "},"—":{"ha":1375,"x_min":153,"x_max":1222,"o":"m 1222 536 l 1222 314 l 153 314 l 153 536 l 1222 536 z "},"_":{"ha":732,"x_min":28,"x_max":704,"o":"m 704 -17 l 704 -239 l 28 -239 l 28 -17 l 704 -17 z "},"‚":{"ha":497,"x_min":97,"x_max":400,"o":"m 258 -199 l 97 -199 l 175 133 l 385 68 l 258 -199 m 250 -17 q 175 3 210 -17 q 120 58 140 24 q 100 133 100 93 q 120 209 100 175 q 175 263 140 243 q 250 283 210 283 q 326 263 292 283 q 380 209 360 243 q 400 133 400 175 q 380 58 400 93 q 326 3 360 24 q 250 -17 292 -17 z "},"„":{"ha":847,"x_min":97,"x_max":750,"o":"m 258 -199 l 97 -199 l 175 133 l 385 68 l 258 -199 m 250 -17 q 175 3 210 -17 q 120 58 140 24 q 100 133 100 93 q 120 209 100 175 q 175 263 140 243 q 250 283 210 283 q 326 263 292 283 q 380 209 360 243 q 400 133 400 175 q 380 58 400 93 q 326 3 360 24 q 250 -17 292 -17 m 608 -199 l 447 -199 l 525 133 l 735 68 l 608 -199 m 600 -17 q 525 3 560 -17 q 470 58 490 24 q 450 133 450 93 q 470 209 450 175 q 525 263 490 243 q 600 283 560 283 q 676 263 642 283 q 730 209 710 243 q 750 133 750 175 q 730 58 750 93 q 676 3 710 24 q 600 -17 642 -17 z "},"“":{"ha":847,"x_min":97,"x_max":750,"o":"m 239 992 l 400 992 l 322 660 l 113 725 l 239 992 m 247 810 q 323 790 289 810 q 377 735 357 769 q 397 660 397 701 q 377 585 397 619 q 323 530 357 550 q 247 510 289 510 q 172 530 207 510 q 117 585 138 550 q 97 660 97 619 q 117 735 97 701 q 172 790 138 769 q 247 810 207 810 m 589 992 l 750 992 l 672 660 l 463 725 l 589 992 m 597 810 q 673 790 639 810 q 727 735 707 769 q 747 660 747 701 q 727 585 747 619 q 673 530 707 550 q 597 510 639 510 q 522 530 557 510 q 467 585 488 550 q 447 660 447 619 q 467 735 447 701 q 522 790 488 769 q 597 810 557 810 z "},"”":{"ha":861,"x_min":97,"x_max":764,"o":"m 258 510 l 97 510 l 175 842 l 385 776 l 258 510 m 250 692 q 175 712 210 692 q 120 767 140 732 q 100 842 100 801 q 120 917 100 883 q 175 972 140 951 q 250 992 210 992 q 326 972 292 992 q 380 917 360 951 q 400 842 400 883 q 380 767 400 801 q 326 712 360 732 q 250 692 292 692 m 622 510 l 461 510 l 539 842 l 749 776 l 622 510 m 614 692 q 539 712 574 692 q 484 767 504 732 q 464 842 464 801 q 484 917 464 883 q 539 972 504 951 q 614 992 574 992 q 690 972 656 992 q 744 917 724 951 q 764 842 764 883 q 744 767 764 801 q 690 712 724 732 q 614 692 656 692 z "},"‘":{"ha":497,"x_min":97,"x_max":400,"o":"m 239 992 l 400 992 l 322 660 l 113 725 l 239 992 m 247 810 q 323 790 289 810 q 377 735 357 769 q 397 660 397 701 q 377 585 397 619 q 323 530 357 550 q 247 510 289 510 q 172 530 207 510 q 117 585 138 550 q 97 660 97 619 q 117 735 97 701 q 172 790 138 769 q 247 810 207 810 z "},"’":{"ha":497,"x_min":97,"x_max":400,"o":"m 258 510 l 97 510 l 175 842 l 385 776 l 258 510 m 250 692 q 175 712 210 692 q 120 767 140 732 q 100 842 100 801 q 120 917 100 883 q 175 972 140 951 q 250 992 210 992 q 326 972 292 992 q 380 917 360 951 q 400 842 400 883 q 380 767 400 801 q 326 712 360 732 q 250 692 292 692 z "},"«":{"ha":1104,"x_min":83,"x_max":965,"o":"m 750 210 l 965 90 l 965 340 l 768 460 q 745 464 754 468 q 736 450 736 460 q 746 435 736 439 q 768 438 756 431 l 965 557 l 965 807 l 750 688 q 597 572 639 626 q 556 449 556 517 q 597 326 556 381 q 750 210 639 271 m 278 210 l 493 90 l 493 340 l 296 460 q 273 464 282 468 q 264 450 264 460 q 274 435 264 439 q 296 438 283 431 l 493 557 l 493 807 l 278 688 q 125 572 167 626 q 83 449 83 517 q 125 326 83 381 q 278 210 167 271 z "},"»":{"ha":1104,"x_min":139,"x_max":1021,"o":"m 354 210 l 139 90 l 139 340 l 336 460 q 360 464 351 468 q 368 450 368 460 q 358 435 368 439 q 336 438 349 431 l 139 557 l 139 807 l 354 688 q 507 572 465 626 q 549 449 549 517 q 507 326 549 381 q 354 210 465 271 m 826 210 l 611 90 l 611 340 l 808 460 q 832 464 824 468 q 840 450 840 460 q 831 435 840 439 q 808 438 821 431 l 611 557 l 611 807 l 826 688 q 979 572 938 626 q 1021 449 1021 517 q 979 326 1021 381 q 826 210 938 271 z "},"‹":{"ha":632,"x_min":83,"x_max":493,"o":"m 493 340 l 493 90 l 278 210 q 125 326 167 271 q 83 449 83 381 q 125 572 83 517 q 278 688 167 626 l 493 807 l 493 557 l 296 438 q 274 435 283 431 q 264 450 264 439 q 273 464 264 460 q 296 460 282 468 l 493 340 z "},"›":{"ha":632,"x_min":139,"x_max":549,"o":"m 354 210 l 139 90 l 139 340 l 336 460 q 360 464 351 468 q 368 450 368 460 q 358 435 368 439 q 336 438 349 431 l 139 557 l 139 807 l 354 688 q 507 572 465 626 q 549 449 549 517 q 507 326 549 381 q 354 210 465 271 z "},"\"":{"ha":826,"x_min":97,"x_max":729,"o":"m 340 992 l 340 510 l 97 510 l 97 992 l 340 992 m 729 992 l 729 510 l 486 510 l 486 992 l 729 992 z "},"'":{"ha":438,"x_min":97,"x_max":340,"o":"m 340 992 l 340 510 l 97 510 l 97 992 l 340 992 z "},"¢":{"ha":782,"x_min":42,"x_max":754,"o":"m 521 854 l 521 510 l 278 510 l 278 854 l 521 854 m 521 186 l 521 -158 l 278 -158 l 278 186 l 521 186 m 424 -19 q 273 8 343 -21 q 151 88 203 38 q 71 206 100 139 q 42 349 42 274 q 71 491 42 424 q 151 609 100 558 q 273 688 203 660 q 424 715 343 717 q 617 665 528 714 q 754 508 707 615 l 547 397 q 499 457 531 433 q 424 481 467 481 q 355 463 385 481 q 308 416 325 446 q 292 349 292 386 q 308 282 292 313 q 355 233 325 251 q 424 215 385 215 q 499 240 467 215 q 547 299 531 264 l 754 188 q 617 31 707 81 q 424 -19 528 -18 z "},"¤":{"ha":946,"x_min":42,"x_max":904,"o":"m 472 90 q 278 140 364 90 q 141 274 192 190 q 90 460 90 358 q 141 644 90 561 q 278 776 192 726 q 472 826 364 826 q 667 776 581 826 q 804 644 754 726 q 854 460 854 561 q 804 274 854 358 q 667 140 754 190 q 472 90 581 90 m 389 188 l 224 22 l 42 204 l 211 374 l 389 188 m 904 204 l 722 22 l 553 190 l 738 371 l 904 204 m 472 325 q 542 343 513 325 q 588 392 571 361 q 604 458 604 422 q 588 526 604 496 q 542 574 571 556 q 472 592 513 592 q 403 574 433 592 q 357 526 374 556 q 340 458 340 496 q 357 392 340 422 q 403 343 374 361 q 472 325 433 325 m 378 743 l 200 557 l 42 715 l 224 897 l 378 743 m 890 715 l 742 567 l 557 747 l 708 897 l 890 715 z "},"$":{"ha":861,"x_min":51,"x_max":808,"o":"m 561 1090 l 561 746 l 318 746 l 318 1090 l 561 1090 m 543 190 l 543 -154 l 300 -154 l 300 190 l 543 190 m 432 -22 q 199 32 299 -22 q 51 190 100 86 l 265 297 q 326 234 285 254 q 432 214 367 214 q 493 221 467 214 q 535 242 519 228 q 551 279 551 257 q 534 321 551 307 q 485 342 517 335 q 411 356 454 350 q 299 380 358 364 q 185 428 239 396 q 99 516 132 461 q 65 654 65 571 q 113 809 65 740 q 242 918 160 878 q 428 958 324 958 q 649 904 551 958 q 794 746 747 850 l 581 639 q 522 698 561 674 q 417 722 482 722 q 365 716 386 722 q 333 697 344 710 q 322 664 322 683 q 342 622 322 638 q 395 597 361 606 q 475 581 429 588 q 585 556 528 572 q 694 508 643 540 q 776 421 744 475 q 808 282 808 367 q 758 127 808 196 q 622 18 707 58 q 432 -22 536 -22 z "},"€":{"ha":972,"x_min":28,"x_max":965,"o":"m 585 -21 q 353 40 456 -21 q 191 212 250 101 q 132 468 132 322 q 166 668 132 578 q 260 823 200 758 q 402 922 321 888 q 578 957 483 957 q 822 890 726 957 q 958 722 917 824 l 751 603 q 689 684 733 647 q 571 721 644 721 q 488 702 524 721 q 429 650 453 683 q 394 570 406 617 q 382 468 382 524 q 405 331 382 388 q 472 244 428 274 q 578 215 515 215 q 696 252 651 215 q 758 333 740 289 l 965 214 q 828 46 924 113 q 585 -21 733 -21 m 600 288 l 28 288 l 28 440 l 600 440 l 600 288 m 600 496 l 28 496 l 28 663 l 600 663 l 600 496 z "},"ƒ":{"ha":585,"x_min":-111,"x_max":761,"o":"m 664 319 l 26 319 l 26 528 l 664 528 l 664 319 m 43 -281 q -40 -273 1 -281 q -111 -249 -81 -265 l -111 -14 q -56 -36 -86 -28 q 7 -44 -25 -44 q 98 -12 64 -44 q 142 76 132 21 l 250 700 q 365 944 278 857 q 607 1032 451 1032 q 690 1024 649 1032 q 761 1000 731 1017 l 761 765 q 706 788 736 779 q 643 796 675 796 q 553 763 588 796 q 508 675 518 731 l 400 51 q 286 -192 374 -104 q 43 -281 199 -281 z "},"£":{"ha":856,"x_min":83,"x_max":842,"o":"m 656 392 l 83 392 l 83 544 l 656 544 l 656 392 m 504 722 q 447 708 469 722 q 415 674 425 694 q 404 635 404 654 q 419 579 404 604 q 451 528 433 554 q 488 464 472 499 q 503 381 503 429 q 492 312 503 344 q 462 254 481 279 q 419 217 443 229 q 424 223 422 219 q 426 228 426 226 q 418 236 426 236 l 796 236 l 796 0 l 319 0 q 149 40 201 0 q 97 146 97 81 q 124 226 97 194 q 181 286 150 258 q 215 322 199 304 q 242 359 232 339 q 253 403 253 379 q 240 458 253 435 q 210 507 226 482 q 167 576 188 538 q 147 678 147 615 q 187 817 147 753 q 303 919 226 881 q 488 958 379 958 q 709 897 619 958 q 842 738 799 835 l 638 622 q 588 694 622 665 q 504 722 553 722 z "},"¥":{"ha":1025,"x_min":56,"x_max":969,"o":"m 464 149 l 90 149 l 90 301 l 464 301 l 464 149 m 325 426 l 90 426 l 90 579 l 325 579 l 325 426 m 940 149 l 575 149 l 575 301 l 940 301 l 940 149 m 940 426 l 714 426 l 714 579 l 940 579 l 940 426 m 643 0 l 386 0 l 386 410 l 643 410 l 643 0 m 283 404 l 56 938 l 332 938 l 517 475 q 518 467 519 469 q 514 465 517 465 q 510 468 511 465 q 511 475 510 471 l 693 938 l 969 938 l 742 404 q 644 282 707 324 q 513 240 582 240 q 382 282 444 240 q 283 404 319 324 z "},"+":{"ha":951,"x_min":97,"x_max":854,"o":"m 347 835 l 604 835 l 604 99 l 347 99 l 347 835 m 854 585 l 854 349 l 97 349 l 97 585 l 854 585 z "},"−":{"ha":896,"x_min":97,"x_max":799,"o":"m 799 585 l 799 349 l 97 349 l 97 585 l 799 585 z "},"×":{"ha":960,"x_min":97,"x_max":863,"o":"m 863 265 l 681 83 l 97 665 l 279 847 l 863 265 m 863 665 l 279 83 l 97 265 l 681 847 l 863 665 z "},"÷":{"ha":924,"x_min":97,"x_max":826,"o":"m 826 585 l 826 349 l 97 349 l 97 585 l 826 585 m 469 35 q 374 75 414 35 q 333 171 333 115 q 374 267 333 228 q 469 307 414 307 q 566 267 526 307 q 606 171 606 228 q 566 75 606 115 q 469 35 526 35 m 469 625 q 374 665 414 625 q 333 761 333 706 q 374 858 333 818 q 469 897 414 897 q 566 858 526 897 q 606 761 606 818 q 566 665 606 706 q 469 625 526 625 z "},"=":{"ha":896,"x_min":97,"x_max":799,"o":"m 799 779 l 799 543 l 97 543 l 97 779 l 799 779 m 799 390 l 799 154 l 97 154 l 97 390 l 799 390 z "},"≠":{"ha":896,"x_min":97,"x_max":799,"o":"m 132 28 l 557 910 l 793 910 l 368 28 l 132 28 m 799 779 l 799 543 l 97 543 l 97 779 l 799 779 m 799 390 l 799 154 l 97 154 l 97 390 l 799 390 z "},">":{"ha":868,"x_min":111,"x_max":785,"o":"m 590 228 l 111 88 l 111 351 l 572 478 q 596 480 588 482 q 604 468 604 478 q 595 454 604 457 q 572 456 586 451 l 111 582 l 111 846 l 590 706 q 713 643 671 682 q 769 558 754 604 q 785 467 785 513 q 769 376 785 422 q 713 290 754 329 q 590 228 671 251 z "},"<":{"ha":868,"x_min":83,"x_max":757,"o":"m 757 351 l 757 88 l 278 228 q 156 290 197 251 q 99 376 114 329 q 83 467 83 422 q 99 558 83 513 q 156 643 114 604 q 278 706 197 682 l 757 846 l 757 582 l 296 456 q 273 454 282 451 q 264 468 264 457 q 272 480 264 478 q 296 478 281 482 l 757 351 z "},"≥":{"ha":868,"x_min":111,"x_max":785,"o":"m 774 85 l 111 85 l 111 293 l 774 293 l 774 85 m 590 367 l 111 254 l 111 476 l 572 575 q 596 576 588 578 q 604 565 604 575 q 595 552 604 554 q 572 553 586 550 l 111 651 l 111 874 l 590 761 q 744 683 704 735 q 785 564 785 632 q 744 445 785 496 q 590 367 704 394 z "},"≤":{"ha":868,"x_min":83,"x_max":757,"o":"m 757 293 l 757 85 l 94 85 l 94 293 l 757 293 m 757 476 l 757 254 l 278 367 q 124 445 164 394 q 83 564 83 496 q 124 683 83 632 q 278 761 164 735 l 757 874 l 757 651 l 296 553 q 273 552 282 550 q 264 565 264 554 q 272 576 264 575 q 296 575 281 578 l 757 476 z "},"±":{"ha":929,"x_min":111,"x_max":818,"o":"m 339 904 l 596 904 l 596 293 l 339 293 l 339 904 m 818 696 l 818 460 l 117 460 l 117 696 l 818 696 m 801 238 l 801 1 l 111 1 l 111 238 l 801 238 z "},"≈":{"ha":974,"x_min":69,"x_max":904,"o":"m 657 810 l 904 742 q 874 615 903 674 q 792 522 844 557 q 664 486 739 486 q 578 494 617 486 q 507 514 540 503 q 443 533 474 525 q 379 542 413 542 q 335 525 350 542 q 317 483 319 508 l 69 551 q 100 678 71 621 q 183 772 129 736 q 310 807 236 807 q 392 799 354 807 q 463 778 429 790 q 528 758 497 767 q 590 750 560 750 q 639 767 624 750 q 657 810 654 783 m 317 122 l 69 190 q 100 317 71 260 q 183 410 129 375 q 310 446 236 446 q 392 438 354 446 q 463 417 429 429 q 528 397 497 406 q 590 389 560 389 q 639 406 624 389 q 657 449 654 422 l 904 381 q 874 254 903 313 q 792 160 844 196 q 664 125 739 125 q 578 133 617 125 q 507 153 540 142 q 443 172 474 164 q 379 181 413 181 q 335 164 350 181 q 317 122 319 147 z "},"~":{"ha":1015,"x_min":69,"x_max":946,"o":"m 331 254 l 69 322 q 100 463 71 399 q 183 566 129 526 q 310 606 236 606 q 398 598 356 606 q 478 581 440 590 q 551 563 517 571 q 614 556 585 556 q 667 576 650 556 q 685 622 683 596 l 946 554 q 915 415 944 479 q 833 310 886 350 q 706 271 781 271 q 615 278 657 271 q 537 296 574 286 q 467 313 500 306 q 401 321 433 321 q 350 301 367 321 q 331 254 333 281 z "},"¬":{"ha":917,"x_min":97,"x_max":819,"o":"m 819 536 l 819 314 l 97 314 l 97 536 l 819 536 m 563 432 l 819 432 l 819 99 l 563 99 l 563 432 z "},"^":{"ha":801,"x_min":28,"x_max":774,"o":"m 286 432 l 28 432 l 203 807 q 289 914 236 878 q 399 950 342 950 q 508 915 456 950 q 594 807 560 879 l 774 432 l 519 432 l 390 701 q 391 713 389 707 q 400 718 393 718 q 410 713 407 718 q 410 701 413 707 l 286 432 z "},"∞":{"ha":1242,"x_min":97,"x_max":1144,"o":"m 415 104 q 249 144 321 104 q 137 260 176 185 q 97 439 97 335 q 132 610 97 532 q 233 737 167 689 q 394 785 300 785 q 583 720 510 785 q 686 536 656 656 l 531 394 q 497 517 526 472 q 422 563 468 563 q 376 545 394 563 q 349 499 358 528 q 340 435 340 469 q 349 379 340 404 q 375 340 358 354 q 415 326 392 326 q 462 351 444 326 q 492 417 479 376 q 519 507 506 458 q 554 604 533 556 q 608 694 575 653 q 693 760 642 735 q 819 785 744 785 q 988 744 915 785 q 1103 629 1061 704 q 1144 450 1144 554 q 1109 277 1144 356 q 1006 151 1074 199 q 836 104 938 104 q 659 168 726 104 q 551 361 592 232 l 711 494 q 736 375 707 424 q 819 326 765 326 q 863 342 844 326 q 892 385 882 358 q 901 447 901 413 q 894 506 901 481 q 870 547 886 532 q 828 563 854 563 q 778 538 797 563 q 745 472 758 513 q 717 382 732 431 q 682 285 703 333 q 628 195 661 236 q 543 129 594 154 q 415 104 492 104 z "},"∫":{"ha":836,"x_min":-132,"x_max":883,"o":"m 179 -306 q -13 -255 69 -306 q -132 -115 -96 -204 l 75 3 q 111 -50 88 -31 q 171 -69 135 -69 q 231 -39 211 -69 q 251 31 251 -8 l 251 699 q 287 867 251 792 q 394 986 322 942 q 574 1031 467 1031 q 764 981 682 1031 q 883 840 846 931 l 676 722 q 641 775 664 756 q 582 794 618 794 q 522 765 543 794 q 501 694 501 735 l 501 26 q 466 -141 501 -65 q 359 -261 431 -217 q 179 -306 288 -306 z "},"∏":{"ha":1132,"x_min":125,"x_max":1007,"o":"m 1007 -236 l 750 -236 l 750 1014 l 1007 1014 l 1007 -236 m 382 -236 l 125 -236 l 125 1014 l 382 1014 l 382 -236 m 838 778 l 300 778 l 300 1014 l 838 1014 l 838 778 z "},"∑":{"ha":839,"x_min":69,"x_max":769,"o":"m 769 -250 l 319 -250 q 181 -221 236 -250 q 97 -143 125 -192 q 69 -39 69 -94 q 96 72 69 15 q 174 172 122 128 l 440 403 q 426 375 426 392 q 430 361 426 368 q 440 347 433 354 l 174 578 q 96 678 122 622 q 69 789 69 735 q 97 894 69 846 q 181 971 125 942 q 319 1000 236 1000 l 769 1000 l 769 771 l 325 771 q 338 774 333 771 q 343 782 343 776 q 331 801 343 790 l 578 588 q 659 488 632 543 q 686 376 686 433 q 660 266 686 321 q 578 163 633 211 l 331 -51 q 342 -33 342 -42 q 337 -24 342 -28 q 325 -21 332 -21 l 769 -21 l 769 -250 z "},"√":{"ha":1174,"x_min":56,"x_max":1160,"o":"m 439 138 l 322 475 q 344 458 329 458 q 360 461 349 458 l 138 376 l 56 603 l 267 685 q 401 717 347 717 q 483 689 450 717 q 538 596 515 661 l 614 375 q 638 293 632 325 q 644 250 643 261 q 650 239 646 239 q 656 250 654 239 q 663 293 658 261 q 685 376 668 325 l 893 1014 l 1160 1014 l 860 138 q 774 18 833 58 q 650 -22 715 -22 q 526 18 585 -22 q 439 138 467 58 z "},"∂":{"ha":847,"x_min":49,"x_max":821,"o":"m 407 -22 q 223 19 304 -22 q 95 138 142 61 q 49 315 49 214 q 93 470 49 400 q 211 583 138 540 q 372 625 285 625 q 506 599 444 625 q 606 529 568 574 q 644 431 644 485 l 536 465 q 549 519 544 493 q 553 568 553 544 q 534 673 553 626 q 479 747 515 719 q 389 774 443 774 q 306 757 338 774 q 246 701 275 740 l 57 868 q 197 984 108 938 q 392 1031 285 1031 q 581 990 500 1031 q 715 878 663 950 q 794 713 768 806 q 821 513 821 619 q 792 298 821 396 q 708 128 763 200 q 578 17 654 57 q 407 -22 501 -22 m 417 199 q 479 215 453 199 q 520 256 506 231 q 535 311 535 282 q 520 367 535 340 q 479 409 506 393 q 417 425 453 425 q 355 410 382 425 q 313 369 328 394 q 299 314 299 343 q 313 258 299 285 q 355 215 328 232 q 417 199 382 199 z "},"%":{"ha":1317,"x_min":35,"x_max":1282,"o":"m 542 0 l 292 0 l 772 938 l 1022 938 l 542 0 m 272 406 q 148 441 201 406 q 65 538 94 476 q 35 676 35 599 q 65 817 35 756 q 148 915 94 879 q 272 950 201 950 q 397 915 344 950 q 480 817 450 879 q 510 676 510 756 q 480 538 510 599 q 397 441 450 476 q 272 406 344 406 m 272 572 q 306 585 292 572 q 328 622 321 599 q 336 676 336 646 q 319 754 336 725 q 272 783 301 783 q 226 754 243 783 q 208 676 208 725 q 226 601 208 629 q 272 572 243 572 m 1044 -14 q 920 22 974 -14 q 837 118 867 57 q 807 257 807 179 q 837 398 807 336 q 920 495 867 460 q 1044 531 974 531 q 1169 495 1117 531 q 1252 398 1222 460 q 1282 257 1282 336 q 1252 118 1282 179 q 1169 22 1222 57 q 1044 -14 1117 -14 m 1044 153 q 1078 166 1064 153 q 1101 203 1093 179 q 1108 257 1108 226 q 1091 335 1108 306 q 1044 364 1074 364 q 998 335 1015 364 q 981 257 981 306 q 998 181 981 210 q 1044 153 1015 153 z "},"‰":{"ha":1858,"x_min":35,"x_max":1824,"o":"m 542 0 l 292 0 l 772 936 l 1022 936 l 542 0 m 272 406 q 148 441 201 406 q 65 538 94 476 q 35 676 35 599 q 65 817 35 756 q 148 915 94 879 q 272 950 201 950 q 397 915 344 950 q 480 817 450 879 q 510 676 510 756 q 480 538 510 599 q 397 441 450 476 q 272 406 344 406 m 272 572 q 306 585 292 572 q 328 622 321 599 q 336 676 336 646 q 319 754 336 725 q 272 783 301 783 q 226 754 243 783 q 208 676 208 725 q 226 601 208 629 q 272 572 243 572 m 1044 -14 q 920 22 974 -14 q 837 118 867 57 q 807 257 807 179 q 837 398 807 336 q 920 495 867 460 q 1044 531 974 531 q 1169 495 1117 531 q 1252 398 1222 460 q 1282 257 1282 336 q 1252 118 1282 179 q 1169 22 1222 57 q 1044 -14 1117 -14 m 1044 153 q 1078 166 1064 153 q 1101 203 1093 179 q 1108 257 1108 226 q 1091 335 1108 306 q 1044 364 1074 364 q 998 335 1015 364 q 981 257 981 306 q 998 181 981 210 q 1044 153 1015 153 m 1586 -14 q 1462 22 1515 -14 q 1378 118 1408 57 q 1349 257 1349 179 q 1378 398 1349 336 q 1462 495 1408 460 q 1586 531 1515 531 q 1711 495 1658 531 q 1794 398 1764 460 q 1824 257 1824 336 q 1794 118 1824 179 q 1711 22 1764 57 q 1586 -14 1658 -14 m 1586 153 q 1620 166 1606 153 q 1642 203 1635 179 q 1650 257 1650 226 q 1633 335 1650 306 q 1586 364 1615 364 q 1540 335 1557 364 q 1522 257 1522 306 q 1540 181 1522 210 q 1586 153 1557 153 z "},"◊":{"ha":850,"x_min":58,"x_max":792,"o":"m 421 -12 q 317 22 368 -12 q 231 125 267 57 l 93 382 q 67 444 76 414 q 58 504 58 474 q 70 578 58 540 q 106 660 82 615 l 231 893 q 317 997 267 963 q 421 1031 368 1031 q 524 997 474 1031 q 614 893 575 963 l 743 660 q 792 506 792 572 q 783 444 792 475 q 756 382 774 414 l 614 125 q 524 22 575 56 q 421 -12 474 -12 m 425 247 q 418 242 422 247 l 571 519 q 569 515 569 518 q 568 510 568 513 q 569 504 568 507 q 571 499 569 501 l 415 781 q 422 775 419 775 q 431 781 426 775 l 283 499 q 285 504 285 501 q 286 510 286 507 q 285 515 286 513 q 283 519 285 518 l 432 242 q 425 247 428 247 z "},"@":{"ha":1546,"x_min":90,"x_max":1456,"o":"m 732 26 q 579 68 646 26 q 476 181 513 110 q 439 338 439 251 q 484 503 439 428 q 606 623 529 578 q 778 668 682 668 q 950 628 876 668 q 1065 522 1024 589 q 1107 369 1107 454 l 1107 224 l 1133 224 q 1197 244 1169 224 q 1239 306 1224 265 q 1254 406 1254 346 q 1223 555 1254 483 q 1133 684 1192 626 q 988 775 1074 742 q 793 808 901 808 q 587 770 679 808 q 428 665 494 732 q 327 511 363 599 q 292 325 292 424 q 322 151 292 232 q 407 11 351 71 q 538 -83 463 -49 q 706 -117 614 -117 q 842 -100 779 -117 q 975 -44 904 -83 l 1058 -206 q 877 -283 969 -261 q 693 -304 785 -304 q 451 -256 561 -304 q 260 -123 340 -208 q 135 76 179 -37 q 90 321 90 190 q 142 585 90 463 q 290 800 194 708 q 513 944 385 892 q 796 996 642 996 q 1061 950 940 996 q 1270 823 1182 904 q 1407 635 1358 742 q 1456 408 1456 529 q 1411 213 1456 296 q 1292 83 1367 129 q 1126 36 1217 36 l 925 36 l 925 285 l 986 257 q 952 132 986 183 q 860 53 918 81 q 732 26 803 26 m 771 231 q 832 247 806 231 q 873 292 858 264 q 888 350 888 319 q 874 408 888 382 q 835 449 860 433 q 775 464 810 464 q 714 448 740 464 q 673 405 688 432 q 658 344 658 378 q 672 288 658 314 q 712 246 686 261 q 771 231 738 231 z "},"&":{"ha":1099,"x_min":56,"x_max":1085,"o":"m 328 563 l 449 394 q 381 378 410 392 q 338 341 353 364 q 324 289 324 318 q 338 242 324 264 q 378 208 351 221 q 444 196 406 196 q 593 244 524 196 q 713 368 663 292 q 789 531 764 444 l 1003 433 q 874 204 954 307 q 678 40 793 101 q 415 -21 564 -21 q 221 17 301 -21 q 98 123 140 56 q 56 276 56 190 q 83 392 56 336 q 171 494 111 449 q 328 563 231 539 m 560 715 q 519 706 535 715 q 497 683 504 697 q 489 654 489 669 q 518 587 489 624 q 614 482 547 550 l 1085 0 l 739 0 l 404 353 q 317 452 360 400 q 245 561 274 504 q 217 681 217 618 q 256 822 217 760 q 365 922 294 885 q 529 958 435 958 q 739 903 650 958 q 874 749 828 849 l 672 631 q 624 692 654 669 q 560 715 594 715 z "},"¶":{"ha":1174,"x_min":42,"x_max":1007,"o":"m 497 278 l 424 278 q 229 328 315 278 q 92 462 143 378 q 42 647 42 546 q 92 831 42 749 q 229 964 143 914 q 424 1014 315 1014 l 497 1014 l 497 278 m 646 -194 l 424 -194 l 424 1014 l 646 1014 l 646 -194 m 1007 -194 l 785 -194 l 785 1014 l 1007 1014 l 1007 -194 z "},"§":{"ha":857,"x_min":63,"x_max":903,"o":"m 733 90 l 588 231 q 644 283 628 251 q 660 339 660 315 q 631 395 660 374 q 556 432 603 417 q 452 461 508 447 q 340 494 396 475 q 236 545 283 514 q 160 624 189 576 q 132 742 132 671 q 178 895 132 831 q 307 996 225 960 q 494 1032 389 1032 q 703 978 607 1032 q 847 819 800 924 l 640 713 q 578 775 621 747 q 483 803 535 803 q 426 794 451 803 q 388 772 401 786 q 375 735 375 757 q 403 698 375 713 q 479 672 432 683 q 583 646 526 660 q 695 611 639 632 q 799 558 751 590 q 874 478 846 526 q 903 361 903 431 q 861 210 903 272 q 733 90 819 147 m 471 -304 q 263 -250 358 -304 q 118 -92 167 -196 l 325 15 q 388 -47 344 -19 q 482 -75 431 -75 q 540 -67 515 -75 q 577 -43 564 -58 q 590 -7 590 -28 q 562 30 590 15 q 486 56 533 44 q 383 82 439 68 q 270 117 326 96 q 167 169 214 138 q 91 249 119 201 q 63 367 63 297 q 104 518 63 456 q 232 638 146 581 l 378 497 q 322 444 338 476 q 306 389 306 413 q 334 333 306 354 q 410 296 363 311 q 513 267 457 281 q 626 233 569 253 q 729 183 682 214 q 805 104 776 151 q 833 -14 833 57 q 787 -167 833 -101 q 658 -268 740 -232 q 471 -304 576 -304 z "},"©":{"ha":1111,"x_min":56,"x_max":1056,"o":"m 556 -14 q 361 25 451 -14 q 202 133 271 64 q 94 292 133 201 q 56 486 56 382 q 94 679 56 589 q 202 838 133 769 q 361 946 271 907 q 556 985 451 985 q 750 946 660 985 q 909 838 840 907 q 1017 679 978 769 q 1056 486 1056 589 q 1017 292 1056 382 q 909 133 978 201 q 750 25 840 64 q 556 -14 660 -14 m 556 144 q 688 171 626 144 q 794 244 749 197 q 866 353 840 292 q 892 486 892 415 q 867 617 892 556 q 796 726 842 679 q 689 800 750 774 q 556 826 628 826 q 424 800 485 826 q 317 726 364 774 q 245 617 271 679 q 219 486 219 556 q 244 353 219 415 q 315 244 269 292 q 422 171 361 197 q 556 144 483 144 m 574 251 q 452 283 507 251 q 365 367 397 314 q 332 488 332 421 q 365 607 332 554 q 452 691 397 660 q 574 722 507 722 q 703 685 650 722 q 779 594 757 649 l 639 517 q 613 545 629 533 q 574 557 597 557 q 537 548 553 557 q 511 524 521 539 q 501 488 501 508 q 511 451 501 467 q 537 426 521 435 q 574 417 553 417 q 614 430 597 417 q 639 461 631 443 l 779 381 q 700 288 753 324 q 574 251 647 251 z "},"®":{"ha":778,"x_min":28,"x_max":750,"o":"m 389 238 q 207 286 289 238 q 76 417 125 335 q 28 599 28 499 q 76 780 28 699 q 207 910 125 861 q 389 958 289 958 q 571 910 489 958 q 701 780 653 861 q 750 599 750 699 q 701 417 750 499 q 571 286 653 335 q 389 238 489 238 m 389 351 q 513 385 458 351 q 600 474 568 418 q 632 599 632 531 q 600 722 632 667 q 513 811 568 778 q 389 844 458 844 q 267 811 322 844 q 178 722 211 778 q 146 599 146 667 q 178 474 146 531 q 265 385 210 418 q 389 351 319 351 m 358 440 l 258 440 l 258 778 l 397 778 q 498 749 458 778 q 538 667 538 721 q 502 590 538 615 q 410 564 467 564 l 415 588 q 476 575 456 588 q 517 521 497 563 l 554 440 l 436 440 l 413 497 q 392 525 403 519 q 357 531 381 531 l 339 531 l 339 621 l 399 621 q 424 628 415 621 q 433 650 433 636 q 399 679 433 679 l 358 679 l 358 440 z "},"™":{"ha":1278,"x_min":42,"x_max":1236,"o":"m 172 896 l 338 896 l 338 436 l 172 436 l 172 896 m 463 938 l 463 783 l 42 783 l 42 938 l 463 938 m 639 436 l 468 436 l 542 857 q 585 924 549 901 q 664 947 621 947 q 738 927 703 947 q 786 865 774 907 l 828 728 q 844 660 840 688 q 849 617 849 633 q 853 610 849 610 q 857 617 857 610 q 860 660 857 633 q 876 728 864 688 l 918 865 q 966 926 931 906 q 1040 946 1001 946 q 1119 924 1082 946 q 1163 857 1156 901 l 1236 436 l 1065 436 l 1040 608 q 1030 709 1031 678 q 1029 754 1029 740 q 1025 765 1029 765 q 1021 754 1021 765 q 1017 706 1021 740 q 992 608 1013 672 l 956 497 q 917 450 946 465 q 854 435 888 435 q 790 451 819 435 q 750 497 760 467 l 714 608 q 687 713 690 682 q 683 754 683 744 q 679 765 683 765 q 676 763 678 765 q 675 754 675 761 q 675 714 675 744 q 664 608 675 683 l 639 436 z "},"°":{"ha":597,"x_min":28,"x_max":569,"o":"m 299 510 q 160 545 222 510 q 63 640 99 581 q 28 772 28 700 q 63 902 28 843 q 160 997 99 961 q 299 1032 222 1032 q 438 997 376 1032 q 534 902 499 961 q 569 772 569 843 q 534 640 569 700 q 438 545 499 581 q 299 510 376 510 m 299 686 q 342 698 324 686 q 372 729 361 710 q 382 771 382 749 q 372 813 382 794 q 342 843 361 832 q 299 854 324 854 q 255 843 274 854 q 226 813 236 832 q 215 771 215 794 q 226 729 215 749 q 255 698 236 710 q 299 686 274 686 z "},"|":{"ha":500,"x_min":125,"x_max":375,"o":"m 375 -194 l 125 -194 l 125 1014 l 375 1014 l 375 -194 z "},"¦":{"ha":500,"x_min":125,"x_max":375,"o":"m 125 264 l 375 264 l 375 -194 l 125 -194 l 125 264 m 375 556 l 125 556 l 125 1014 l 375 1014 l 375 556 z "},"†":{"ha":813,"x_min":28,"x_max":785,"o":"m 535 -243 l 278 -243 l 278 938 l 535 938 l 535 -243 m 785 458 l 28 458 l 28 694 l 785 694 l 785 458 z "},"‡":{"ha":868,"x_min":56,"x_max":813,"o":"m 563 -243 l 306 -243 l 306 938 l 563 938 l 563 -243 m 813 0 l 56 0 l 56 236 l 813 236 l 813 0 m 813 458 l 56 458 l 56 694 l 813 694 l 813 458 z "},"℮":{"ha":861,"x_min":25,"x_max":836,"o":"m 836 489 l 836 469 l 201 469 l 201 175 q 431 104 299 104 q 718 226 611 104 l 739 210 q 603 112 683 146 q 431 78 524 78 q 226 128 318 78 q 80 267 135 178 q 25 475 25 357 l 25 483 q 80 692 25 603 q 226 831 135 781 q 431 881 318 881 q 633 831 542 881 q 779 694 724 782 q 836 489 835 607 m 201 783 l 201 489 l 658 489 l 658 786 q 553 836 611 818 q 431 854 496 854 q 306 835 364 854 q 201 783 249 817 z "},"ʼ":{"ha":0,"x_min":0,"x_max":174,"o":"m 174 1014 l 174 746 l 0 746 l 0 1014 l 174 1014 z "},"̈":{"ha":0,"x_min":-324,"x_max":324,"o":"m -182 776 q -282 818 -240 776 q -324 918 -324 860 q -282 1018 -324 976 q -182 1060 -240 1060 q -83 1018 -125 1060 q -42 918 -42 976 q -83 818 -42 860 q -182 776 -125 776 m 182 776 q 83 818 125 776 q 42 918 42 860 q 83 1018 42 976 q 182 1060 125 1060 q 282 1018 240 1060 q 324 918 324 976 q 282 818 324 860 q 182 776 240 776 z "},"̇":{"ha":0,"x_min":-150,"x_max":150,"o":"m 0 768 q -75 788 -40 768 q -130 843 -110 808 q -150 918 -150 878 q -130 994 -150 960 q -75 1048 -110 1028 q 0 1068 -40 1068 q 76 1048 42 1068 q 130 994 110 1028 q 150 918 150 960 q 130 843 150 878 q 76 788 110 808 q 0 768 42 768 z "},"̀":{"ha":0,"x_min":-292,"x_max":139,"o":"m -37 1042 l 139 796 l -108 796 l -292 1042 l -37 1042 z "},"́":{"ha":0,"x_min":-136,"x_max":294,"o":"m 111 796 l -136 796 l 40 1042 l 294 1042 l 111 796 z "},"̋":{"ha":0,"x_min":-306,"x_max":472,"o":"m -72 796 l -306 796 l -129 1042 l 111 1042 l -72 796 m 289 796 l 56 796 l 232 1042 l 472 1042 l 289 796 z "},"̂":{"ha":0,"x_min":-312,"x_max":313,"o":"m -312 796 l -206 947 q -115 1024 -169 999 q 0 1050 -60 1050 q 115 1024 60 1050 q 206 947 169 999 l 313 796 l 72 796 l -1 900 q 1 905 -4 904 q 1 900 6 906 l -72 796 l -312 796 z "},"̌":{"ha":0,"x_min":-312,"x_max":313,"o":"m -206 890 l -312 1042 l -72 1042 l 1 938 q 1 933 6 932 q -1 938 -4 933 l 72 1042 l 313 1042 l 206 890 q 115 814 169 839 q 0 789 60 789 q -115 814 -60 789 q -206 890 -169 839 z "},"̆":{"ha":0,"x_min":-276,"x_max":279,"o":"m 1 796 q -208 858 -139 796 q -276 1028 -276 919 l -276 1042 l -68 1042 l -68 1028 q -53 984 -68 1006 q 1 963 -39 963 q 56 985 42 963 q 71 1028 71 1007 l 71 1042 l 279 1042 l 279 1028 q 210 858 279 919 q 1 796 142 796 z "},"̊":{"ha":0,"x_min":-199,"x_max":199,"o":"m 0 719 q -99 747 -54 719 q -172 819 -144 774 q -199 918 -199 864 q -172 1017 -199 972 q -99 1090 -144 1063 q 0 1117 -54 1117 q 99 1090 54 1117 q 172 1017 144 1063 q 199 918 199 972 q 172 819 199 864 q 99 747 144 774 q 0 719 54 719 m 0 863 q 40 879 24 863 q 56 918 56 896 q 40 958 56 942 q 0 974 24 974 q -39 958 -22 974 q -56 918 -56 942 q -39 879 -56 896 q 0 863 -22 863 z "},"̃":{"ha":0,"x_min":-297,"x_max":296,"o":"m -121 796 l -297 843 q -274 935 -294 892 q -216 1005 -253 978 q -131 1032 -179 1032 q -53 1022 -89 1032 q 11 1001 -18 1011 q 65 990 40 990 q 103 1007 89 990 q 119 1042 118 1024 l 296 994 q 272 903 293 946 q 215 833 251 860 q 129 806 179 806 q 50 816 83 806 q -11 837 17 826 q -67 847 -39 847 q -104 831 -90 847 q -121 796 -118 814 z "},"̄":{"ha":0,"x_min":-268,"x_max":267,"o":"m 267 1014 l 267 826 l -268 826 l -268 1014 l 267 1014 z "},"̒":{"ha":0,"x_min":-124,"x_max":126,"o":"m -29 1131 l 106 1131 l 64 879 l -119 913 l -29 1131 m 1 1004 q 90 967 53 1004 q 126 879 126 931 q 90 791 126 828 q 1 754 53 754 q -87 791 -50 754 q -124 879 -124 828 q -87 967 -124 931 q 1 1004 -50 1004 z "},"̦":{"ha":0,"x_min":-125,"x_max":125,"o":"m 31 -454 l -104 -454 l -62 -203 l 121 -236 l 31 -454 m 0 -328 q -88 -291 -51 -328 q -125 -203 -125 -254 q -88 -115 -125 -151 q 0 -78 -51 -78 q 88 -115 51 -78 q 125 -203 125 -151 q 88 -291 125 -254 q 0 -328 51 -328 z "},"̧":{"ha":0,"x_min":-162,"x_max":178,"o":"m 110 0 l 82 -93 l -144 -93 l -110 0 l 110 0 m -71 -424 l -150 -260 q -60 -230 -83 -250 q -37 -186 -37 -210 q -64 -150 -37 -160 q -132 -140 -90 -140 l -162 -140 l -119 -25 l -49 -25 q 114 -69 50 -24 q 178 -201 178 -115 q 145 -310 178 -264 q 56 -385 113 -357 q -71 -424 0 -414 z "},"̨":{"ha":0,"x_min":-301,"x_max":74,"o":"m 74 -237 l -11 -429 q -160 -391 -94 -422 q -264 -309 -226 -360 q -301 -193 -301 -258 q -278 -88 -301 -135 q -211 0 -254 -42 l 1 0 q -61 -67 -42 -36 q -81 -131 -81 -99 q -35 -206 -81 -182 q 74 -237 10 -231 z "},"¨":{"ha":758,"x_min":56,"x_max":703,"o":"m 197 776 q 97 818 139 776 q 56 918 56 860 q 97 1018 56 976 q 197 1060 139 1060 q 296 1018 254 1060 q 338 918 338 976 q 296 818 338 860 q 197 776 254 776 m 561 776 q 463 818 504 776 q 421 918 421 860 q 463 1018 421 976 q 561 1060 504 1060 q 661 1018 619 1060 q 703 918 703 976 q 661 818 703 860 q 561 776 619 776 z "},"˙":{"ha":411,"x_min":56,"x_max":356,"o":"m 206 768 q 131 788 165 768 q 76 843 96 808 q 56 918 56 878 q 76 994 56 960 q 131 1048 96 1028 q 206 1068 165 1068 q 281 1048 247 1068 q 335 994 315 1028 q 356 918 356 960 q 335 843 356 878 q 281 788 315 808 q 206 768 247 768 z "},"`":{"ha":542,"x_min":56,"x_max":486,"o":"m 310 1042 l 486 796 l 239 796 l 56 1042 l 310 1042 z "},"´":{"ha":542,"x_min":56,"x_max":486,"o":"m 303 796 l 56 796 l 232 1042 l 486 1042 l 303 796 z "},"˝":{"ha":889,"x_min":56,"x_max":833,"o":"m 289 796 l 56 796 l 232 1042 l 472 1042 l 289 796 m 650 796 l 417 796 l 593 1042 l 833 1042 l 650 796 z "},"ˆ":{"ha":736,"x_min":56,"x_max":681,"o":"m 56 796 l 163 947 q 253 1024 199 999 q 368 1050 308 1050 q 483 1024 428 1050 q 574 947 538 999 l 681 796 l 440 796 l 367 900 q 369 905 364 904 q 369 900 374 906 l 296 796 l 56 796 z "},"ˇ":{"ha":736,"x_min":56,"x_max":681,"o":"m 163 890 l 56 1042 l 296 1042 l 369 938 q 369 933 374 932 q 367 938 364 933 l 440 1042 l 681 1042 l 574 890 q 483 814 538 839 q 368 789 428 789 q 253 814 308 789 q 163 890 199 839 z "},"˘":{"ha":667,"x_min":56,"x_max":611,"o":"m 333 796 q 124 858 193 796 q 56 1028 56 919 l 56 1042 l 264 1042 l 264 1028 q 278 984 264 1006 q 333 963 293 963 q 388 985 374 963 q 403 1028 403 1007 l 403 1042 l 611 1042 l 611 1028 q 542 858 611 919 q 333 796 474 796 z "},"˚":{"ha":682,"x_min":146,"x_max":543,"o":"m 344 719 q 245 747 290 719 q 173 819 200 774 q 146 918 146 864 q 173 1017 146 972 q 245 1090 200 1063 q 344 1117 290 1117 q 444 1090 399 1117 q 516 1017 489 1063 q 543 918 543 972 q 516 819 543 864 q 444 747 489 774 q 344 719 399 719 m 344 863 q 384 879 368 863 q 400 918 400 896 q 384 958 400 942 q 344 974 368 974 q 306 958 322 974 q 289 918 289 942 q 306 879 289 896 q 344 863 322 863 z "},"˜":{"ha":815,"x_min":111,"x_max":704,"o":"m 288 796 l 111 843 q 135 935 114 892 q 192 1005 156 978 q 278 1032 229 1032 q 356 1022 321 1032 q 419 1001 390 1011 q 474 990 449 990 q 512 1007 497 990 q 528 1042 526 1024 l 704 994 q 681 903 701 946 q 624 833 660 860 q 538 806 588 806 q 459 816 493 806 q 397 837 425 826 q 342 847 369 847 q 304 831 318 847 q 288 796 290 814 z "},"¯":{"ha":646,"x_min":56,"x_max":590,"o":"m 590 1014 l 590 826 l 56 826 l 56 1014 l 590 1014 z "},"¸":{"ha":889,"x_min":254,"x_max":594,"o":"m 526 0 l 499 -93 l 272 -93 l 307 0 l 526 0 m 346 -424 l 267 -260 q 356 -230 333 -250 q 379 -186 379 -210 q 353 -150 379 -160 q 285 -140 326 -140 l 254 -140 l 297 -25 l 368 -25 q 531 -69 467 -24 q 594 -201 594 -115 q 562 -310 594 -264 q 473 -385 529 -357 q 346 -424 417 -414 z "},"˛":{"ha":833,"x_min":213,"x_max":588,"o":"m 588 -237 l 503 -429 q 353 -391 419 -422 q 250 -309 288 -360 q 213 -193 213 -258 q 236 -88 213 -135 q 303 0 260 -42 l 515 0 q 453 -67 472 -36 q 433 -131 433 -99 q 478 -206 433 -182 q 588 -237 524 -231 z "}}}
